  0
SECTION
  2
HEADER
  9
$ACADVER
  1
AC1012
  9
$DWGCODEPAGE
  3
dos850
  9
$INSBASE
 10
0.0
 20
0.0
 30
0.0
  9
$EXTMIN
 10
245.938396
 20
74.194401
 30
0.0
  9
$EXTMAX
 10
342.899014
 20
136.981951
 30
0.0
  9
$LIMMIN
 10
0.0
 20
0.0
  9
$LIMMAX
 10
0.0
 20
0.0
  9
$ORTHOMODE
 70
     0
  9
$REGENMODE
 70
     1
  9
$FILLMODE
 70
     1
  9
$QTEXTMODE
 70
     0
  9
$MIRRTEXT
 70
     1
  9
$DRAGMODE
 70
     2
  9
$LTSCALE
 40
1.0
  9
$OSMODE
 70
     0
  9
$ATTMODE
 70
     1
  9
$TEXTSIZE
 40
0.2
  9
$TRACEWID
 40
0.05
  9
$TEXTSTYLE
  7
STANDARD
  9
$CLAYER
  8
0
  9
$CELTYPE
  6
CONTINUOUS
  9
$CECOLOR
 62
   256
  9
$CELTSCALE
 40
1.0
  9
$DELOBJ
 70
     1
  9
$DISPSILH
 70
     0
  9
$DIMSCALE
 40
1.0
  9
$DIMASZ
 40
0.18
  9
$DIMEXO
 40
0.0625
  9
$DIMDLI
 40
0.38
  9
$DIMRND
 40
0.0
  9
$DIMDLE
 40
0.0
  9
$DIMEXE
 40
0.18
  9
$DIMTP
 40
0.0
  9
$DIMTM
 40
0.0
  9
$DIMTXT
 40
0.18
  9
$DIMCEN
 40
0.09
  9
$DIMTSZ
 40
0.0
  9
$DIMTOL
 70
     0
  9
$DIMLIM
 70
     0
  9
$DIMTIH
 70
     1
  9
$DIMTOH
 70
     1
  9
$DIMSE1
 70
     0
  9
$DIMSE2
 70
     0
  9
$DIMTAD
 70
     0
  9
$DIMZIN
 70
     0
  9
$DIMBLK
  1

  9
$DIMASO
 70
     1
  9
$DIMSHO
 70
     1
  9
$DIMPOST
  1

  9
$DIMAPOST
  1

  9
$DIMALT
 70
     0
  9
$DIMALTD
 70
     2
  9
$DIMALTF
 40
25.4
  9
$DIMLFAC
 40
1.0
  9
$DIMTOFL
 70
     0
  9
$DIMTVP
 40
0.0
  9
$DIMTIX
 70
     0
  9
$DIMSOXD
 70
     0
  9
$DIMSAH
 70
     0
  9
$DIMBLK1
  1

  9
$DIMBLK2
  1

  9
$DIMSTYLE
  2
STANDARD
  9
$DIMCLRD
 70
     0
  9
$DIMCLRE
 70
     0
  9
$DIMCLRT
 70
     0
  9
$DIMTFAC
 40
1.0
  9
$DIMGAP
 40
0.09
  9
$DIMJUST
 70
     0
  9
$DIMSD1
 70
     0
  9
$DIMSD2
 70
     0
  9
$DIMTOLJ
 70
     1
  9
$DIMTZIN
 70
     0
  9
$DIMALTZ
 70
     0
  9
$DIMALTTZ
 70
     0
  9
$DIMFIT
 70
     3
  9
$DIMUPT
 70
     0
  9
$DIMUNIT
 70
     2
  9
$DIMDEC
 70
     4
  9
$DIMTDEC
 70
     4
  9
$DIMALTU
 70
     2
  9
$DIMALTTD
 70
     2
  9
$DIMTXSTY
  7
STANDARD
  9
$DIMAUNIT
 70
     0
  9
$LUNITS
 70
     2
  9
$LUPREC
 70
     4
  9
$SKETCHINC
 40
0.1
  9
$FILLETRAD
 40
0.0
  9
$AUNITS
 70
     0
  9
$AUPREC
 70
     0
  9
$MENU
  1
acad
  9
$ELEVATION
 40
0.0
  9
$PELEVATION
 40
0.0
  9
$THICKNESS
 40
0.0
  9
$LIMCHECK
 70
     0
  9
$BLIPMODE
 70
     1
  9
$CHAMFERA
 40
0.0
  9
$CHAMFERB
 40
0.0
  9
$CHAMFERC
 40
0.0
  9
$CHAMFERD
 40
0.0
  9
$SKPOLY
 70
     0
  9
$TDCREATE
 40
0.000000000
  9
$TDUPDATE
 40
0.000000000
  9
$TDINDWG
 40
0.0000000000
  9
$TDUSRTIMER
 40
0.0000000000
  9
$USRTIMER
 70
     1
  9
$ANGBASE
 50
0.0
  9
$ANGDIR
 70
     0
  9
$PDMODE
 70
     0
  9
$PDSIZE
 40
0.0
  9
$PLINEWID
 40
0.0
  9
$COORDS
 70
     0
  9
$SPLFRAME
 70
     0
  9
$SPLINETYPE
 70
     6
  9
$SPLINESEGS
 70
     8
  9
$ATTDIA
 70
     0
  9
$ATTREQ
 70
     1
  9
$HANDLING
 70
     1
  9
$HANDSEED
  5
6BA
  9
$SURFTAB1
 70
     6
  9
$SURFTAB2
 70
     6
  9
$SURFTYPE
 70
     6
  9
$SURFU
 70
     6
  9
$SURFV
 70
     6
  9
$UCSNAME
  2

  9
$UCSORG
 10
0.0
 20
0.0
 30
0.0
  9
$UCSXDIR
 10
1.0
 20
0.0
 30
0.0
  9
$UCSYDIR
 10
0.0
 20
1.0
 30
0.0
  9
$PUCSNAME
  2

  9
$PUCSORG
 10
0.0
 20
0.0
 30
0.0
  9
$PUCSXDIR
 10
1.0
 20
0.0
 30
0.0
  9
$PUCSYDIR
 10
0.0
 20
1.0
 30
0.0
  9
$USERI1
 70
     0
  9
$USERI2
 70
     0
  9
$USERI3
 70
     0
  9
$USERI4
 70
     0
  9
$USERI5
 70
     0
  9
$USERR1
 40
0.0
  9
$USERR2
 40
0.0
  9
$USERR3
 40
0.0
  9
$USERR4
 40
0.0
  9
$USERR5
 40
0.0
  9
$WORLDVIEW
 70
     1
  9
$SHADEDGE
 70
     3
  9
$SHADEDIF
 70
    70
  9
$TILEMODE
 70
     1
  9
$MAXACTVP
 70
    16
  9
$PINSBASE
 10
0.0
 20
0.0
 30
0.0
  9
$PLIMCHECK
 70
     0
  9
$PEXTMIN
 10
1.000000E+20
 20
1.000000E+20
 30
1.000000E+20
  9
$PEXTMAX
 10
-1.000000E+20
 20
-1.000000E+20
 30
-1.000000E+20
  9
$PLIMMIN
 10
0.0
 20
0.0
  9
$PLIMMAX
 10
12.0
 20
9.0
  9
$UNITMODE
 70
     0
  9
$VISRETAIN
 70
     0
  9
$PLINEGEN
 70
     1
  9
$PSLTSCALE
 70
     0
  9
$TREEDEPTH
 70
  3020
  9
$PICKSTYLE
 70
     1
  9
$CMLSTYLE
  2
Standard
  9
$CMLJUST
 70
     0
  9
$CMLSCALE
 40
1.0
  9
$SAVEIMAGES
 70
     0
  0
ENDSEC
  0
SECTION
  2
CLASSES
  0
CLASS
  1
LWPOLYLINE
  2
AcDbPolyline
  3
"AutoCAD"
 90
        0
280
     0
281
     1
  0
CLASS
  1
IMAGE
  2
AcDbRasterImage
  3
ISM
 90
      127
280
     0
281
     1
  0
CLASS
  1
OLE2FRAME
  2
AcDbOle2Frame
  3
""
 90
        0
280
     0
281
     1
  0
CLASS
  1
HATCH
  2
AcDbHatch
  3
"ACAD_SEDONA"
 90
        0
280
     0
281
     1
  0
CLASS
  1
DICTIONARYVAR
  2
AcDbDictionaryVar
  3
"AutoCAD"
 90
        0
280
     0
281
     0
  0
CLASS
  1
RASTERVARIABLES
  2
AcDbRasterVariables
  3
ISM
 90
        0
280
     0
281
     0
  0
CLASS
  1
IMAGEDEF
  2
AcDbRasterImageDef
  3
ISM
 90
        0
280
     0
281
     0
  0
CLASS
  1
IMAGEDEF_REACTOR
  2
AcDbRasterImageDefReactor
  3
ISM
 90
        1
280
     0
281
     0
  0
CLASS
  1
IDBUFFER
  2
AcDbIdBuffer
  3
"Acad"
 90
        0
280
     0
281
     0
  0
CLASS
  1
SPATIAL_FILTER
  2
AcDbSpatialFilter
  3
"Acad"
 90
        0
280
     0
281
     0
  0
CLASS
  1
XRECORD
  2
AcDbXrecord
  3
"<Built In>"
 90
        0
280
     0
281
     0
  0
CLASS
  1
SORTENTSTABLE
  2
AcDbSortentsTable
  3
"AutoCAD"
 90
        0
280
     0
281
     0
  0
CLASS
  1
LAYER_INDEX
  2
AcDbLayerIndex
  3
"Acad"
 90
        0
280
     0
281
     0
  0
CLASS
  1
SPATIAL_INDEX
  2
AcDbSpatialIndex
  3
"Acad"
 90
        0
280
     0
281
     0
  0
CLASS
  1
OBJECT_PTR
  2
CAseDLPNTableRecord
  3
"ASE-LPNTableRecord"
 90
        1
280
     0
281
     0
  0
CLASS
  1
LAYOUT
  2
AcDbLayout
  3
"AutoCAD 2000"
 90
        1
280
     0
281
     0
  0
CLASS
  1
PLOTSETTINGS
  2
AcDbPlotSettings
  3
"AutoCAD 2000"
 90
        1
280
     0
281
     0
  0
CLASS
  1
ACDBDICTIONARYWDFLT
  2
AcDbDictionaryWithDefault
  3
"AutoCAD 2000"
 90
        1
280
     0
281
     0
  0
CLASS
  1
ACDBPLACEHOLDER
  2
AcDbPlaceHolder
  3
"AutoCAD 2000"
 90
        1
280
     0
281
     0
  0
CLASS
  1
VBA_PROJECT
  2
AcDbVbaProject
  3
"acadvba"
 90
        1
280
     0
281
     0
  0
CLASS
  1
WIPEOUT
  2
AcDbWipeout
  3
WipeOut|AutoCAD Express Tool|expresstools@autodesk.com
 90
      127
280
     0
281
     1
  0
CLASS
  1
WIPEOUTVARIABLES
  2
AcDbWipeoutVariables
  3
WipeOut|AutoCAD Express Tool|expresstools@autodesk.com
 90
        0
280
     0
281
     0
  0
CLASS
  1
RTEXT
  2
RText
  3
RText|AutoCAD Express Tool|expresstools@autodesk.com
 90
        0
280
     0
281
     1
  0
CLASS
  1
ARCALIGNEDTEXT
  2
AcDbArcAlignedText
  3
ATEXT|AutoCAD Express Tool|expresstools@autodesk.com
 90
        0
280
     0
281
     1
  0
ENDSEC
  0
SECTION
  2
TABLES
  0
TABLE
  2
VPORT
  5
7
100
AcDbSymbolTable
 70
     1
  0
VPORT
  5
15
100
AcDbSymbolTableRecord
100
AcDbViewportTableRecord
  2
*ACTIVE
 70
     0
 10
0.0
 20
0.0
 11
1.0
 21
1.0
 12
6.591288
 22
4.579184
 13
0.0
 23
0.0
 14
1.0
 24
1.0
 15
0.0
 25
0.0
 16
0.0
 26
0.0
 36
1.0
 17
0.0
 27
0.0
 37
0.0
 40
9.158369
 41
0.688564
 42
50.0
 43
0.0
 44
0.0
 50
0.0
 51
0.0
 71
     0
 72
   100
 73
     1
 74
     1
 75
     0
 76
     0
 77
     0
 78
     0
  0
ENDTAB
  0
TABLE
  2
LTYPE
  5
4
100
AcDbSymbolTable
 70
     3
  0
LTYPE
  5
11
100
AcDbSymbolTableRecord
100
AcDbLinetypeTableRecord
  2
BYBLOCK
 70
    64
  3

 72
    65
 73
     0
 40
0.0
  0
LTYPE
  5
12
100
AcDbSymbolTableRecord
100
AcDbLinetypeTableRecord
  2
BYLAYER
 70
    64
  3

 72
    65
 73
     0
 40
0.0
  0
LTYPE
  5
13
100
AcDbSymbolTableRecord
100
AcDbLinetypeTableRecord
  2
CONTINUOUS
 70
    64
  3
Solid line
 72
    65
 73
     0
 40
0.0
  0
ENDTAB
  0
TABLE
  2
LAYER
  5
2
100
AcDbSymbolTable
 70
     9
  0
LAYER
  5
14
100
AcDbSymbolTableRecord
100
AcDbLayerTableRecord
  2
0
 70
     0
 62
     7
  6
CONTINUOUS
  0
LAYER
  5
1D
100
AcDbSymbolTableRecord
100
AcDbLayerTableRecord
  2
TOPOVERLAY
 70
     0
 62
     2
  6
CONTINUOUS
  0
LAYER
  5
1E
100
AcDbSymbolTableRecord
100
AcDbLayerTableRecord
  2
TOPPASTE
 70
     0
 62
     8
  6
CONTINUOUS
  0
LAYER
  5
1F
100
AcDbSymbolTableRecord
100
AcDbLayerTableRecord
  2
BOTTOMPASTE
 70
     0
 62
    16
  6
CONTINUOUS
  0
LAYER
  5
20
100
AcDbSymbolTableRecord
100
AcDbLayerTableRecord
  2
TOPSOLDER
 70
     0
 62
   216
  6
CONTINUOUS
  0
LAYER
  5
21
100
AcDbSymbolTableRecord
100
AcDbLayerTableRecord
  2
BOTTOMSOLDER
 70
     0
 62
     6
  6
CONTINUOUS
  0
LAYER
  5
22
100
AcDbSymbolTableRecord
100
AcDbLayerTableRecord
  2
KEEPOUTLAYER
 70
     0
 62
     6
  6
CONTINUOUS
  0
LAYER
  5
23
100
AcDbSymbolTableRecord
100
AcDbLayerTableRecord
  2
MECHANICAL3
 70
     0
 62
    76
  6
CONTINUOUS
  0
LAYER
  5
24
100
AcDbSymbolTableRecord
100
AcDbLayerTableRecord
  2
MULTILAYER
 70
     0
 62
     9
  6
CONTINUOUS
  0
ENDTAB
  0
TABLE
  2
STYLE
  5
3
100
AcDbSymbolTable
 70
     1
  0
STYLE
  5
17
100
AcDbSymbolTableRecord
100
AcDbTextStyleTableRecord
  2
STANDARD
 70
     0
 40
0.0
 41
1.0
 50
0.0
 71
     0
 42
0.0
  3
txt
  4

  0
ENDTAB
  0
TABLE
  2
VIEW
  5
5
100
AcDbSymbolTable
 70
     0
  0
ENDTAB
  0
TABLE
  2
UCS
  5
6
100
AcDbSymbolTable
 70
     0
  0
ENDTAB
  0
TABLE
  2
APPID
  5
8
100
AcDbSymbolTable
 70
     1
  0
APPID
  5
16
100
AcDbSymbolTableRecord
100
AcDbRegAppTableRecord
  2
ACAD
 70
     0
  0
ENDTAB
  0
TABLE
  2
DIMSTYLE
  5
9
100
AcDbSymbolTable
 70
     1
  0
DIMSTYLE
105
18
100
AcDbSymbolTableRecord
100
AcDbDimStyleTableRecord
  2
STANDARD
 70
     0
  3

  4

  5

  6

  7

 40
1.0
 41
0.18
 42
0.0625
 43
0.38
 44
0.18
 45
0.0
 46
0.0
 47
0.0
 48
0.0
 71
     0
 72
     0
 73
     1
 74
     1
 75
     0
 76
     0
 77
     0
 78
     0
140
0.18
141
0.09
142
0.0
143
25.4
144
1.0
145
0.0
146
1.0
147
0.09
170
     0
171
     2
172
     0
173
     0
174
     0
175
     0
176
     0
177
     0
178
     0
270
     2
271
     4
272
     4
273
     2
274
     2
275
     0
280
     0
281
     0
282
     0
283
     1
284
     0
285
     0
286
     0
287
     0
288
     0
340
17
  0
ENDTAB
  0
TABLE
  2
BLOCK_RECORD
  5
1
100
AcDbSymbolTable
 70
     5
  0
BLOCK_RECORD
  5
A
100
AcDbSymbolTableRecord
100
AcDbBlockTableRecord
  2
*MODEL_SPACE
  0
BLOCK_RECORD
  5
B
100
AcDbSymbolTableRecord
100
AcDbBlockTableRecord
  2
*PAPER_SPACE
  0
BLOCK_RECORD
  5
34B
100
AcDbSymbolTableRecord
100
AcDbBlockTableRecord
  2
POWERF_1
  0
BLOCK_RECORD
  5
3C7
100
AcDbSymbolTableRecord
100
AcDbBlockTableRecord
  2
3_81_10_2
  0
BLOCK_RECORD
  5
474
100
AcDbSymbolTableRecord
100
AcDbBlockTableRecord
  2
______3
  0
BLOCK_RECORD
  5
52C
100
AcDbSymbolTableRecord
100
AcDbBlockTableRecord
  2
LED3_4
  0
BLOCK_RECORD
  5
5A9
100
AcDbSymbolTableRecord
100
AcDbBlockTableRecord
  2
RJ45_POE_5
  0
ENDTAB
  0
ENDSEC
  0
SECTION
  2
BLOCKS
  0
BLOCK
  5
D
100
AcDbEntity
  8
0
100
AcDbBlockBegin
  2
*MODEL_SPACE
 70
     0
 10
0.0
 20
0.0
 30
0.0
  3
*MODEL_SPACE
  1

  0
ENDBLK
  5
E
100
AcDbEntity
  8
0
100
AcDbBlockEnd
  0
BLOCK
  5
F
100
AcDbEntity
 67
     1
  8
0
100
AcDbBlockBegin
  2
*PAPER_SPACE
 70
     0
 10
0.0
 20
0.0
 30
0.0
  3
*PAPER_SPACE
  1

  0
ENDBLK
  5
10
100
AcDbEntity
 67
     1
  8
0
100
AcDbBlockEnd
  0
BLOCK
  5
34C
100
AcDbEntity
  8
0
100
AcDbBlockBegin
  2
POWERF_1
 70
     0
 10
0.0
 20
0.0
 30
0.0
  3
POWERF_1
  1

  0
POLYLINE
  5
34D
100
AcDbEntity
  8
TOPOVERLAY
100
AcDb2dPolyline
 66
     1
 10
0.0
 20
0.0
 30
0.0
 40
0.1524
 41
0.1524
 75
     8
  0
VERTEX
  5
34E
100
AcDbEntity
  8
TOPOVERLAY
100
AcDbVertex
100
AcDb2dVertex
 10
0.0
 20
0.0
 30
0.0
  0
VERTEX
  5
34F
100
AcDbEntity
  8
TOPOVERLAY
100
AcDbVertex
100
AcDb2dVertex
 10
2.5527
 20
0.0
 30
0.0
  0
SEQEND
  5
350
100
AcDbEntity
  8
0
  0
POLYLINE
  5
351
100
AcDbEntity
  8
TOPOVERLAY
100
AcDb2dPolyline
 66
     1
 10
0.0
 20
0.0
 30
0.0
 70
     1
 40
0.0762
 41
0.0762
 75
     8
  0
VERTEX
  5
352
100
AcDbEntity
  8
TOPOVERLAY
100
AcDbVertex
100
AcDb2dVertex
 10
-0.0381
 20
0.0
 30
0.0
 42
1.0
  0
VERTEX
  5
353
100
AcDbEntity
  8
TOPOVERLAY
100
AcDbVertex
100
AcDb2dVertex
 10
0.0381
 20
0.0
 30
0.0
 42
1.0
  0
SEQEND
  5
354
100
AcDbEntity
  8
0
  0
POLYLINE
  5
355
100
AcDbEntity
  8
TOPOVERLAY
100
AcDb2dPolyline
 66
     1
 10
0.0
 20
0.0
 30
0.0
 70
     1
 40
0.0762
 41
0.0762
 75
     8
  0
VERTEX
  5
356
100
AcDbEntity
  8
TOPOVERLAY
100
AcDbVertex
100
AcDb2dVertex
 10
2.5146
 20
0.0
 30
0.0
 42
1.0
  0
VERTEX
  5
357
100
AcDbEntity
  8
TOPOVERLAY
100
AcDbVertex
100
AcDb2dVertex
 10
2.5908
 20
0.0
 30
0.0
 42
1.0
  0
SEQEND
  5
358
100
AcDbEntity
  8
0
  0
POLYLINE
  5
359
100
AcDbEntity
  8
TOPOVERLAY
100
AcDb2dPolyline
 66
     1
 10
0.0
 20
0.0
 30
0.0
 40
0.1524
 41
0.1524
 75
     8
  0
VERTEX
  5
35A
100
AcDbEntity
  8
TOPOVERLAY
100
AcDbVertex
100
AcDb2dVertex
 10
-3.54838
 20
0.0
 30
0.0
  0
VERTEX
  5
35B
100
AcDbEntity
  8
TOPOVERLAY
100
AcDbVertex
100
AcDb2dVertex
 10
-1.20904
 20
0.0
 30
0.0
  0
SEQEND
  5
35C
100
AcDbEntity
  8
0
  0
POLYLINE
  5
35D
100
AcDbEntity
  8
TOPOVERLAY
100
AcDb2dPolyline
 66
     1
 10
0.0
 20
0.0
 30
0.0
 70
     1
 40
0.0762
 41
0.0762
 75
     8
  0
VERTEX
  5
35E
100
AcDbEntity
  8
TOPOVERLAY
100
AcDbVertex
100
AcDb2dVertex
 10
-3.58648
 20
0.0
 30
0.0
 42
1.0
  0
VERTEX
  5
35F
100
AcDbEntity
  8
TOPOVERLAY
100
AcDbVertex
100
AcDb2dVertex
 10
-3.51028
 20
0.0
 30
0.0
 42
1.0
  0
SEQEND
  5
360
100
AcDbEntity
  8
0
  0
POLYLINE
  5
361
100
AcDbEntity
  8
TOPOVERLAY
100
AcDb2dPolyline
 66
     1
 10
0.0
 20
0.0
 30
0.0
 70
     1
 40
0.0762
 41
0.0762
 75
     8
  0
VERTEX
  5
362
100
AcDbEntity
  8
TOPOVERLAY
100
AcDbVertex
100
AcDb2dVertex
 10
-1.24714
 20
0.0
 30
0.0
 42
1.0
  0
VERTEX
  5
363
100
AcDbEntity
  8
TOPOVERLAY
100
AcDbVertex
100
AcDb2dVertex
 10
-1.17094
 20
0.0
 30
0.0
 42
1.0
  0
SEQEND
  5
364
100
AcDbEntity
  8
0
  0
POLYLINE
  5
365
100
AcDbEntity
  8
TOPOVERLAY
100
AcDb2dPolyline
 66
     1
 10
0.0
 20
0.0
 30
0.0
 40
0.1524
 41
0.1524
 75
     8
  0
VERTEX
  5
366
100
AcDbEntity
  8
TOPOVERLAY
100
AcDbVertex
100
AcDb2dVertex
 10
-3.56108
 20
0.0127
 30
0.0
  0
VERTEX
  5
367
100
AcDbEntity
  8
TOPOVERLAY
100
AcDbVertex
100
AcDb2dVertex
 10
-3.54838
 20
0.0
 30
0.0
  0
SEQEND
  5
368
100
AcDbEntity
  8
0
  0
POLYLINE
  5
369
100
AcDbEntity
  8
TOPOVERLAY
100
AcDb2dPolyline
 66
     1
 10
0.0
 20
0.0
 30
0.0
 70
     1
 40
0.0762
 41
0.0762
 75
     8
  0
VERTEX
  5
36A
100
AcDbEntity
  8
TOPOVERLAY
100
AcDbVertex
100
AcDb2dVertex
 10
-3.59918
 20
0.0127
 30
0.0
 42
1.0
  0
VERTEX
  5
36B
100
AcDbEntity
  8
TOPOVERLAY
100
AcDbVertex
100
AcDb2dVertex
 10
-3.52298
 20
0.0127
 30
0.0
 42
1.0
  0
SEQEND
  5
36C
100
AcDbEntity
  8
0
  0
POLYLINE
  5
36D
100
AcDbEntity
  8
TOPOVERLAY
100
AcDb2dPolyline
 66
     1
 10
0.0
 20
0.0
 30
0.0
 70
     1
 40
0.0762
 41
0.0762
 75
     8
  0
VERTEX
  5
36E
100
AcDbEntity
  8
TOPOVERLAY
100
AcDbVertex
100
AcDb2dVertex
 10
-3.58648
 20
0.0
 30
0.0
 42
1.0
  0
VERTEX
  5
36F
100
AcDbEntity
  8
TOPOVERLAY
100
AcDbVertex
100
AcDb2dVertex
 10
-3.51028
 20
0.0
 30
0.0
 42
1.0
  0
SEQEND
  5
370
100
AcDbEntity
  8
0
  0
POLYLINE
  5
371
100
AcDbEntity
  8
TOPOVERLAY
100
AcDb2dPolyline
 66
     1
 10
0.0
 20
0.0
 30
0.0
 40
0.1524
 41
0.1524
 75
     8
  0
VERTEX
  5
372
100
AcDbEntity
  8
TOPOVERLAY
100
AcDbVertex
100
AcDb2dVertex
 10
3.05054
 20
0.00762
 30
0.0
  0
VERTEX
  5
373
100
AcDbEntity
  8
TOPOVERLAY
100
AcDbVertex
100
AcDb2dVertex
 10
4.05892
 20
0.00762
 30
0.0
  0
SEQEND
  5
374
100
AcDbEntity
  8
0
  0
POLYLINE
  5
375
100
AcDbEntity
  8
TOPOVERLAY
100
AcDb2dPolyline
 66
     1
 10
0.0
 20
0.0
 30
0.0
 70
     1
 40
0.0762
 41
0.0762
 75
     8
  0
VERTEX
  5
376
100
AcDbEntity
  8
TOPOVERLAY
100
AcDbVertex
100
AcDb2dVertex
 10
3.01244
 20
0.00762
 30
0.0
 42
1.0
  0
VERTEX
  5
377
100
AcDbEntity
  8
TOPOVERLAY
100
AcDbVertex
100
AcDb2dVertex
 10
3.08864
 20
0.00762
 30
0.0
 42
1.0
  0
SEQEND
  5
378
100
AcDbEntity
  8
0
  0
POLYLINE
  5
379
100
AcDbEntity
  8
TOPOVERLAY
100
AcDb2dPolyline
 66
     1
 10
0.0
 20
0.0
 30
0.0
 70
     1
 40
0.0762
 41
0.0762
 75
     8
  0
VERTEX
  5
37A
100
AcDbEntity
  8
TOPOVERLAY
100
AcDbVertex
100
AcDb2dVertex
 10
4.02082
 20
0.00762
 30
0.0
 42
1.0
  0
VERTEX
  5
37B
100
AcDbEntity
  8
TOPOVERLAY
100
AcDbVertex
100
AcDb2dVertex
 10
4.09702
 20
0.00762
 30
0.0
 42
1.0
  0
SEQEND
  5
37C
100
AcDbEntity
  8
0
  0
POLYLINE
  5
37D
100
AcDbEntity
  8
TOPOVERLAY
100
AcDb2dPolyline
 66
     1
 10
0.0
 20
0.0
 30
0.0
 40
0.1524
 41
0.1524
 75
     8
  0
VERTEX
  5
37E
100
AcDbEntity
  8
TOPOVERLAY
100
AcDbVertex
100
AcDb2dVertex
 10
4.05892
 20
0.00762
 30
0.0
  0
VERTEX
  5
37F
100
AcDbEntity
  8
TOPOVERLAY
100
AcDbVertex
100
AcDb2dVertex
 10
4.06654
 20
0.0
 30
0.0
  0
SEQEND
  5
380
100
AcDbEntity
  8
0
  0
POLYLINE
  5
381
100
AcDbEntity
  8
TOPOVERLAY
100
AcDb2dPolyline
 66
     1
 10
0.0
 20
0.0
 30
0.0
 70
     1
 40
0.0762
 41
0.0762
 75
     8
  0
VERTEX
  5
382
100
AcDbEntity
  8
TOPOVERLAY
100
AcDbVertex
100
AcDb2dVertex
 10
4.02082
 20
0.00762
 30
0.0
 42
1.0
  0
VERTEX
  5
383
100
AcDbEntity
  8
TOPOVERLAY
100
AcDbVertex
100
AcDb2dVertex
 10
4.09702
 20
0.00762
 30
0.0
 42
1.0
  0
SEQEND
  5
384
100
AcDbEntity
  8
0
  0
POLYLINE
  5
385
100
AcDbEntity
  8
TOPOVERLAY
100
AcDb2dPolyline
 66
     1
 10
0.0
 20
0.0
 30
0.0
 70
     1
 40
0.0762
 41
0.0762
 75
     8
  0
VERTEX
  5
386
100
AcDbEntity
  8
TOPOVERLAY
100
AcDbVertex
100
AcDb2dVertex
 10
4.02844
 20
0.0
 30
0.0
 42
1.0
  0
VERTEX
  5
387
100
AcDbEntity
  8
TOPOVERLAY
100
AcDbVertex
100
AcDb2dVertex
 10
4.10464
 20
0.0
 30
0.0
 42
1.0
  0
SEQEND
  5
388
100
AcDbEntity
  8
0
  0
POLYLINE
  5
389
100
AcDbEntity
  8
TOPOVERLAY
100
AcDb2dPolyline
 66
     1
 10
0.0
 20
0.0
 30
0.0
 40
0.1524
 41
0.1524
 75
     8
  0
VERTEX
  5
38A
100
AcDbEntity
  8
TOPOVERLAY
100
AcDbVertex
100
AcDb2dVertex
 10
3.55346
 20
-0.51054
 30
0.0
  0
VERTEX
  5
38B
100
AcDbEntity
  8
TOPOVERLAY
100
AcDbVertex
100
AcDb2dVertex
 10
3.55346
 20
0.51054
 30
0.0
  0
SEQEND
  5
38C
100
AcDbEntity
  8
0
  0
POLYLINE
  5
38D
100
AcDbEntity
  8
TOPOVERLAY
100
AcDb2dPolyline
 66
     1
 10
0.0
 20
0.0
 30
0.0
 70
     1
 40
0.0762
 41
0.0762
 75
     8
  0
VERTEX
  5
38E
100
AcDbEntity
  8
TOPOVERLAY
100
AcDbVertex
100
AcDb2dVertex
 10
3.51536
 20
-0.51054
 30
0.0
 42
1.0
  0
VERTEX
  5
38F
100
AcDbEntity
  8
TOPOVERLAY
100
AcDbVertex
100
AcDb2dVertex
 10
3.59156
 20
-0.51054
 30
0.0
 42
1.0
  0
SEQEND
  5
390
100
AcDbEntity
  8
0
  0
POLYLINE
  5
391
100
AcDbEntity
  8
TOPOVERLAY
100
AcDb2dPolyline
 66
     1
 10
0.0
 20
0.0
 30
0.0
 70
     1
 40
0.0762
 41
0.0762
 75
     8
  0
VERTEX
  5
392
100
AcDbEntity
  8
TOPOVERLAY
100
AcDbVertex
100
AcDb2dVertex
 10
3.51536
 20
0.51054
 30
0.0
 42
1.0
  0
VERTEX
  5
393
100
AcDbEntity
  8
TOPOVERLAY
100
AcDbVertex
100
AcDb2dVertex
 10
3.59156
 20
0.51054
 30
0.0
 42
1.0
  0
SEQEND
  5
394
100
AcDbEntity
  8
0
  0
POLYLINE
  5
395
100
AcDbEntity
  8
TOPOVERLAY
100
AcDb2dPolyline
 66
     1
 10
0.0
 20
0.0
 30
0.0
 40
0.1524
 41
0.1524
 75
     8
  0
VERTEX
  5
396
100
AcDbEntity
  8
TOPOVERLAY
100
AcDbVertex
100
AcDb2dVertex
 10
-5.07238
 20
0.0
 30
0.0
  0
VERTEX
  5
397
100
AcDbEntity
  8
TOPOVERLAY
100
AcDbVertex
100
AcDb2dVertex
 10
-4.06654
 20
0.0
 30
0.0
  0
SEQEND
  5
398
100
AcDbEntity
  8
0
  0
POLYLINE
  5
399
100
AcDbEntity
  8
TOPOVERLAY
100
AcDb2dPolyline
 66
     1
 10
0.0
 20
0.0
 30
0.0
 70
     1
 40
0.0762
 41
0.0762
 75
     8
  0
VERTEX
  5
39A
100
AcDbEntity
  8
TOPOVERLAY
100
AcDbVertex
100
AcDb2dVertex
 10
-5.11048
 20
0.0
 30
0.0
 42
1.0
  0
VERTEX
  5
39B
100
AcDbEntity
  8
TOPOVERLAY
100
AcDbVertex
100
AcDb2dVertex
 10
-5.03428
 20
0.0
 30
0.0
 42
1.0
  0
SEQEND
  5
39C
100
AcDbEntity
  8
0
  0
POLYLINE
  5
39D
100
AcDbEntity
  8
TOPOVERLAY
100
AcDb2dPolyline
 66
     1
 10
0.0
 20
0.0
 30
0.0
 70
     1
 40
0.0762
 41
0.0762
 75
     8
  0
VERTEX
  5
39E
100
AcDbEntity
  8
TOPOVERLAY
100
AcDbVertex
100
AcDb2dVertex
 10
-4.10464
 20
0.0
 30
0.0
 42
1.0
  0
VERTEX
  5
39F
100
AcDbEntity
  8
TOPOVERLAY
100
AcDbVertex
100
AcDb2dVertex
 10
-4.02844
 20
0.0
 30
0.0
 42
1.0
  0
SEQEND
  5
3A0
100
AcDbEntity
  8
0
  0
POLYLINE
  5
3A1
100
AcDbEntity
  8
TOPOVERLAY
100
AcDb2dPolyline
 66
     1
 10
0.0
 20
0.0
 30
0.0
 40
0.1524
 41
0.1524
 75
     8
  0
VERTEX
  5
3A2
100
AcDbEntity
  8
TOPOVERLAY
100
AcDbVertex
100
AcDb2dVertex
 10
-5.08
 20
0.00762
 30
0.0
  0
VERTEX
  5
3A3
100
AcDbEntity
  8
TOPOVERLAY
100
AcDbVertex
100
AcDb2dVertex
 10
-5.07238
 20
0.0
 30
0.0
  0
SEQEND
  5
3A4
100
AcDbEntity
  8
0
  0
POLYLINE
  5
3A5
100
AcDbEntity
  8
TOPOVERLAY
100
AcDb2dPolyline
 66
     1
 10
0.0
 20
0.0
 30
0.0
 70
     1
 40
0.0762
 41
0.0762
 75
     8
  0
VERTEX
  5
3A6
100
AcDbEntity
  8
TOPOVERLAY
100
AcDbVertex
100
AcDb2dVertex
 10
-5.1181
 20
0.00762
 30
0.0
 42
1.0
  0
VERTEX
  5
3A7
100
AcDbEntity
  8
TOPOVERLAY
100
AcDbVertex
100
AcDb2dVertex
 10
-5.0419
 20
0.00762
 30
0.0
 42
1.0
  0
SEQEND
  5
3A8
100
AcDbEntity
  8
0
  0
POLYLINE
  5
3A9
100
AcDbEntity
  8
TOPOVERLAY
100
AcDb2dPolyline
 66
     1
 10
0.0
 20
0.0
 30
0.0
 70
     1
 40
0.0762
 41
0.0762
 75
     8
  0
VERTEX
  5
3AA
100
AcDbEntity
  8
TOPOVERLAY
100
AcDbVertex
100
AcDb2dVertex
 10
-5.11048
 20
0.0
 30
0.0
 42
1.0
  0
VERTEX
  5
3AB
100
AcDbEntity
  8
TOPOVERLAY
100
AcDbVertex
100
AcDb2dVertex
 10
-5.03428
 20
0.0
 30
0.0
 42
1.0
  0
SEQEND
  5
3AC
100
AcDbEntity
  8
0
  0
POLYLINE
  5
3AD
100
AcDbEntity
  8
TOPOVERLAY
100
AcDb2dPolyline
 66
     1
 10
0.0
 20
0.0
 30
0.0
 70
     1
 40
0.1524
 41
0.1524
 75
     8
  0
VERTEX
  5
3AE
100
AcDbEntity
  8
TOPOVERLAY
100
AcDbVertex
100
AcDb2dVertex
 10
0.0
 20
0.0
 30
0.0
 42
1.0
  0
VERTEX
  5
3AF
100
AcDbEntity
  8
TOPOVERLAY
100
AcDbVertex
100
AcDb2dVertex
 10
-0.274523
 20
0.0
 30
0.0
 42
1.0
  0
SEQEND
  5
3B0
100
AcDbEntity
  8
0
  0
POLYLINE
  5
3B1
100
AcDbEntity
  8
TOPOVERLAY
100
AcDb2dPolyline
 66
     1
 10
0.0
 20
0.0
 30
0.0
 70
     1
 40
0.0762
 41
0.0762
 75
     8
  0
VERTEX
  5
3B2
100
AcDbEntity
  8
TOPOVERLAY
100
AcDbVertex
100
AcDb2dVertex
 10
-0.0381
 20
0.0
 30
0.0
 42
1.0
  0
VERTEX
  5
3B3
100
AcDbEntity
  8
TOPOVERLAY
100
AcDbVertex
100
AcDb2dVertex
 10
0.0381
 20
0.0
 30
0.0
 42
1.0
  0
SEQEND
  5
3B4
100
AcDbEntity
  8
0
  0
POLYLINE
  5
3B5
100
AcDbEntity
  8
TOPOVERLAY
100
AcDb2dPolyline
 66
     1
 10
0.0
 20
0.0
 30
0.0
 70
     1
 40
0.0762
 41
0.0762
 75
     8
  0
VERTEX
  5
3B6
100
AcDbEntity
  8
TOPOVERLAY
100
AcDbVertex
100
AcDb2dVertex
 10
-0.312623
 20
0.0
 30
0.0
 42
1.0
  0
VERTEX
  5
3B7
100
AcDbEntity
  8
TOPOVERLAY
100
AcDbVertex
100
AcDb2dVertex
 10
-0.236423
 20
0.0
 30
0.0
 42
1.0
  0
SEQEND
  5
3B8
100
AcDbEntity
  8
0
  0
POLYLINE
  5
3B9
100
AcDbEntity
  8
TOPOVERLAY
100
AcDb2dPolyline
 66
     1
 10
0.0
 20
0.0
 30
0.0
 40
0.1524
 41
0.1524
 75
     8
  0
VERTEX
  5
3BA
100
AcDbEntity
  8
TOPOVERLAY
100
AcDbVertex
100
AcDb2dVertex
 10
0.736587
 20
-0.62739
 30
0.0
 42
-2.750016
  0
VERTEX
  5
3BB
100
AcDbEntity
  8
TOPOVERLAY
100
AcDbVertex
100
AcDb2dVertex
 10
0.62931
 20
0.748279
 30
0.0
  0
SEQEND
  5
3BC
100
AcDbEntity
  8
0
  0
POLYLINE
  5
3BD
100
AcDbEntity
  8
TOPOVERLAY
100
AcDb2dPolyline
 66
     1
 10
0.0
 20
0.0
 30
0.0
 70
     1
 40
0.0762
 41
0.0762
 75
     8
  0
VERTEX
  5
3BE
100
AcDbEntity
  8
TOPOVERLAY
100
AcDbVertex
100
AcDb2dVertex
 10
0.698487
 20
-0.62739
 30
0.0
 42
1.0
  0
VERTEX
  5
3BF
100
AcDbEntity
  8
TOPOVERLAY
100
AcDbVertex
100
AcDb2dVertex
 10
0.774687
 20
-0.62739
 30
0.0
 42
1.0
  0
SEQEND
  5
3C0
100
AcDbEntity
  8
0
  0
POLYLINE
  5
3C1
100
AcDbEntity
  8
TOPOVERLAY
100
AcDb2dPolyline
 66
     1
 10
0.0
 20
0.0
 30
0.0
 70
     1
 40
0.0762
 41
0.0762
 75
     8
  0
VERTEX
  5
3C2
100
AcDbEntity
  8
TOPOVERLAY
100
AcDbVertex
100
AcDb2dVertex
 10
0.59121
 20
0.748279
 30
0.0
 42
1.0
  0
VERTEX
  5
3C3
100
AcDbEntity
  8
TOPOVERLAY
100
AcDbVertex
100
AcDb2dVertex
 10
0.66741
 20
0.748279
 30
0.0
 42
1.0
  0
SEQEND
  5
3C4
100
AcDbEntity
  8
0
  0
ENDBLK
  5
3C5
100
AcDbEntity
  8
0
100
AcDbBlockEnd
  0
BLOCK
  5
3C8
100
AcDbEntity
  8
0
100
AcDbBlockBegin
  2
3_81_10_2
 70
     0
 10
0.0
 20
0.0
 30
0.0
  3
3_81_10_2
  1

  0
POLYLINE
  5
3C9
100
AcDbEntity
  8
TOPOVERLAY
100
AcDb2dPolyline
 66
     1
 10
0.0
 20
0.0
 30
0.0
 40
0.2032
 41
0.2032
 75
     8
  0
VERTEX
  5
3CA
100
AcDbEntity
  8
TOPOVERLAY
100
AcDbVertex
100
AcDb2dVertex
 10
36.290001
 20
2.000001
 30
0.0
  0
VERTEX
  5
3CB
100
AcDbEntity
  8
TOPOVERLAY
100
AcDbVertex
100
AcDb2dVertex
 10
-2.000001
 20
2.000001
 30
0.0
  0
SEQEND
  5
3CC
100
AcDbEntity
  8
0
  0
POLYLINE
  5
3CD
100
AcDbEntity
  8
TOPOVERLAY
100
AcDb2dPolyline
 66
     1
 10
0.0
 20
0.0
 30
0.0
 70
     1
 40
0.1016
 41
0.1016
 75
     8
  0
VERTEX
  5
3CE
100
AcDbEntity
  8
TOPOVERLAY
100
AcDbVertex
100
AcDb2dVertex
 10
36.239201
 20
2.000001
 30
0.0
 42
1.0
  0
VERTEX
  5
3CF
100
AcDbEntity
  8
TOPOVERLAY
100
AcDbVertex
100
AcDb2dVertex
 10
36.340801
 20
2.000001
 30
0.0
 42
1.0
  0
SEQEND
  5
3D0
100
AcDbEntity
  8
0
  0
POLYLINE
  5
3D1
100
AcDbEntity
  8
TOPOVERLAY
100
AcDb2dPolyline
 66
     1
 10
0.0
 20
0.0
 30
0.0
 70
     1
 40
0.1016
 41
0.1016
 75
     8
  0
VERTEX
  5
3D2
100
AcDbEntity
  8
TOPOVERLAY
100
AcDbVertex
100
AcDb2dVertex
 10
-2.050801
 20
2.000001
 30
0.0
 42
1.0
  0
VERTEX
  5
3D3
100
AcDbEntity
  8
TOPOVERLAY
100
AcDbVertex
100
AcDb2dVertex
 10
-1.949201
 20
2.000001
 30
0.0
 42
1.0
  0
SEQEND
  5
3D4
100
AcDbEntity
  8
0
  0
POLYLINE
  5
3D5
100
AcDbEntity
  8
TOPOVERLAY
100
AcDb2dPolyline
 66
     1
 10
0.0
 20
0.0
 30
0.0
 40
0.2032
 41
0.2032
 75
     8
  0
VERTEX
  5
3D6
100
AcDbEntity
  8
TOPOVERLAY
100
AcDbVertex
100
AcDb2dVertex
 10
36.290001
 20
-7.999999
 30
0.0
  0
VERTEX
  5
3D7
100
AcDbEntity
  8
TOPOVERLAY
100
AcDbVertex
100
AcDb2dVertex
 10
36.290001
 20
2.000001
 30
0.0
  0
SEQEND
  5
3D8
100
AcDbEntity
  8
0
  0
POLYLINE
  5
3D9
100
AcDbEntity
  8
TOPOVERLAY
100
AcDb2dPolyline
 66
     1
 10
0.0
 20
0.0
 30
0.0
 70
     1
 40
0.1016
 41
0.1016
 75
     8
  0
VERTEX
  5
3DA
100
AcDbEntity
  8
TOPOVERLAY
100
AcDbVertex
100
AcDb2dVertex
 10
36.239201
 20
-7.999999
 30
0.0
 42
1.0
  0
VERTEX
  5
3DB
100
AcDbEntity
  8
TOPOVERLAY
100
AcDbVertex
100
AcDb2dVertex
 10
36.340801
 20
-7.999999
 30
0.0
 42
1.0
  0
SEQEND
  5
3DC
100
AcDbEntity
  8
0
  0
POLYLINE
  5
3DD
100
AcDbEntity
  8
TOPOVERLAY
100
AcDb2dPolyline
 66
     1
 10
0.0
 20
0.0
 30
0.0
 70
     1
 40
0.1016
 41
0.1016
 75
     8
  0
VERTEX
  5
3DE
100
AcDbEntity
  8
TOPOVERLAY
100
AcDbVertex
100
AcDb2dVertex
 10
36.239201
 20
2.000001
 30
0.0
 42
1.0
  0
VERTEX
  5
3DF
100
AcDbEntity
  8
TOPOVERLAY
100
AcDbVertex
100
AcDb2dVertex
 10
36.340801
 20
2.000001
 30
0.0
 42
1.0
  0
SEQEND
  5
3E0
100
AcDbEntity
  8
0
  0
POLYLINE
  5
3E1
100
AcDbEntity
  8
TOPOVERLAY
100
AcDb2dPolyline
 66
     1
 10
0.0
 20
0.0
 30
0.0
 40
0.2032
 41
0.2032
 75
     8
  0
VERTEX
  5
3E2
100
AcDbEntity
  8
TOPOVERLAY
100
AcDbVertex
100
AcDb2dVertex
 10
-1.999996
 20
-8.000009
 30
0.0
  0
VERTEX
  5
3E3
100
AcDbEntity
  8
TOPOVERLAY
100
AcDbVertex
100
AcDb2dVertex
 10
-1.999996
 20
1.999996
 30
0.0
  0
SEQEND
  5
3E4
100
AcDbEntity
  8
0
  0
POLYLINE
  5
3E5
100
AcDbEntity
  8
TOPOVERLAY
100
AcDb2dPolyline
 66
     1
 10
0.0
 20
0.0
 30
0.0
 70
     1
 40
0.1016
 41
0.1016
 75
     8
  0
VERTEX
  5
3E6
100
AcDbEntity
  8
TOPOVERLAY
100
AcDbVertex
100
AcDb2dVertex
 10
-2.050796
 20
-8.000009
 30
0.0
 42
1.0
  0
VERTEX
  5
3E7
100
AcDbEntity
  8
TOPOVERLAY
100
AcDbVertex
100
AcDb2dVertex
 10
-1.949196
 20
-8.000009
 30
0.0
 42
1.0
  0
SEQEND
  5
3E8
100
AcDbEntity
  8
0
  0
POLYLINE
  5
3E9
100
AcDbEntity
  8
TOPOVERLAY
100
AcDb2dPolyline
 66
     1
 10
0.0
 20
0.0
 30
0.0
 70
     1
 40
0.1016
 41
0.1016
 75
     8
  0
VERTEX
  5
3EA
100
AcDbEntity
  8
TOPOVERLAY
100
AcDbVertex
100
AcDb2dVertex
 10
-2.050796
 20
1.999996
 30
0.0
 42
1.0
  0
VERTEX
  5
3EB
100
AcDbEntity
  8
TOPOVERLAY
100
AcDbVertex
100
AcDb2dVertex
 10
-1.949196
 20
1.999996
 30
0.0
 42
1.0
  0
SEQEND
  5
3EC
100
AcDbEntity
  8
0
  0
POLYLINE
  5
3ED
100
AcDbEntity
  8
TOPOVERLAY
100
AcDb2dPolyline
 66
     1
 10
0.0
 20
0.0
 30
0.0
 40
0.2032
 41
0.2032
 75
     8
  0
VERTEX
  5
3EE
100
AcDbEntity
  8
TOPOVERLAY
100
AcDbVertex
100
AcDb2dVertex
 10
36.290001
 20
-8.000009
 30
0.0
  0
VERTEX
  5
3EF
100
AcDbEntity
  8
TOPOVERLAY
100
AcDbVertex
100
AcDb2dVertex
 10
-2.000001
 20
-8.000009
 30
0.0
  0
SEQEND
  5
3F0
100
AcDbEntity
  8
0
  0
POLYLINE
  5
3F1
100
AcDbEntity
  8
TOPOVERLAY
100
AcDb2dPolyline
 66
     1
 10
0.0
 20
0.0
 30
0.0
 70
     1
 40
0.1016
 41
0.1016
 75
     8
  0
VERTEX
  5
3F2
100
AcDbEntity
  8
TOPOVERLAY
100
AcDbVertex
100
AcDb2dVertex
 10
36.239201
 20
-8.000009
 30
0.0
 42
1.0
  0
VERTEX
  5
3F3
100
AcDbEntity
  8
TOPOVERLAY
100
AcDbVertex
100
AcDb2dVertex
 10
36.340801
 20
-8.000009
 30
0.0
 42
1.0
  0
SEQEND
  5
3F4
100
AcDbEntity
  8
0
  0
POLYLINE
  5
3F5
100
AcDbEntity
  8
TOPOVERLAY
100
AcDb2dPolyline
 66
     1
 10
0.0
 20
0.0
 30
0.0
 70
     1
 40
0.1016
 41
0.1016
 75
     8
  0
VERTEX
  5
3F6
100
AcDbEntity
  8
TOPOVERLAY
100
AcDbVertex
100
AcDb2dVertex
 10
-2.050801
 20
-8.000009
 30
0.0
 42
1.0
  0
VERTEX
  5
3F7
100
AcDbEntity
  8
TOPOVERLAY
100
AcDbVertex
100
AcDb2dVertex
 10
-1.949201
 20
-8.000009
 30
0.0
 42
1.0
  0
SEQEND
  5
3F8
100
AcDbEntity
  8
0
  0
POLYLINE
  5
3F9
100
AcDbEntity
  8
TOPSOLDER
100
AcDb2dPolyline
 66
     1
 10
0.0
 20
0.0
 30
0.0
 70
     1
 40
1.101598
 41
1.101598
 75
     8
  0
VERTEX
  5
3FA
100
AcDbEntity
  8
TOPSOLDER
100
AcDbVertex
100
AcDb2dVertex
 10
3.259201
 20
0.0
 30
0.0
 42
1.0
  0
VERTEX
  5
3FB
100
AcDbEntity
  8
TOPSOLDER
100
AcDbVertex
100
AcDb2dVertex
 10
4.360799
 20
0.0
 30
0.0
 42
1.0
  0
SEQEND
  5
3FC
100
AcDbEntity
  8
0
  0
POLYLINE
  5
3FD
100
AcDbEntity
  8
BOTTOMSOLDER
100
AcDb2dPolyline
 66
     1
 10
0.0
 20
0.0
 30
0.0
 70
     1
 40
1.101598
 41
1.101598
 75
     8
  0
VERTEX
  5
3FE
100
AcDbEntity
  8
BOTTOMSOLDER
100
AcDbVertex
100
AcDb2dVertex
 10
3.259201
 20
0.0
 30
0.0
 42
1.0
  0
VERTEX
  5
3FF
100
AcDbEntity
  8
BOTTOMSOLDER
100
AcDbVertex
100
AcDb2dVertex
 10
4.360799
 20
0.0
 30
0.0
 42
1.0
  0
SEQEND
  5
400
100
AcDbEntity
  8
0
  0
POLYLINE
  5
401
100
AcDbEntity
  8
MULTILAYER
100
AcDb2dPolyline
 66
     1
 10
0.0
 20
0.0
 30
0.0
 70
     1
 40
0.999998
 41
0.999998
 75
     8
  0
VERTEX
  5
402
100
AcDbEntity
  8
MULTILAYER
100
AcDbVertex
100
AcDb2dVertex
 10
3.310001
 20
0.0
 30
0.0
 42
1.0
  0
VERTEX
  5
403
100
AcDbEntity
  8
MULTILAYER
100
AcDbVertex
100
AcDb2dVertex
 10
4.309999
 20
0.0
 30
0.0
 42
1.0
  0
SEQEND
  5
404
100
AcDbEntity
  8
0
  0
POLYLINE
  5
405
100
AcDbEntity
  8
TOPSOLDER
100
AcDb2dPolyline
 66
     1
 10
0.0
 20
0.0
 30
0.0
 70
     1
 40
1.101601
 41
1.101601
 75
     8
  0
VERTEX
  5
406
100
AcDbEntity
  8
TOPSOLDER
100
AcDbVertex
100
AcDb2dVertex
 10
14.689201
 20
0.0
 30
0.0
 42
1.0
  0
VERTEX
  5
407
100
AcDbEntity
  8
TOPSOLDER
100
AcDbVertex
100
AcDb2dVertex
 10
15.790799
 20
0.0
 30
0.0
 42
1.0
  0
SEQEND
  5
408
100
AcDbEntity
  8
0
  0
POLYLINE
  5
409
100
AcDbEntity
  8
BOTTOMSOLDER
100
AcDb2dPolyline
 66
     1
 10
0.0
 20
0.0
 30
0.0
 70
     1
 40
1.101601
 41
1.101601
 75
     8
  0
VERTEX
  5
40A
100
AcDbEntity
  8
BOTTOMSOLDER
100
AcDbVertex
100
AcDb2dVertex
 10
14.689201
 20
0.0
 30
0.0
 42
1.0
  0
VERTEX
  5
40B
100
AcDbEntity
  8
BOTTOMSOLDER
100
AcDbVertex
100
AcDb2dVertex
 10
15.790799
 20
0.0
 30
0.0
 42
1.0
  0
SEQEND
  5
40C
100
AcDbEntity
  8
0
  0
POLYLINE
  5
40D
100
AcDbEntity
  8
MULTILAYER
100
AcDb2dPolyline
 66
     1
 10
0.0
 20
0.0
 30
0.0
 70
     1
 40
1.000001
 41
1.000001
 75
     8
  0
VERTEX
  5
40E
100
AcDbEntity
  8
MULTILAYER
100
AcDbVertex
100
AcDb2dVertex
 10
14.740001
 20
0.0
 30
0.0
 42
1.0
  0
VERTEX
  5
40F
100
AcDbEntity
  8
MULTILAYER
100
AcDbVertex
100
AcDb2dVertex
 10
15.739999
 20
0.0
 30
0.0
 42
1.0
  0
SEQEND
  5
410
100
AcDbEntity
  8
0
  0
POLYLINE
  5
411
100
AcDbEntity
  8
TOPSOLDER
100
AcDb2dPolyline
 66
     1
 10
0.0
 20
0.0
 30
0.0
 70
     1
 40
1.101598
 41
1.101598
 75
     8
  0
VERTEX
  5
412
100
AcDbEntity
  8
TOPSOLDER
100
AcDbVertex
100
AcDb2dVertex
 10
10.879201
 20
0.0
 30
0.0
 42
1.0
  0
VERTEX
  5
413
100
AcDbEntity
  8
TOPSOLDER
100
AcDbVertex
100
AcDb2dVertex
 10
11.980799
 20
0.0
 30
0.0
 42
1.0
  0
SEQEND
  5
414
100
AcDbEntity
  8
0
  0
POLYLINE
  5
415
100
AcDbEntity
  8
BOTTOMSOLDER
100
AcDb2dPolyline
 66
     1
 10
0.0
 20
0.0
 30
0.0
 70
     1
 40
1.101598
 41
1.101598
 75
     8
  0
VERTEX
  5
416
100
AcDbEntity
  8
BOTTOMSOLDER
100
AcDbVertex
100
AcDb2dVertex
 10
10.879201
 20
0.0
 30
0.0
 42
1.0
  0
VERTEX
  5
417
100
AcDbEntity
  8
BOTTOMSOLDER
100
AcDbVertex
100
AcDb2dVertex
 10
11.980799
 20
0.0
 30
0.0
 42
1.0
  0
SEQEND
  5
418
100
AcDbEntity
  8
0
  0
POLYLINE
  5
419
100
AcDbEntity
  8
MULTILAYER
100
AcDb2dPolyline
 66
     1
 10
0.0
 20
0.0
 30
0.0
 70
     1
 40
0.999998
 41
0.999998
 75
     8
  0
VERTEX
  5
41A
100
AcDbEntity
  8
MULTILAYER
100
AcDbVertex
100
AcDb2dVertex
 10
10.930001
 20
0.0
 30
0.0
 42
1.0
  0
VERTEX
  5
41B
100
AcDbEntity
  8
MULTILAYER
100
AcDbVertex
100
AcDb2dVertex
 10
11.929999
 20
0.0
 30
0.0
 42
1.0
  0
SEQEND
  5
41C
100
AcDbEntity
  8
0
  0
POLYLINE
  5
41D
100
AcDbEntity
  8
TOPSOLDER
100
AcDb2dPolyline
 66
     1
 10
0.0
 20
0.0
 30
0.0
 70
     1
 40
1.101598
 41
1.101598
 75
     8
  0
VERTEX
  5
41E
100
AcDbEntity
  8
TOPSOLDER
100
AcDbVertex
100
AcDb2dVertex
 10
7.069201
 20
0.0
 30
0.0
 42
1.0
  0
VERTEX
  5
41F
100
AcDbEntity
  8
TOPSOLDER
100
AcDbVertex
100
AcDb2dVertex
 10
8.170799
 20
0.0
 30
0.0
 42
1.0
  0
SEQEND
  5
420
100
AcDbEntity
  8
0
  0
POLYLINE
  5
421
100
AcDbEntity
  8
BOTTOMSOLDER
100
AcDb2dPolyline
 66
     1
 10
0.0
 20
0.0
 30
0.0
 70
     1
 40
1.101598
 41
1.101598
 75
     8
  0
VERTEX
  5
422
100
AcDbEntity
  8
BOTTOMSOLDER
100
AcDbVertex
100
AcDb2dVertex
 10
7.069201
 20
0.0
 30
0.0
 42
1.0
  0
VERTEX
  5
423
100
AcDbEntity
  8
BOTTOMSOLDER
100
AcDbVertex
100
AcDb2dVertex
 10
8.170799
 20
0.0
 30
0.0
 42
1.0
  0
SEQEND
  5
424
100
AcDbEntity
  8
0
  0
POLYLINE
  5
425
100
AcDbEntity
  8
MULTILAYER
100
AcDb2dPolyline
 66
     1
 10
0.0
 20
0.0
 30
0.0
 70
     1
 40
0.999998
 41
0.999998
 75
     8
  0
VERTEX
  5
426
100
AcDbEntity
  8
MULTILAYER
100
AcDbVertex
100
AcDb2dVertex
 10
7.120001
 20
0.0
 30
0.0
 42
1.0
  0
VERTEX
  5
427
100
AcDbEntity
  8
MULTILAYER
100
AcDbVertex
100
AcDb2dVertex
 10
8.119999
 20
0.0
 30
0.0
 42
1.0
  0
SEQEND
  5
428
100
AcDbEntity
  8
0
  0
POLYLINE
  5
429
100
AcDbEntity
  8
TOPSOLDER
100
AcDb2dPolyline
 66
     1
 10
0.0
 20
0.0
 30
0.0
 70
     1
 40
1.101598
 41
1.101598
 75
     8
  0
VERTEX
  5
42A
100
AcDbEntity
  8
TOPSOLDER
100
AcDbVertex
100
AcDb2dVertex
 10
-0.550799
 20
0.0
 30
0.0
 42
1.0
  0
VERTEX
  5
42B
100
AcDbEntity
  8
TOPSOLDER
100
AcDbVertex
100
AcDb2dVertex
 10
0.550799
 20
0.0
 30
0.0
 42
1.0
  0
SEQEND
  5
42C
100
AcDbEntity
  8
0
  0
POLYLINE
  5
42D
100
AcDbEntity
  8
BOTTOMSOLDER
100
AcDb2dPolyline
 66
     1
 10
0.0
 20
0.0
 30
0.0
 70
     1
 40
1.101598
 41
1.101598
 75
     8
  0
VERTEX
  5
42E
100
AcDbEntity
  8
BOTTOMSOLDER
100
AcDbVertex
100
AcDb2dVertex
 10
-0.550799
 20
0.0
 30
0.0
 42
1.0
  0
VERTEX
  5
42F
100
AcDbEntity
  8
BOTTOMSOLDER
100
AcDbVertex
100
AcDb2dVertex
 10
0.550799
 20
0.0
 30
0.0
 42
1.0
  0
SEQEND
  5
430
100
AcDbEntity
  8
0
  0
POLYLINE
  5
431
100
AcDbEntity
  8
MULTILAYER
100
AcDb2dPolyline
 66
     1
 10
0.0
 20
0.0
 30
0.0
 70
     1
 40
0.999998
 41
0.999998
 75
     8
  0
VERTEX
  5
432
100
AcDbEntity
  8
MULTILAYER
100
AcDbVertex
100
AcDb2dVertex
 10
-0.499999
 20
0.0
 30
0.0
 42
1.0
  0
VERTEX
  5
433
100
AcDbEntity
  8
MULTILAYER
100
AcDbVertex
100
AcDb2dVertex
 10
0.499999
 20
0.0
 30
0.0
 42
1.0
  0
SEQEND
  5
434
100
AcDbEntity
  8
0
  0
POLYLINE
  5
435
100
AcDbEntity
  8
TOPSOLDER
100
AcDb2dPolyline
 66
     1
 10
0.0
 20
0.0
 30
0.0
 70
     1
 40
1.101598
 41
1.101598
 75
     8
  0
VERTEX
  5
436
100
AcDbEntity
  8
TOPSOLDER
100
AcDbVertex
100
AcDb2dVertex
 10
18.499201
 20
0.0
 30
0.0
 42
1.0
  0
VERTEX
  5
437
100
AcDbEntity
  8
TOPSOLDER
100
AcDbVertex
100
AcDb2dVertex
 10
19.600799
 20
0.0
 30
0.0
 42
1.0
  0
SEQEND
  5
438
100
AcDbEntity
  8
0
  0
POLYLINE
  5
439
100
AcDbEntity
  8
BOTTOMSOLDER
100
AcDb2dPolyline
 66
     1
 10
0.0
 20
0.0
 30
0.0
 70
     1
 40
1.101598
 41
1.101598
 75
     8
  0
VERTEX
  5
43A
100
AcDbEntity
  8
BOTTOMSOLDER
100
AcDbVertex
100
AcDb2dVertex
 10
18.499201
 20
0.0
 30
0.0
 42
1.0
  0
VERTEX
  5
43B
100
AcDbEntity
  8
BOTTOMSOLDER
100
AcDbVertex
100
AcDb2dVertex
 10
19.600799
 20
0.0
 30
0.0
 42
1.0
  0
SEQEND
  5
43C
100
AcDbEntity
  8
0
  0
POLYLINE
  5
43D
100
AcDbEntity
  8
MULTILAYER
100
AcDb2dPolyline
 66
     1
 10
0.0
 20
0.0
 30
0.0
 70
     1
 40
0.999998
 41
0.999998
 75
     8
  0
VERTEX
  5
43E
100
AcDbEntity
  8
MULTILAYER
100
AcDbVertex
100
AcDb2dVertex
 10
18.550001
 20
0.0
 30
0.0
 42
1.0
  0
VERTEX
  5
43F
100
AcDbEntity
  8
MULTILAYER
100
AcDbVertex
100
AcDb2dVertex
 10
19.549999
 20
0.0
 30
0.0
 42
1.0
  0
SEQEND
  5
440
100
AcDbEntity
  8
0
  0
POLYLINE
  5
441
100
AcDbEntity
  8
TOPSOLDER
100
AcDb2dPolyline
 66
     1
 10
0.0
 20
0.0
 30
0.0
 70
     1
 40
1.101598
 41
1.101598
 75
     8
  0
VERTEX
  5
442
100
AcDbEntity
  8
TOPSOLDER
100
AcDbVertex
100
AcDb2dVertex
 10
22.309201
 20
0.0
 30
0.0
 42
1.0
  0
VERTEX
  5
443
100
AcDbEntity
  8
TOPSOLDER
100
AcDbVertex
100
AcDb2dVertex
 10
23.410799
 20
0.0
 30
0.0
 42
1.0
  0
SEQEND
  5
444
100
AcDbEntity
  8
0
  0
POLYLINE
  5
445
100
AcDbEntity
  8
BOTTOMSOLDER
100
AcDb2dPolyline
 66
     1
 10
0.0
 20
0.0
 30
0.0
 70
     1
 40
1.101598
 41
1.101598
 75
     8
  0
VERTEX
  5
446
100
AcDbEntity
  8
BOTTOMSOLDER
100
AcDbVertex
100
AcDb2dVertex
 10
22.309201
 20
0.0
 30
0.0
 42
1.0
  0
VERTEX
  5
447
100
AcDbEntity
  8
BOTTOMSOLDER
100
AcDbVertex
100
AcDb2dVertex
 10
23.410799
 20
0.0
 30
0.0
 42
1.0
  0
SEQEND
  5
448
100
AcDbEntity
  8
0
  0
POLYLINE
  5
449
100
AcDbEntity
  8
MULTILAYER
100
AcDb2dPolyline
 66
     1
 10
0.0
 20
0.0
 30
0.0
 70
     1
 40
0.999998
 41
0.999998
 75
     8
  0
VERTEX
  5
44A
100
AcDbEntity
  8
MULTILAYER
100
AcDbVertex
100
AcDb2dVertex
 10
22.360001
 20
0.0
 30
0.0
 42
1.0
  0
VERTEX
  5
44B
100
AcDbEntity
  8
MULTILAYER
100
AcDbVertex
100
AcDb2dVertex
 10
23.359999
 20
0.0
 30
0.0
 42
1.0
  0
SEQEND
  5
44C
100
AcDbEntity
  8
0
  0
POLYLINE
  5
44D
100
AcDbEntity
  8
TOPSOLDER
100
AcDb2dPolyline
 66
     1
 10
0.0
 20
0.0
 30
0.0
 70
     1
 40
1.101598
 41
1.101598
 75
     8
  0
VERTEX
  5
44E
100
AcDbEntity
  8
TOPSOLDER
100
AcDbVertex
100
AcDb2dVertex
 10
26.119201
 20
0.0
 30
0.0
 42
1.0
  0
VERTEX
  5
44F
100
AcDbEntity
  8
TOPSOLDER
100
AcDbVertex
100
AcDb2dVertex
 10
27.220799
 20
0.0
 30
0.0
 42
1.0
  0
SEQEND
  5
450
100
AcDbEntity
  8
0
  0
POLYLINE
  5
451
100
AcDbEntity
  8
BOTTOMSOLDER
100
AcDb2dPolyline
 66
     1
 10
0.0
 20
0.0
 30
0.0
 70
     1
 40
1.101598
 41
1.101598
 75
     8
  0
VERTEX
  5
452
100
AcDbEntity
  8
BOTTOMSOLDER
100
AcDbVertex
100
AcDb2dVertex
 10
26.119201
 20
0.0
 30
0.0
 42
1.0
  0
VERTEX
  5
453
100
AcDbEntity
  8
BOTTOMSOLDER
100
AcDbVertex
100
AcDb2dVertex
 10
27.220799
 20
0.0
 30
0.0
 42
1.0
  0
SEQEND
  5
454
100
AcDbEntity
  8
0
  0
POLYLINE
  5
455
100
AcDbEntity
  8
MULTILAYER
100
AcDb2dPolyline
 66
     1
 10
0.0
 20
0.0
 30
0.0
 70
     1
 40
0.999998
 41
0.999998
 75
     8
  0
VERTEX
  5
456
100
AcDbEntity
  8
MULTILAYER
100
AcDbVertex
100
AcDb2dVertex
 10
26.170001
 20
0.0
 30
0.0
 42
1.0
  0
VERTEX
  5
457
100
AcDbEntity
  8
MULTILAYER
100
AcDbVertex
100
AcDb2dVertex
 10
27.169999
 20
0.0
 30
0.0
 42
1.0
  0
SEQEND
  5
458
100
AcDbEntity
  8
0
  0
POLYLINE
  5
459
100
AcDbEntity
  8
TOPSOLDER
100
AcDb2dPolyline
 66
     1
 10
0.0
 20
0.0
 30
0.0
 70
     1
 40
1.101598
 41
1.101598
 75
     8
  0
VERTEX
  5
45A
100
AcDbEntity
  8
TOPSOLDER
100
AcDbVertex
100
AcDb2dVertex
 10
29.929201
 20
0.0
 30
0.0
 42
1.0
  0
VERTEX
  5
45B
100
AcDbEntity
  8
TOPSOLDER
100
AcDbVertex
100
AcDb2dVertex
 10
31.030799
 20
0.0
 30
0.0
 42
1.0
  0
SEQEND
  5
45C
100
AcDbEntity
  8
0
  0
POLYLINE
  5
45D
100
AcDbEntity
  8
BOTTOMSOLDER
100
AcDb2dPolyline
 66
     1
 10
0.0
 20
0.0
 30
0.0
 70
     1
 40
1.101598
 41
1.101598
 75
     8
  0
VERTEX
  5
45E
100
AcDbEntity
  8
BOTTOMSOLDER
100
AcDbVertex
100
AcDb2dVertex
 10
29.929201
 20
0.0
 30
0.0
 42
1.0
  0
VERTEX
  5
45F
100
AcDbEntity
  8
BOTTOMSOLDER
100
AcDbVertex
100
AcDb2dVertex
 10
31.030799
 20
0.0
 30
0.0
 42
1.0
  0
SEQEND
  5
460
100
AcDbEntity
  8
0
  0
POLYLINE
  5
461
100
AcDbEntity
  8
MULTILAYER
100
AcDb2dPolyline
 66
     1
 10
0.0
 20
0.0
 30
0.0
 70
     1
 40
0.999998
 41
0.999998
 75
     8
  0
VERTEX
  5
462
100
AcDbEntity
  8
MULTILAYER
100
AcDbVertex
100
AcDb2dVertex
 10
29.980001
 20
0.0
 30
0.0
 42
1.0
  0
VERTEX
  5
463
100
AcDbEntity
  8
MULTILAYER
100
AcDbVertex
100
AcDb2dVertex
 10
30.979999
 20
0.0
 30
0.0
 42
1.0
  0
SEQEND
  5
464
100
AcDbEntity
  8
0
  0
POLYLINE
  5
465
100
AcDbEntity
  8
TOPSOLDER
100
AcDb2dPolyline
 66
     1
 10
0.0
 20
0.0
 30
0.0
 70
     1
 40
1.101601
 41
1.101601
 75
     8
  0
VERTEX
  5
466
100
AcDbEntity
  8
TOPSOLDER
100
AcDbVertex
100
AcDb2dVertex
 10
33.739201
 20
0.0
 30
0.0
 42
1.0
  0
VERTEX
  5
467
100
AcDbEntity
  8
TOPSOLDER
100
AcDbVertex
100
AcDb2dVertex
 10
34.840799
 20
0.0
 30
0.0
 42
1.0
  0
SEQEND
  5
468
100
AcDbEntity
  8
0
  0
POLYLINE
  5
469
100
AcDbEntity
  8
BOTTOMSOLDER
100
AcDb2dPolyline
 66
     1
 10
0.0
 20
0.0
 30
0.0
 70
     1
 40
1.101601
 41
1.101601
 75
     8
  0
VERTEX
  5
46A
100
AcDbEntity
  8
BOTTOMSOLDER
100
AcDbVertex
100
AcDb2dVertex
 10
33.739201
 20
0.0
 30
0.0
 42
1.0
  0
VERTEX
  5
46B
100
AcDbEntity
  8
BOTTOMSOLDER
100
AcDbVertex
100
AcDb2dVertex
 10
34.840799
 20
0.0
 30
0.0
 42
1.0
  0
SEQEND
  5
46C
100
AcDbEntity
  8
0
  0
POLYLINE
  5
46D
100
AcDbEntity
  8
MULTILAYER
100
AcDb2dPolyline
 66
     1
 10
0.0
 20
0.0
 30
0.0
 70
     1
 40
1.000001
 41
1.000001
 75
     8
  0
VERTEX
  5
46E
100
AcDbEntity
  8
MULTILAYER
100
AcDbVertex
100
AcDb2dVertex
 10
33.790001
 20
0.0
 30
0.0
 42
1.0
  0
VERTEX
  5
46F
100
AcDbEntity
  8
MULTILAYER
100
AcDbVertex
100
AcDb2dVertex
 10
34.789999
 20
0.0
 30
0.0
 42
1.0
  0
SEQEND
  5
470
100
AcDbEntity
  8
0
  0
ENDBLK
  5
471
100
AcDbEntity
  8
0
100
AcDbBlockEnd
  0
BLOCK
  5
475
100
AcDbEntity
  8
0
100
AcDbBlockBegin
  2
______3
 70
     0
 10
0.0
 20
0.0
 30
0.0
  3
______3
  1

  0
POLYLINE
  5
476
100
AcDbEntity
  8
TOPOVERLAY
100
AcDb2dPolyline
 66
     1
 10
0.0
 20
0.0
 30
0.0
 40
0.2032
 41
0.2032
 75
     8
  0
VERTEX
  5
477
100
AcDbEntity
  8
TOPOVERLAY
100
AcDbVertex
100
AcDb2dVertex
 10
0.024994
 20
-4.312996
 30
0.0
  0
VERTEX
  5
478
100
AcDbEntity
  8
TOPOVERLAY
100
AcDbVertex
100
AcDb2dVertex
 10
13.495985
 20
-4.312996
 30
0.0
  0
SEQEND
  5
479
100
AcDbEntity
  8
0
  0
POLYLINE
  5
47A
100
AcDbEntity
  8
TOPOVERLAY
100
AcDb2dPolyline
 66
     1
 10
0.0
 20
0.0
 30
0.0
 70
     1
 40
0.1016
 41
0.1016
 75
     8
  0
VERTEX
  5
47B
100
AcDbEntity
  8
TOPOVERLAY
100
AcDbVertex
100
AcDb2dVertex
 10
-0.025806
 20
-4.312996
 30
0.0
 42
1.0
  0
VERTEX
  5
47C
100
AcDbEntity
  8
TOPOVERLAY
100
AcDbVertex
100
AcDb2dVertex
 10
0.075794
 20
-4.312996
 30
0.0
 42
1.0
  0
SEQEND
  5
47D
100
AcDbEntity
  8
0
  0
POLYLINE
  5
47E
100
AcDbEntity
  8
TOPOVERLAY
100
AcDb2dPolyline
 66
     1
 10
0.0
 20
0.0
 30
0.0
 70
     1
 40
0.1016
 41
0.1016
 75
     8
  0
VERTEX
  5
47F
100
AcDbEntity
  8
TOPOVERLAY
100
AcDbVertex
100
AcDb2dVertex
 10
13.445185
 20
-4.312996
 30
0.0
 42
1.0
  0
VERTEX
  5
480
100
AcDbEntity
  8
TOPOVERLAY
100
AcDbVertex
100
AcDb2dVertex
 10
13.546785
 20
-4.312996
 30
0.0
 42
1.0
  0
SEQEND
  5
481
100
AcDbEntity
  8
0
  0
POLYLINE
  5
482
100
AcDbEntity
  8
TOPOVERLAY
100
AcDb2dPolyline
 66
     1
 10
0.0
 20
0.0
 30
0.0
 40
0.2032
 41
0.2032
 75
     8
  0
VERTEX
  5
483
100
AcDbEntity
  8
TOPOVERLAY
100
AcDbVertex
100
AcDb2dVertex
 10
13.495985
 20
-4.312996
 30
0.0
  0
VERTEX
  5
484
100
AcDbEntity
  8
TOPOVERLAY
100
AcDbVertex
100
AcDb2dVertex
 10
13.495985
 20
3.815029
 30
0.0
  0
SEQEND
  5
485
100
AcDbEntity
  8
0
  0
POLYLINE
  5
486
100
AcDbEntity
  8
TOPOVERLAY
100
AcDb2dPolyline
 66
     1
 10
0.0
 20
0.0
 30
0.0
 70
     1
 40
0.1016
 41
0.1016
 75
     8
  0
VERTEX
  5
487
100
AcDbEntity
  8
TOPOVERLAY
100
AcDbVertex
100
AcDb2dVertex
 10
13.445185
 20
-4.312996
 30
0.0
 42
1.0
  0
VERTEX
  5
488
100
AcDbEntity
  8
TOPOVERLAY
100
AcDbVertex
100
AcDb2dVertex
 10
13.546785
 20
-4.312996
 30
0.0
 42
1.0
  0
SEQEND
  5
489
100
AcDbEntity
  8
0
  0
POLYLINE
  5
48A
100
AcDbEntity
  8
TOPOVERLAY
100
AcDb2dPolyline
 66
     1
 10
0.0
 20
0.0
 30
0.0
 70
     1
 40
0.1016
 41
0.1016
 75
     8
  0
VERTEX
  5
48B
100
AcDbEntity
  8
TOPOVERLAY
100
AcDbVertex
100
AcDb2dVertex
 10
13.445185
 20
3.815029
 30
0.0
 42
1.0
  0
VERTEX
  5
48C
100
AcDbEntity
  8
TOPOVERLAY
100
AcDbVertex
100
AcDb2dVertex
 10
13.546785
 20
3.815029
 30
0.0
 42
1.0
  0
SEQEND
  5
48D
100
AcDbEntity
  8
0
  0
POLYLINE
  5
48E
100
AcDbEntity
  8
TOPOVERLAY
100
AcDb2dPolyline
 66
     1
 10
0.0
 20
0.0
 30
0.0
 40
0.2032
 41
0.2032
 75
     8
  0
VERTEX
  5
48F
100
AcDbEntity
  8
TOPOVERLAY
100
AcDbVertex
100
AcDb2dVertex
 10
0.024994
 20
1.812392
 30
0.0
  0
VERTEX
  5
490
100
AcDbEntity
  8
TOPOVERLAY
100
AcDbVertex
100
AcDb2dVertex
 10
0.024994
 20
3.815029
 30
0.0
  0
SEQEND
  5
491
100
AcDbEntity
  8
0
  0
POLYLINE
  5
492
100
AcDbEntity
  8
TOPOVERLAY
100
AcDb2dPolyline
 66
     1
 10
0.0
 20
0.0
 30
0.0
 70
     1
 40
0.1016
 41
0.1016
 75
     8
  0
VERTEX
  5
493
100
AcDbEntity
  8
TOPOVERLAY
100
AcDbVertex
100
AcDb2dVertex
 10
-0.025806
 20
1.812392
 30
0.0
 42
1.0
  0
VERTEX
  5
494
100
AcDbEntity
  8
TOPOVERLAY
100
AcDbVertex
100
AcDb2dVertex
 10
0.075794
 20
1.812392
 30
0.0
 42
1.0
  0
SEQEND
  5
495
100
AcDbEntity
  8
0
  0
POLYLINE
  5
496
100
AcDbEntity
  8
TOPOVERLAY
100
AcDb2dPolyline
 66
     1
 10
0.0
 20
0.0
 30
0.0
 70
     1
 40
0.1016
 41
0.1016
 75
     8
  0
VERTEX
  5
497
100
AcDbEntity
  8
TOPOVERLAY
100
AcDbVertex
100
AcDb2dVertex
 10
-0.025806
 20
3.815029
 30
0.0
 42
1.0
  0
VERTEX
  5
498
100
AcDbEntity
  8
TOPOVERLAY
100
AcDbVertex
100
AcDb2dVertex
 10
0.075794
 20
3.815029
 30
0.0
 42
1.0
  0
SEQEND
  5
499
100
AcDbEntity
  8
0
  0
POLYLINE
  5
49A
100
AcDbEntity
  8
TOPOVERLAY
100
AcDb2dPolyline
 66
     1
 10
0.0
 20
0.0
 30
0.0
 40
0.2032
 41
0.2032
 75
     8
  0
VERTEX
  5
49B
100
AcDbEntity
  8
TOPOVERLAY
100
AcDbVertex
100
AcDb2dVertex
 10
0.024994
 20
-4.312996
 30
0.0
  0
VERTEX
  5
49C
100
AcDbEntity
  8
TOPOVERLAY
100
AcDbVertex
100
AcDb2dVertex
 10
0.024994
 20
-1.845208
 30
0.0
  0
SEQEND
  5
49D
100
AcDbEntity
  8
0
  0
POLYLINE
  5
49E
100
AcDbEntity
  8
TOPOVERLAY
100
AcDb2dPolyline
 66
     1
 10
0.0
 20
0.0
 30
0.0
 70
     1
 40
0.1016
 41
0.1016
 75
     8
  0
VERTEX
  5
49F
100
AcDbEntity
  8
TOPOVERLAY
100
AcDbVertex
100
AcDb2dVertex
 10
-0.025806
 20
-4.312996
 30
0.0
 42
1.0
  0
VERTEX
  5
4A0
100
AcDbEntity
  8
TOPOVERLAY
100
AcDbVertex
100
AcDb2dVertex
 10
0.075794
 20
-4.312996
 30
0.0
 42
1.0
  0
SEQEND
  5
4A1
100
AcDbEntity
  8
0
  0
POLYLINE
  5
4A2
100
AcDbEntity
  8
TOPOVERLAY
100
AcDb2dPolyline
 66
     1
 10
0.0
 20
0.0
 30
0.0
 70
     1
 40
0.1016
 41
0.1016
 75
     8
  0
VERTEX
  5
4A3
100
AcDbEntity
  8
TOPOVERLAY
100
AcDbVertex
100
AcDb2dVertex
 10
-0.025806
 20
-1.845208
 30
0.0
 42
1.0
  0
VERTEX
  5
4A4
100
AcDbEntity
  8
TOPOVERLAY
100
AcDbVertex
100
AcDb2dVertex
 10
0.075794
 20
-1.845208
 30
0.0
 42
1.0
  0
SEQEND
  5
4A5
100
AcDbEntity
  8
0
  0
POLYLINE
  5
4A6
100
AcDbEntity
  8
TOPOVERLAY
100
AcDb2dPolyline
 66
     1
 10
0.0
 20
0.0
 30
0.0
 40
0.2032
 41
0.2032
 75
     8
  0
VERTEX
  5
4A7
100
AcDbEntity
  8
TOPOVERLAY
100
AcDbVertex
100
AcDb2dVertex
 10
0.024991
 20
3.815029
 30
0.0
  0
VERTEX
  5
4A8
100
AcDbEntity
  8
TOPOVERLAY
100
AcDbVertex
100
AcDb2dVertex
 10
1.8288
 20
3.815029
 30
0.0
  0
SEQEND
  5
4A9
100
AcDbEntity
  8
0
  0
POLYLINE
  5
4AA
100
AcDbEntity
  8
TOPOVERLAY
100
AcDb2dPolyline
 66
     1
 10
0.0
 20
0.0
 30
0.0
 70
     1
 40
0.1016
 41
0.1016
 75
     8
  0
VERTEX
  5
4AB
100
AcDbEntity
  8
TOPOVERLAY
100
AcDbVertex
100
AcDb2dVertex
 10
-0.025809
 20
3.815029
 30
0.0
 42
1.0
  0
VERTEX
  5
4AC
100
AcDbEntity
  8
TOPOVERLAY
100
AcDbVertex
100
AcDb2dVertex
 10
0.075791
 20
3.815029
 30
0.0
 42
1.0
  0
SEQEND
  5
4AD
100
AcDbEntity
  8
0
  0
POLYLINE
  5
4AE
100
AcDbEntity
  8
TOPOVERLAY
100
AcDb2dPolyline
 66
     1
 10
0.0
 20
0.0
 30
0.0
 70
     1
 40
0.1016
 41
0.1016
 75
     8
  0
VERTEX
  5
4AF
100
AcDbEntity
  8
TOPOVERLAY
100
AcDbVertex
100
AcDb2dVertex
 10
1.778
 20
3.815029
 30
0.0
 42
1.0
  0
VERTEX
  5
4B0
100
AcDbEntity
  8
TOPOVERLAY
100
AcDbVertex
100
AcDb2dVertex
 10
1.8796
 20
3.815029
 30
0.0
 42
1.0
  0
SEQEND
  5
4B1
100
AcDbEntity
  8
0
  0
POLYLINE
  5
4B2
100
AcDbEntity
  8
TOPOVERLAY
100
AcDb2dPolyline
 66
     1
 10
0.0
 20
0.0
 30
0.0
 40
0.2032
 41
0.2032
 75
     8
  0
VERTEX
  5
4B3
100
AcDbEntity
  8
TOPOVERLAY
100
AcDbVertex
100
AcDb2dVertex
 10
5.08
 20
3.815029
 30
0.0
  0
VERTEX
  5
4B4
100
AcDbEntity
  8
TOPOVERLAY
100
AcDbVertex
100
AcDb2dVertex
 10
13.495985
 20
3.815029
 30
0.0
  0
SEQEND
  5
4B5
100
AcDbEntity
  8
0
  0
POLYLINE
  5
4B6
100
AcDbEntity
  8
TOPOVERLAY
100
AcDb2dPolyline
 66
     1
 10
0.0
 20
0.0
 30
0.0
 70
     1
 40
0.1016
 41
0.1016
 75
     8
  0
VERTEX
  5
4B7
100
AcDbEntity
  8
TOPOVERLAY
100
AcDbVertex
100
AcDb2dVertex
 10
5.0292
 20
3.815029
 30
0.0
 42
1.0
  0
VERTEX
  5
4B8
100
AcDbEntity
  8
TOPOVERLAY
100
AcDbVertex
100
AcDb2dVertex
 10
5.1308
 20
3.815029
 30
0.0
 42
1.0
  0
SEQEND
  5
4B9
100
AcDbEntity
  8
0
  0
POLYLINE
  5
4BA
100
AcDbEntity
  8
TOPOVERLAY
100
AcDb2dPolyline
 66
     1
 10
0.0
 20
0.0
 30
0.0
 70
     1
 40
0.1016
 41
0.1016
 75
     8
  0
VERTEX
  5
4BB
100
AcDbEntity
  8
TOPOVERLAY
100
AcDbVertex
100
AcDb2dVertex
 10
13.445185
 20
3.815029
 30
0.0
 42
1.0
  0
VERTEX
  5
4BC
100
AcDbEntity
  8
TOPOVERLAY
100
AcDbVertex
100
AcDb2dVertex
 10
13.546785
 20
3.815029
 30
0.0
 42
1.0
  0
SEQEND
  5
4BD
100
AcDbEntity
  8
0
  0
POLYLINE
  5
4BE
100
AcDbEntity
  8
TOPSOLDER
100
AcDb2dPolyline
 66
     1
 10
0.0
 20
0.0
 30
0.0
 40
1.4732
 41
1.4732
 75
     8
  0
VERTEX
  5
4BF
100
AcDbEntity
  8
TOPSOLDER
100
AcDbVertex
100
AcDb2dVertex
 10
0.0
 20
1.114996
 30
0.0
  0
VERTEX
  5
4C0
100
AcDbEntity
  8
TOPSOLDER
100
AcDbVertex
100
AcDb2dVertex
 10
0.0
 20
-1.114996
 30
0.0
  0
SEQEND
  5
4C1
100
AcDbEntity
  8
0
  0
POLYLINE
  5
4C2
100
AcDbEntity
  8
TOPSOLDER
100
AcDb2dPolyline
 66
     1
 10
0.0
 20
0.0
 30
0.0
 70
     1
 40
0.7366
 41
0.7366
 75
     8
  0
VERTEX
  5
4C3
100
AcDbEntity
  8
TOPSOLDER
100
AcDbVertex
100
AcDb2dVertex
 10
-0.3683
 20
1.114996
 30
0.0
 42
1.0
  0
VERTEX
  5
4C4
100
AcDbEntity
  8
TOPSOLDER
100
AcDbVertex
100
AcDb2dVertex
 10
0.3683
 20
1.114996
 30
0.0
 42
1.0
  0
SEQEND
  5
4C5
100
AcDbEntity
  8
0
  0
POLYLINE
  5
4C6
100
AcDbEntity
  8
TOPSOLDER
100
AcDb2dPolyline
 66
     1
 10
0.0
 20
0.0
 30
0.0
 70
     1
 40
0.7366
 41
0.7366
 75
     8
  0
VERTEX
  5
4C7
100
AcDbEntity
  8
TOPSOLDER
100
AcDbVertex
100
AcDb2dVertex
 10
-0.3683
 20
-1.114996
 30
0.0
 42
1.0
  0
VERTEX
  5
4C8
100
AcDbEntity
  8
TOPSOLDER
100
AcDbVertex
100
AcDb2dVertex
 10
0.3683
 20
-1.114996
 30
0.0
 42
1.0
  0
SEQEND
  5
4C9
100
AcDbEntity
  8
0
  0
POLYLINE
  5
4CA
100
AcDbEntity
  8
BOTTOMSOLDER
100
AcDb2dPolyline
 66
     1
 10
0.0
 20
0.0
 30
0.0
 40
1.4732
 41
1.4732
 75
     8
  0
VERTEX
  5
4CB
100
AcDbEntity
  8
BOTTOMSOLDER
100
AcDbVertex
100
AcDb2dVertex
 10
0.0
 20
1.114996
 30
0.0
  0
VERTEX
  5
4CC
100
AcDbEntity
  8
BOTTOMSOLDER
100
AcDbVertex
100
AcDb2dVertex
 10
0.0
 20
-1.114996
 30
0.0
  0
SEQEND
  5
4CD
100
AcDbEntity
  8
0
  0
POLYLINE
  5
4CE
100
AcDbEntity
  8
BOTTOMSOLDER
100
AcDb2dPolyline
 66
     1
 10
0.0
 20
0.0
 30
0.0
 70
     1
 40
0.7366
 41
0.7366
 75
     8
  0
VERTEX
  5
4CF
100
AcDbEntity
  8
BOTTOMSOLDER
100
AcDbVertex
100
AcDb2dVertex
 10
-0.3683
 20
1.114996
 30
0.0
 42
1.0
  0
VERTEX
  5
4D0
100
AcDbEntity
  8
BOTTOMSOLDER
100
AcDbVertex
100
AcDb2dVertex
 10
0.3683
 20
1.114996
 30
0.0
 42
1.0
  0
SEQEND
  5
4D1
100
AcDbEntity
  8
0
  0
POLYLINE
  5
4D2
100
AcDbEntity
  8
BOTTOMSOLDER
100
AcDb2dPolyline
 66
     1
 10
0.0
 20
0.0
 30
0.0
 70
     1
 40
0.7366
 41
0.7366
 75
     8
  0
VERTEX
  5
4D3
100
AcDbEntity
  8
BOTTOMSOLDER
100
AcDbVertex
100
AcDb2dVertex
 10
-0.3683
 20
-1.114996
 30
0.0
 42
1.0
  0
VERTEX
  5
4D4
100
AcDbEntity
  8
BOTTOMSOLDER
100
AcDbVertex
100
AcDb2dVertex
 10
0.3683
 20
-1.114996
 30
0.0
 42
1.0
  0
SEQEND
  5
4D5
100
AcDbEntity
  8
0
  0
POLYLINE
  5
4D6
100
AcDbEntity
  8
MULTILAYER
100
AcDb2dPolyline
 66
     1
 10
0.0
 20
0.0
 30
0.0
 40
1.27
 41
1.27
 75
     8
  0
VERTEX
  5
4D7
100
AcDbEntity
  8
MULTILAYER
100
AcDbVertex
100
AcDb2dVertex
 10
0.0
 20
1.114996
 30
0.0
  0
VERTEX
  5
4D8
100
AcDbEntity
  8
MULTILAYER
100
AcDbVertex
100
AcDb2dVertex
 10
0.0
 20
-1.114996
 30
0.0
  0
SEQEND
  5
4D9
100
AcDbEntity
  8
0
  0
POLYLINE
  5
4DA
100
AcDbEntity
  8
MULTILAYER
100
AcDb2dPolyline
 66
     1
 10
0.0
 20
0.0
 30
0.0
 70
     1
 40
0.635
 41
0.635
 75
     8
  0
VERTEX
  5
4DB
100
AcDbEntity
  8
MULTILAYER
100
AcDbVertex
100
AcDb2dVertex
 10
-0.3175
 20
1.114996
 30
0.0
 42
1.0
  0
VERTEX
  5
4DC
100
AcDbEntity
  8
MULTILAYER
100
AcDbVertex
100
AcDb2dVertex
 10
0.3175
 20
1.114996
 30
0.0
 42
1.0
  0
SEQEND
  5
4DD
100
AcDbEntity
  8
0
  0
POLYLINE
  5
4DE
100
AcDbEntity
  8
MULTILAYER
100
AcDb2dPolyline
 66
     1
 10
0.0
 20
0.0
 30
0.0
 70
     1
 40
0.635
 41
0.635
 75
     8
  0
VERTEX
  5
4DF
100
AcDbEntity
  8
MULTILAYER
100
AcDbVertex
100
AcDb2dVertex
 10
-0.3175
 20
-1.114996
 30
0.0
 42
1.0
  0
VERTEX
  5
4E0
100
AcDbEntity
  8
MULTILAYER
100
AcDbVertex
100
AcDb2dVertex
 10
0.3175
 20
-1.114996
 30
0.0
 42
1.0
  0
SEQEND
  5
4E1
100
AcDbEntity
  8
0
  0
POLYLINE
  5
4E2
100
AcDbEntity
  8
TOPSOLDER
100
AcDb2dPolyline
 66
     1
 10
0.0
 20
0.0
 30
0.0
 40
1.4732
 41
1.4732
 75
     8
  0
VERTEX
  5
4E3
100
AcDbEntity
  8
TOPSOLDER
100
AcDbVertex
100
AcDb2dVertex
 10
6.120994
 20
1.090028
 30
0.0
  0
VERTEX
  5
4E4
100
AcDbEntity
  8
TOPSOLDER
100
AcDbVertex
100
AcDb2dVertex
 10
6.120994
 20
-1.139965
 30
0.0
  0
SEQEND
  5
4E5
100
AcDbEntity
  8
0
  0
POLYLINE
  5
4E6
100
AcDbEntity
  8
TOPSOLDER
100
AcDb2dPolyline
 66
     1
 10
0.0
 20
0.0
 30
0.0
 70
     1
 40
0.7366
 41
0.7366
 75
     8
  0
VERTEX
  5
4E7
100
AcDbEntity
  8
TOPSOLDER
100
AcDbVertex
100
AcDb2dVertex
 10
5.752694
 20
1.090028
 30
0.0
 42
1.0
  0
VERTEX
  5
4E8
100
AcDbEntity
  8
TOPSOLDER
100
AcDbVertex
100
AcDb2dVertex
 10
6.489294
 20
1.090028
 30
0.0
 42
1.0
  0
SEQEND
  5
4E9
100
AcDbEntity
  8
0
  0
POLYLINE
  5
4EA
100
AcDbEntity
  8
TOPSOLDER
100
AcDb2dPolyline
 66
     1
 10
0.0
 20
0.0
 30
0.0
 70
     1
 40
0.7366
 41
0.7366
 75
     8
  0
VERTEX
  5
4EB
100
AcDbEntity
  8
TOPSOLDER
100
AcDbVertex
100
AcDb2dVertex
 10
5.752694
 20
-1.139965
 30
0.0
 42
1.0
  0
VERTEX
  5
4EC
100
AcDbEntity
  8
TOPSOLDER
100
AcDbVertex
100
AcDb2dVertex
 10
6.489294
 20
-1.139965
 30
0.0
 42
1.0
  0
SEQEND
  5
4ED
100
AcDbEntity
  8
0
  0
POLYLINE
  5
4EE
100
AcDbEntity
  8
BOTTOMSOLDER
100
AcDb2dPolyline
 66
     1
 10
0.0
 20
0.0
 30
0.0
 40
1.4732
 41
1.4732
 75
     8
  0
VERTEX
  5
4EF
100
AcDbEntity
  8
BOTTOMSOLDER
100
AcDbVertex
100
AcDb2dVertex
 10
6.120994
 20
1.090028
 30
0.0
  0
VERTEX
  5
4F0
100
AcDbEntity
  8
BOTTOMSOLDER
100
AcDbVertex
100
AcDb2dVertex
 10
6.120994
 20
-1.139965
 30
0.0
  0
SEQEND
  5
4F1
100
AcDbEntity
  8
0
  0
POLYLINE
  5
4F2
100
AcDbEntity
  8
BOTTOMSOLDER
100
AcDb2dPolyline
 66
     1
 10
0.0
 20
0.0
 30
0.0
 70
     1
 40
0.7366
 41
0.7366
 75
     8
  0
VERTEX
  5
4F3
100
AcDbEntity
  8
BOTTOMSOLDER
100
AcDbVertex
100
AcDb2dVertex
 10
5.752694
 20
1.090028
 30
0.0
 42
1.0
  0
VERTEX
  5
4F4
100
AcDbEntity
  8
BOTTOMSOLDER
100
AcDbVertex
100
AcDb2dVertex
 10
6.489294
 20
1.090028
 30
0.0
 42
1.0
  0
SEQEND
  5
4F5
100
AcDbEntity
  8
0
  0
POLYLINE
  5
4F6
100
AcDbEntity
  8
BOTTOMSOLDER
100
AcDb2dPolyline
 66
     1
 10
0.0
 20
0.0
 30
0.0
 70
     1
 40
0.7366
 41
0.7366
 75
     8
  0
VERTEX
  5
4F7
100
AcDbEntity
  8
BOTTOMSOLDER
100
AcDbVertex
100
AcDb2dVertex
 10
5.752694
 20
-1.139965
 30
0.0
 42
1.0
  0
VERTEX
  5
4F8
100
AcDbEntity
  8
BOTTOMSOLDER
100
AcDbVertex
100
AcDb2dVertex
 10
6.489294
 20
-1.139965
 30
0.0
 42
1.0
  0
SEQEND
  5
4F9
100
AcDbEntity
  8
0
  0
POLYLINE
  5
4FA
100
AcDbEntity
  8
MULTILAYER
100
AcDb2dPolyline
 66
     1
 10
0.0
 20
0.0
 30
0.0
 40
1.27
 41
1.27
 75
     8
  0
VERTEX
  5
4FB
100
AcDbEntity
  8
MULTILAYER
100
AcDbVertex
100
AcDb2dVertex
 10
6.120994
 20
1.090028
 30
0.0
  0
VERTEX
  5
4FC
100
AcDbEntity
  8
MULTILAYER
100
AcDbVertex
100
AcDb2dVertex
 10
6.120994
 20
-1.139965
 30
0.0
  0
SEQEND
  5
4FD
100
AcDbEntity
  8
0
  0
POLYLINE
  5
4FE
100
AcDbEntity
  8
MULTILAYER
100
AcDb2dPolyline
 66
     1
 10
0.0
 20
0.0
 30
0.0
 70
     1
 40
0.635
 41
0.635
 75
     8
  0
VERTEX
  5
4FF
100
AcDbEntity
  8
MULTILAYER
100
AcDbVertex
100
AcDb2dVertex
 10
5.803494
 20
1.090028
 30
0.0
 42
1.0
  0
VERTEX
  5
500
100
AcDbEntity
  8
MULTILAYER
100
AcDbVertex
100
AcDb2dVertex
 10
6.438494
 20
1.090028
 30
0.0
 42
1.0
  0
SEQEND
  5
501
100
AcDbEntity
  8
0
  0
POLYLINE
  5
502
100
AcDbEntity
  8
MULTILAYER
100
AcDb2dPolyline
 66
     1
 10
0.0
 20
0.0
 30
0.0
 70
     1
 40
0.635
 41
0.635
 75
     8
  0
VERTEX
  5
503
100
AcDbEntity
  8
MULTILAYER
100
AcDbVertex
100
AcDb2dVertex
 10
5.803494
 20
-1.139965
 30
0.0
 42
1.0
  0
VERTEX
  5
504
100
AcDbEntity
  8
MULTILAYER
100
AcDbVertex
100
AcDb2dVertex
 10
6.438494
 20
-1.139965
 30
0.0
 42
1.0
  0
SEQEND
  5
505
100
AcDbEntity
  8
0
  0
POLYLINE
  5
506
100
AcDbEntity
  8
TOPSOLDER
100
AcDb2dPolyline
 66
     1
 10
0.0
 20
0.0
 30
0.0
 40
1.4732
 41
1.4732
 75
     8
  0
VERTEX
  5
507
100
AcDbEntity
  8
TOPSOLDER
100
AcDbVertex
100
AcDb2dVertex
 10
2.339988
 20
4.339996
 30
0.0
  0
VERTEX
  5
508
100
AcDbEntity
  8
TOPSOLDER
100
AcDbVertex
100
AcDb2dVertex
 10
4.569981
 20
4.339996
 30
0.0
  0
SEQEND
  5
509
100
AcDbEntity
  8
0
  0
POLYLINE
  5
50A
100
AcDbEntity
  8
TOPSOLDER
100
AcDb2dPolyline
 66
     1
 10
0.0
 20
0.0
 30
0.0
 70
     1
 40
0.7366
 41
0.7366
 75
     8
  0
VERTEX
  5
50B
100
AcDbEntity
  8
TOPSOLDER
100
AcDbVertex
100
AcDb2dVertex
 10
1.971688
 20
4.339996
 30
0.0
 42
1.0
  0
VERTEX
  5
50C
100
AcDbEntity
  8
TOPSOLDER
100
AcDbVertex
100
AcDb2dVertex
 10
2.708288
 20
4.339996
 30
0.0
 42
1.0
  0
SEQEND
  5
50D
100
AcDbEntity
  8
0
  0
POLYLINE
  5
50E
100
AcDbEntity
  8
TOPSOLDER
100
AcDb2dPolyline
 66
     1
 10
0.0
 20
0.0
 30
0.0
 70
     1
 40
0.7366
 41
0.7366
 75
     8
  0
VERTEX
  5
50F
100
AcDbEntity
  8
TOPSOLDER
100
AcDbVertex
100
AcDb2dVertex
 10
4.201681
 20
4.339996
 30
0.0
 42
1.0
  0
VERTEX
  5
510
100
AcDbEntity
  8
TOPSOLDER
100
AcDbVertex
100
AcDb2dVertex
 10
4.938281
 20
4.339996
 30
0.0
 42
1.0
  0
SEQEND
  5
511
100
AcDbEntity
  8
0
  0
POLYLINE
  5
512
100
AcDbEntity
  8
BOTTOMSOLDER
100
AcDb2dPolyline
 66
     1
 10
0.0
 20
0.0
 30
0.0
 40
1.4732
 41
1.4732
 75
     8
  0
VERTEX
  5
513
100
AcDbEntity
  8
BOTTOMSOLDER
100
AcDbVertex
100
AcDb2dVertex
 10
2.339988
 20
4.339996
 30
0.0
  0
VERTEX
  5
514
100
AcDbEntity
  8
BOTTOMSOLDER
100
AcDbVertex
100
AcDb2dVertex
 10
4.569981
 20
4.339996
 30
0.0
  0
SEQEND
  5
515
100
AcDbEntity
  8
0
  0
POLYLINE
  5
516
100
AcDbEntity
  8
BOTTOMSOLDER
100
AcDb2dPolyline
 66
     1
 10
0.0
 20
0.0
 30
0.0
 70
     1
 40
0.7366
 41
0.7366
 75
     8
  0
VERTEX
  5
517
100
AcDbEntity
  8
BOTTOMSOLDER
100
AcDbVertex
100
AcDb2dVertex
 10
1.971688
 20
4.339996
 30
0.0
 42
1.0
  0
VERTEX
  5
518
100
AcDbEntity
  8
BOTTOMSOLDER
100
AcDbVertex
100
AcDb2dVertex
 10
2.708288
 20
4.339996
 30
0.0
 42
1.0
  0
SEQEND
  5
519
100
AcDbEntity
  8
0
  0
POLYLINE
  5
51A
100
AcDbEntity
  8
BOTTOMSOLDER
100
AcDb2dPolyline
 66
     1
 10
0.0
 20
0.0
 30
0.0
 70
     1
 40
0.7366
 41
0.7366
 75
     8
  0
VERTEX
  5
51B
100
AcDbEntity
  8
BOTTOMSOLDER
100
AcDbVertex
100
AcDb2dVertex
 10
4.201681
 20
4.339996
 30
0.0
 42
1.0
  0
VERTEX
  5
51C
100
AcDbEntity
  8
BOTTOMSOLDER
100
AcDbVertex
100
AcDb2dVertex
 10
4.938281
 20
4.339996
 30
0.0
 42
1.0
  0
SEQEND
  5
51D
100
AcDbEntity
  8
0
  0
POLYLINE
  5
51E
100
AcDbEntity
  8
MULTILAYER
100
AcDb2dPolyline
 66
     1
 10
0.0
 20
0.0
 30
0.0
 40
1.27
 41
1.27
 75
     8
  0
VERTEX
  5
51F
100
AcDbEntity
  8
MULTILAYER
100
AcDbVertex
100
AcDb2dVertex
 10
2.339988
 20
4.339996
 30
0.0
  0
VERTEX
  5
520
100
AcDbEntity
  8
MULTILAYER
100
AcDbVertex
100
AcDb2dVertex
 10
4.569981
 20
4.339996
 30
0.0
  0
SEQEND
  5
521
100
AcDbEntity
  8
0
  0
POLYLINE
  5
522
100
AcDbEntity
  8
MULTILAYER
100
AcDb2dPolyline
 66
     1
 10
0.0
 20
0.0
 30
0.0
 70
     1
 40
0.635
 41
0.635
 75
     8
  0
VERTEX
  5
523
100
AcDbEntity
  8
MULTILAYER
100
AcDbVertex
100
AcDb2dVertex
 10
2.022488
 20
4.339996
 30
0.0
 42
1.0
  0
VERTEX
  5
524
100
AcDbEntity
  8
MULTILAYER
100
AcDbVertex
100
AcDb2dVertex
 10
2.657488
 20
4.339996
 30
0.0
 42
1.0
  0
SEQEND
  5
525
100
AcDbEntity
  8
0
  0
POLYLINE
  5
526
100
AcDbEntity
  8
MULTILAYER
100
AcDb2dPolyline
 66
     1
 10
0.0
 20
0.0
 30
0.0
 70
     1
 40
0.635
 41
0.635
 75
     8
  0
VERTEX
  5
527
100
AcDbEntity
  8
MULTILAYER
100
AcDbVertex
100
AcDb2dVertex
 10
4.252481
 20
4.339996
 30
0.0
 42
1.0
  0
VERTEX
  5
528
100
AcDbEntity
  8
MULTILAYER
100
AcDbVertex
100
AcDb2dVertex
 10
4.887481
 20
4.339996
 30
0.0
 42
1.0
  0
SEQEND
  5
529
100
AcDbEntity
  8
0
  0
ENDBLK
  5
52A
100
AcDbEntity
  8
0
100
AcDbBlockEnd
  0
BLOCK
  5
52D
100
AcDbEntity
  8
0
100
AcDbBlockBegin
  2
LED3_4
 70
     0
 10
0.0
 20
0.0
 30
0.0
  3
LED3_4
  1

  0
POLYLINE
  5
52E
100
AcDbEntity
  8
TOPOVERLAY
100
AcDb2dPolyline
 66
     1
 10
0.0
 20
0.0
 30
0.0
 40
0.2032
 41
0.2032
 75
     8
  0
VERTEX
  5
52F
100
AcDbEntity
  8
TOPOVERLAY
100
AcDbVertex
100
AcDb2dVertex
 10
2.921
 20
-1.143
 30
0.0
  0
VERTEX
  5
530
100
AcDbEntity
  8
TOPOVERLAY
100
AcDbVertex
100
AcDb2dVertex
 10
2.921
 20
-0.762
 30
0.0
  0
SEQEND
  5
531
100
AcDbEntity
  8
0
  0
POLYLINE
  5
532
100
AcDbEntity
  8
TOPOVERLAY
100
AcDb2dPolyline
 66
     1
 10
0.0
 20
0.0
 30
0.0
 70
     1
 40
0.1016
 41
0.1016
 75
     8
  0
VERTEX
  5
533
100
AcDbEntity
  8
TOPOVERLAY
100
AcDbVertex
100
AcDb2dVertex
 10
2.8702
 20
-1.143
 30
0.0
 42
1.0
  0
VERTEX
  5
534
100
AcDbEntity
  8
TOPOVERLAY
100
AcDbVertex
100
AcDb2dVertex
 10
2.9718
 20
-1.143
 30
0.0
 42
1.0
  0
SEQEND
  5
535
100
AcDbEntity
  8
0
  0
POLYLINE
  5
536
100
AcDbEntity
  8
TOPOVERLAY
100
AcDb2dPolyline
 66
     1
 10
0.0
 20
0.0
 30
0.0
 70
     1
 40
0.1016
 41
0.1016
 75
     8
  0
VERTEX
  5
537
100
AcDbEntity
  8
TOPOVERLAY
100
AcDbVertex
100
AcDb2dVertex
 10
2.8702
 20
-0.762
 30
0.0
 42
1.0
  0
VERTEX
  5
538
100
AcDbEntity
  8
TOPOVERLAY
100
AcDbVertex
100
AcDb2dVertex
 10
2.9718
 20
-0.762
 30
0.0
 42
1.0
  0
SEQEND
  5
539
100
AcDbEntity
  8
0
  0
POLYLINE
  5
53A
100
AcDbEntity
  8
TOPOVERLAY
100
AcDb2dPolyline
 66
     1
 10
0.0
 20
0.0
 30
0.0
 40
0.2032
 41
0.2032
 75
     8
  0
VERTEX
  5
53B
100
AcDbEntity
  8
TOPOVERLAY
100
AcDbVertex
100
AcDb2dVertex
 10
2.921
 20
0.762
 30
0.0
  0
VERTEX
  5
53C
100
AcDbEntity
  8
TOPOVERLAY
100
AcDbVertex
100
AcDb2dVertex
 10
2.921
 20
1.143
 30
0.0
  0
SEQEND
  5
53D
100
AcDbEntity
  8
0
  0
POLYLINE
  5
53E
100
AcDbEntity
  8
TOPOVERLAY
100
AcDb2dPolyline
 66
     1
 10
0.0
 20
0.0
 30
0.0
 70
     1
 40
0.1016
 41
0.1016
 75
     8
  0
VERTEX
  5
53F
100
AcDbEntity
  8
TOPOVERLAY
100
AcDbVertex
100
AcDb2dVertex
 10
2.8702
 20
0.762
 30
0.0
 42
1.0
  0
VERTEX
  5
540
100
AcDbEntity
  8
TOPOVERLAY
100
AcDbVertex
100
AcDb2dVertex
 10
2.9718
 20
0.762
 30
0.0
 42
1.0
  0
SEQEND
  5
541
100
AcDbEntity
  8
0
  0
POLYLINE
  5
542
100
AcDbEntity
  8
TOPOVERLAY
100
AcDb2dPolyline
 66
     1
 10
0.0
 20
0.0
 30
0.0
 70
     1
 40
0.1016
 41
0.1016
 75
     8
  0
VERTEX
  5
543
100
AcDbEntity
  8
TOPOVERLAY
100
AcDbVertex
100
AcDb2dVertex
 10
2.8702
 20
1.143
 30
0.0
 42
1.0
  0
VERTEX
  5
544
100
AcDbEntity
  8
TOPOVERLAY
100
AcDbVertex
100
AcDb2dVertex
 10
2.9718
 20
1.143
 30
0.0
 42
1.0
  0
SEQEND
  5
545
100
AcDbEntity
  8
0
  0
POLYLINE
  5
546
100
AcDbEntity
  8
TOPOVERLAY
100
AcDb2dPolyline
 66
     1
 10
0.0
 20
0.0
 30
0.0
 40
0.2032
 41
0.2032
 75
     8
  0
VERTEX
  5
547
100
AcDbEntity
  8
TOPOVERLAY
100
AcDbVertex
100
AcDb2dVertex
 10
2.920987
 20
-1.14299
 30
0.0
 42
-0.618035
  0
VERTEX
  5
548
100
AcDbEntity
  8
TOPOVERLAY
100
AcDbVertex
100
AcDb2dVertex
 10
-0.677433
 20
-0.628937
 30
0.0
  0
SEQEND
  5
549
100
AcDbEntity
  8
0
  0
POLYLINE
  5
54A
100
AcDbEntity
  8
TOPOVERLAY
100
AcDb2dPolyline
 66
     1
 10
0.0
 20
0.0
 30
0.0
 70
     1
 40
0.1016
 41
0.1016
 75
     8
  0
VERTEX
  5
54B
100
AcDbEntity
  8
TOPOVERLAY
100
AcDbVertex
100
AcDb2dVertex
 10
2.870187
 20
-1.14299
 30
0.0
 42
1.0
  0
VERTEX
  5
54C
100
AcDbEntity
  8
TOPOVERLAY
100
AcDbVertex
100
AcDb2dVertex
 10
2.971787
 20
-1.14299
 30
0.0
 42
1.0
  0
SEQEND
  5
54D
100
AcDbEntity
  8
0
  0
POLYLINE
  5
54E
100
AcDbEntity
  8
TOPOVERLAY
100
AcDb2dPolyline
 66
     1
 10
0.0
 20
0.0
 30
0.0
 70
     1
 40
0.1016
 41
0.1016
 75
     8
  0
VERTEX
  5
54F
100
AcDbEntity
  8
TOPOVERLAY
100
AcDbVertex
100
AcDb2dVertex
 10
-0.728233
 20
-0.628937
 30
0.0
 42
1.0
  0
VERTEX
  5
550
100
AcDbEntity
  8
TOPOVERLAY
100
AcDbVertex
100
AcDb2dVertex
 10
-0.626633
 20
-0.628937
 30
0.0
 42
1.0
  0
SEQEND
  5
551
100
AcDbEntity
  8
0
  0
POLYLINE
  5
552
100
AcDbEntity
  8
TOPOVERLAY
100
AcDb2dPolyline
 66
     1
 10
0.0
 20
0.0
 30
0.0
 40
0.2032
 41
0.2032
 75
     8
  0
VERTEX
  5
553
100
AcDbEntity
  8
TOPOVERLAY
100
AcDbVertex
100
AcDb2dVertex
 10
-0.677433
 20
0.628937
 30
0.0
 42
-0.618035
  0
VERTEX
  5
554
100
AcDbEntity
  8
TOPOVERLAY
100
AcDbVertex
100
AcDb2dVertex
 10
2.920987
 20
1.14299
 30
0.0
  0
SEQEND
  5
555
100
AcDbEntity
  8
0
  0
POLYLINE
  5
556
100
AcDbEntity
  8
TOPOVERLAY
100
AcDb2dPolyline
 66
     1
 10
0.0
 20
0.0
 30
0.0
 70
     1
 40
0.1016
 41
0.1016
 75
     8
  0
VERTEX
  5
557
100
AcDbEntity
  8
TOPOVERLAY
100
AcDbVertex
100
AcDb2dVertex
 10
-0.728233
 20
0.628937
 30
0.0
 42
1.0
  0
VERTEX
  5
558
100
AcDbEntity
  8
TOPOVERLAY
100
AcDbVertex
100
AcDb2dVertex
 10
-0.626633
 20
0.628937
 30
0.0
 42
1.0
  0
SEQEND
  5
559
100
AcDbEntity
  8
0
  0
POLYLINE
  5
55A
100
AcDbEntity
  8
TOPOVERLAY
100
AcDb2dPolyline
 66
     1
 10
0.0
 20
0.0
 30
0.0
 70
     1
 40
0.1016
 41
0.1016
 75
     8
  0
VERTEX
  5
55B
100
AcDbEntity
  8
TOPOVERLAY
100
AcDbVertex
100
AcDb2dVertex
 10
2.870187
 20
1.14299
 30
0.0
 42
1.0
  0
VERTEX
  5
55C
100
AcDbEntity
  8
TOPOVERLAY
100
AcDbVertex
100
AcDb2dVertex
 10
2.971787
 20
1.14299
 30
0.0
 42
1.0
  0
SEQEND
  5
55D
100
AcDbEntity
  8
0
  0
POLYLINE
  5
55E
100
AcDbEntity
  8
TOPSOLDER
100
AcDb2dPolyline
 66
     1
 10
0.0
 20
0.0
 30
0.0
 40
1.4732
 41
1.4732
 75
     8
  0
VERTEX
  5
55F
100
AcDbEntity
  8
TOPSOLDER
100
AcDbVertex
100
AcDb2dVertex
 10
2.54
 20
0.114998
 30
0.0
  0
VERTEX
  5
560
100
AcDbEntity
  8
TOPSOLDER
100
AcDbVertex
100
AcDb2dVertex
 10
2.54
 20
-0.114998
 30
0.0
  0
SEQEND
  5
561
100
AcDbEntity
  8
0
  0
POLYLINE
  5
562
100
AcDbEntity
  8
TOPSOLDER
100
AcDb2dPolyline
 66
     1
 10
0.0
 20
0.0
 30
0.0
 70
     1
 40
0.7366
 41
0.7366
 75
     8
  0
VERTEX
  5
563
100
AcDbEntity
  8
TOPSOLDER
100
AcDbVertex
100
AcDb2dVertex
 10
2.1717
 20
0.114998
 30
0.0
 42
1.0
  0
VERTEX
  5
564
100
AcDbEntity
  8
TOPSOLDER
100
AcDbVertex
100
AcDb2dVertex
 10
2.9083
 20
0.114998
 30
0.0
 42
1.0
  0
SEQEND
  5
565
100
AcDbEntity
  8
0
  0
POLYLINE
  5
566
100
AcDbEntity
  8
TOPSOLDER
100
AcDb2dPolyline
 66
     1
 10
0.0
 20
0.0
 30
0.0
 70
     1
 40
0.7366
 41
0.7366
 75
     8
  0
VERTEX
  5
567
100
AcDbEntity
  8
TOPSOLDER
100
AcDbVertex
100
AcDb2dVertex
 10
2.1717
 20
-0.114998
 30
0.0
 42
1.0
  0
VERTEX
  5
568
100
AcDbEntity
  8
TOPSOLDER
100
AcDbVertex
100
AcDb2dVertex
 10
2.9083
 20
-0.114998
 30
0.0
 42
1.0
  0
SEQEND
  5
569
100
AcDbEntity
  8
0
  0
POLYLINE
  5
56A
100
AcDbEntity
  8
BOTTOMSOLDER
100
AcDb2dPolyline
 66
     1
 10
0.0
 20
0.0
 30
0.0
 40
1.4732
 41
1.4732
 75
     8
  0
VERTEX
  5
56B
100
AcDbEntity
  8
BOTTOMSOLDER
100
AcDbVertex
100
AcDb2dVertex
 10
2.54
 20
0.114998
 30
0.0
  0
VERTEX
  5
56C
100
AcDbEntity
  8
BOTTOMSOLDER
100
AcDbVertex
100
AcDb2dVertex
 10
2.54
 20
-0.114998
 30
0.0
  0
SEQEND
  5
56D
100
AcDbEntity
  8
0
  0
POLYLINE
  5
56E
100
AcDbEntity
  8
BOTTOMSOLDER
100
AcDb2dPolyline
 66
     1
 10
0.0
 20
0.0
 30
0.0
 70
     1
 40
0.7366
 41
0.7366
 75
     8
  0
VERTEX
  5
56F
100
AcDbEntity
  8
BOTTOMSOLDER
100
AcDbVertex
100
AcDb2dVertex
 10
2.1717
 20
0.114998
 30
0.0
 42
1.0
  0
VERTEX
  5
570
100
AcDbEntity
  8
BOTTOMSOLDER
100
AcDbVertex
100
AcDb2dVertex
 10
2.9083
 20
0.114998
 30
0.0
 42
1.0
  0
SEQEND
  5
571
100
AcDbEntity
  8
0
  0
POLYLINE
  5
572
100
AcDbEntity
  8
BOTTOMSOLDER
100
AcDb2dPolyline
 66
     1
 10
0.0
 20
0.0
 30
0.0
 70
     1
 40
0.7366
 41
0.7366
 75
     8
  0
VERTEX
  5
573
100
AcDbEntity
  8
BOTTOMSOLDER
100
AcDbVertex
100
AcDb2dVertex
 10
2.1717
 20
-0.114998
 30
0.0
 42
1.0
  0
VERTEX
  5
574
100
AcDbEntity
  8
BOTTOMSOLDER
100
AcDbVertex
100
AcDb2dVertex
 10
2.9083
 20
-0.114998
 30
0.0
 42
1.0
  0
SEQEND
  5
575
100
AcDbEntity
  8
0
  0
POLYLINE
  5
576
100
AcDbEntity
  8
MULTILAYER
100
AcDb2dPolyline
 66
     1
 10
0.0
 20
0.0
 30
0.0
 40
1.27
 41
1.27
 75
     8
  0
VERTEX
  5
577
100
AcDbEntity
  8
MULTILAYER
100
AcDbVertex
100
AcDb2dVertex
 10
2.54
 20
0.114998
 30
0.0
  0
VERTEX
  5
578
100
AcDbEntity
  8
MULTILAYER
100
AcDbVertex
100
AcDb2dVertex
 10
2.54
 20
-0.114998
 30
0.0
  0
SEQEND
  5
579
100
AcDbEntity
  8
0
  0
POLYLINE
  5
57A
100
AcDbEntity
  8
MULTILAYER
100
AcDb2dPolyline
 66
     1
 10
0.0
 20
0.0
 30
0.0
 70
     1
 40
0.635
 41
0.635
 75
     8
  0
VERTEX
  5
57B
100
AcDbEntity
  8
MULTILAYER
100
AcDbVertex
100
AcDb2dVertex
 10
2.2225
 20
0.114998
 30
0.0
 42
1.0
  0
VERTEX
  5
57C
100
AcDbEntity
  8
MULTILAYER
100
AcDbVertex
100
AcDb2dVertex
 10
2.8575
 20
0.114998
 30
0.0
 42
1.0
  0
SEQEND
  5
57D
100
AcDbEntity
  8
0
  0
POLYLINE
  5
57E
100
AcDbEntity
  8
MULTILAYER
100
AcDb2dPolyline
 66
     1
 10
0.0
 20
0.0
 30
0.0
 70
     1
 40
0.635
 41
0.635
 75
     8
  0
VERTEX
  5
57F
100
AcDbEntity
  8
MULTILAYER
100
AcDbVertex
100
AcDb2dVertex
 10
2.2225
 20
-0.114998
 30
0.0
 42
1.0
  0
VERTEX
  5
580
100
AcDbEntity
  8
MULTILAYER
100
AcDbVertex
100
AcDb2dVertex
 10
2.8575
 20
-0.114998
 30
0.0
 42
1.0
  0
SEQEND
  5
581
100
AcDbEntity
  8
0
  0
POLYLINE
  5
582
100
AcDbEntity
  8
TOPSOLDER
100
AcDb2dPolyline
 66
     1
 10
0.0
 20
0.0
 30
0.0
 40
1.4732
 41
1.4732
 75
     8
  0
VERTEX
  5
583
100
AcDbEntity
  8
TOPSOLDER
100
AcDbVertex
100
AcDb2dVertex
 10
-0.000005
 20
0.114998
 30
0.0
  0
VERTEX
  5
584
100
AcDbEntity
  8
TOPSOLDER
100
AcDbVertex
100
AcDb2dVertex
 10
-0.000005
 20
-0.114998
 30
0.0
  0
SEQEND
  5
585
100
AcDbEntity
  8
0
  0
POLYLINE
  5
586
100
AcDbEntity
  8
TOPSOLDER
100
AcDb2dPolyline
 66
     1
 10
0.0
 20
0.0
 30
0.0
 70
     1
 40
0.7366
 41
0.7366
 75
     8
  0
VERTEX
  5
587
100
AcDbEntity
  8
TOPSOLDER
100
AcDbVertex
100
AcDb2dVertex
 10
-0.368305
 20
0.114998
 30
0.0
 42
1.0
  0
VERTEX
  5
588
100
AcDbEntity
  8
TOPSOLDER
100
AcDbVertex
100
AcDb2dVertex
 10
0.368295
 20
0.114998
 30
0.0
 42
1.0
  0
SEQEND
  5
589
100
AcDbEntity
  8
0
  0
POLYLINE
  5
58A
100
AcDbEntity
  8
TOPSOLDER
100
AcDb2dPolyline
 66
     1
 10
0.0
 20
0.0
 30
0.0
 70
     1
 40
0.7366
 41
0.7366
 75
     8
  0
VERTEX
  5
58B
100
AcDbEntity
  8
TOPSOLDER
100
AcDbVertex
100
AcDb2dVertex
 10
-0.368305
 20
-0.114998
 30
0.0
 42
1.0
  0
VERTEX
  5
58C
100
AcDbEntity
  8
TOPSOLDER
100
AcDbVertex
100
AcDb2dVertex
 10
0.368295
 20
-0.114998
 30
0.0
 42
1.0
  0
SEQEND
  5
58D
100
AcDbEntity
  8
0
  0
POLYLINE
  5
58E
100
AcDbEntity
  8
BOTTOMSOLDER
100
AcDb2dPolyline
 66
     1
 10
0.0
 20
0.0
 30
0.0
 40
1.4732
 41
1.4732
 75
     8
  0
VERTEX
  5
58F
100
AcDbEntity
  8
BOTTOMSOLDER
100
AcDbVertex
100
AcDb2dVertex
 10
-0.000005
 20
0.114998
 30
0.0
  0
VERTEX
  5
590
100
AcDbEntity
  8
BOTTOMSOLDER
100
AcDbVertex
100
AcDb2dVertex
 10
-0.000005
 20
-0.114998
 30
0.0
  0
SEQEND
  5
591
100
AcDbEntity
  8
0
  0
POLYLINE
  5
592
100
AcDbEntity
  8
BOTTOMSOLDER
100
AcDb2dPolyline
 66
     1
 10
0.0
 20
0.0
 30
0.0
 70
     1
 40
0.7366
 41
0.7366
 75
     8
  0
VERTEX
  5
593
100
AcDbEntity
  8
BOTTOMSOLDER
100
AcDbVertex
100
AcDb2dVertex
 10
-0.368305
 20
0.114998
 30
0.0
 42
1.0
  0
VERTEX
  5
594
100
AcDbEntity
  8
BOTTOMSOLDER
100
AcDbVertex
100
AcDb2dVertex
 10
0.368295
 20
0.114998
 30
0.0
 42
1.0
  0
SEQEND
  5
595
100
AcDbEntity
  8
0
  0
POLYLINE
  5
596
100
AcDbEntity
  8
BOTTOMSOLDER
100
AcDb2dPolyline
 66
     1
 10
0.0
 20
0.0
 30
0.0
 70
     1
 40
0.7366
 41
0.7366
 75
     8
  0
VERTEX
  5
597
100
AcDbEntity
  8
BOTTOMSOLDER
100
AcDbVertex
100
AcDb2dVertex
 10
-0.368305
 20
-0.114998
 30
0.0
 42
1.0
  0
VERTEX
  5
598
100
AcDbEntity
  8
BOTTOMSOLDER
100
AcDbVertex
100
AcDb2dVertex
 10
0.368295
 20
-0.114998
 30
0.0
 42
1.0
  0
SEQEND
  5
599
100
AcDbEntity
  8
0
  0
POLYLINE
  5
59A
100
AcDbEntity
  8
MULTILAYER
100
AcDb2dPolyline
 66
     1
 10
0.0
 20
0.0
 30
0.0
 40
1.27
 41
1.27
 75
     8
  0
VERTEX
  5
59B
100
AcDbEntity
  8
MULTILAYER
100
AcDbVertex
100
AcDb2dVertex
 10
-0.000005
 20
0.114998
 30
0.0
  0
VERTEX
  5
59C
100
AcDbEntity
  8
MULTILAYER
100
AcDbVertex
100
AcDb2dVertex
 10
-0.000005
 20
-0.114998
 30
0.0
  0
SEQEND
  5
59D
100
AcDbEntity
  8
0
  0
POLYLINE
  5
59E
100
AcDbEntity
  8
MULTILAYER
100
AcDb2dPolyline
 66
     1
 10
0.0
 20
0.0
 30
0.0
 70
     1
 40
0.635
 41
0.635
 75
     8
  0
VERTEX
  5
59F
100
AcDbEntity
  8
MULTILAYER
100
AcDbVertex
100
AcDb2dVertex
 10
-0.317505
 20
0.114998
 30
0.0
 42
1.0
  0
VERTEX
  5
5A0
100
AcDbEntity
  8
MULTILAYER
100
AcDbVertex
100
AcDb2dVertex
 10
0.317495
 20
0.114998
 30
0.0
 42
1.0
  0
SEQEND
  5
5A1
100
AcDbEntity
  8
0
  0
POLYLINE
  5
5A2
100
AcDbEntity
  8
MULTILAYER
100
AcDb2dPolyline
 66
     1
 10
0.0
 20
0.0
 30
0.0
 70
     1
 40
0.635
 41
0.635
 75
     8
  0
VERTEX
  5
5A3
100
AcDbEntity
  8
MULTILAYER
100
AcDbVertex
100
AcDb2dVertex
 10
-0.317505
 20
-0.114998
 30
0.0
 42
1.0
  0
VERTEX
  5
5A4
100
AcDbEntity
  8
MULTILAYER
100
AcDbVertex
100
AcDb2dVertex
 10
0.317495
 20
-0.114998
 30
0.0
 42
1.0
  0
SEQEND
  5
5A5
100
AcDbEntity
  8
0
  0
TEXT
  5
5A6
100
AcDbEntity
  8
TOPOVERLAY
100
AcDbText
 10
1.016
 20
1.3716
 30
0.0
 40
0.889
  1
+
 50
180.0
100
AcDbText
  0
ENDBLK
  5
5A7
100
AcDbEntity
  8
0
100
AcDbBlockEnd
  0
BLOCK
  5
5AA
100
AcDbEntity
  8
0
100
AcDbBlockBegin
  2
RJ45_POE_5
 70
     0
 10
0.0
 20
0.0
 30
0.0
  3
RJ45_POE_5
  1

  0
POLYLINE
  5
5AB
100
AcDbEntity
  8
TOPOVERLAY
100
AcDb2dPolyline
 66
     1
 10
0.0
 20
0.0
 30
0.0
 40
0.2032
 41
0.2032
 75
     8
  0
VERTEX
  5
5AC
100
AcDbEntity
  8
TOPOVERLAY
100
AcDbVertex
100
AcDb2dVertex
 10
-4.140192
 20
-3.55092
 30
0.0
  0
VERTEX
  5
5AD
100
AcDbEntity
  8
TOPOVERLAY
100
AcDbVertex
100
AcDb2dVertex
 10
-4.140192
 20
12.45108
 30
0.0
  0
SEQEND
  5
5AE
100
AcDbEntity
  8
0
  0
POLYLINE
  5
5AF
100
AcDbEntity
  8
TOPOVERLAY
100
AcDb2dPolyline
 66
     1
 10
0.0
 20
0.0
 30
0.0
 70
     1
 40
0.1016
 41
0.1016
 75
     8
  0
VERTEX
  5
5B0
100
AcDbEntity
  8
TOPOVERLAY
100
AcDbVertex
100
AcDb2dVertex
 10
-4.190992
 20
-3.55092
 30
0.0
 42
1.0
  0
VERTEX
  5
5B1
100
AcDbEntity
  8
TOPOVERLAY
100
AcDbVertex
100
AcDb2dVertex
 10
-4.089392
 20
-3.55092
 30
0.0
 42
1.0
  0
SEQEND
  5
5B2
100
AcDbEntity
  8
0
  0
POLYLINE
  5
5B3
100
AcDbEntity
  8
TOPOVERLAY
100
AcDb2dPolyline
 66
     1
 10
0.0
 20
0.0
 30
0.0
 70
     1
 40
0.1016
 41
0.1016
 75
     8
  0
VERTEX
  5
5B4
100
AcDbEntity
  8
TOPOVERLAY
100
AcDbVertex
100
AcDb2dVertex
 10
-4.190992
 20
12.45108
 30
0.0
 42
1.0
  0
VERTEX
  5
5B5
100
AcDbEntity
  8
TOPOVERLAY
100
AcDbVertex
100
AcDb2dVertex
 10
-4.089392
 20
12.45108
 30
0.0
 42
1.0
  0
SEQEND
  5
5B6
100
AcDbEntity
  8
0
  0
POLYLINE
  5
5B7
100
AcDbEntity
  8
TOPOVERLAY
100
AcDb2dPolyline
 66
     1
 10
0.0
 20
0.0
 30
0.0
 40
0.2032
 41
0.2032
 75
     8
  0
VERTEX
  5
5B8
100
AcDbEntity
  8
TOPOVERLAY
100
AcDbVertex
100
AcDb2dVertex
 10
17.272008
 20
-3.55092
 30
0.0
  0
VERTEX
  5
5B9
100
AcDbEntity
  8
TOPOVERLAY
100
AcDbVertex
100
AcDb2dVertex
 10
17.272008
 20
12.45108
 30
0.0
  0
SEQEND
  5
5BA
100
AcDbEntity
  8
0
  0
POLYLINE
  5
5BB
100
AcDbEntity
  8
TOPOVERLAY
100
AcDb2dPolyline
 66
     1
 10
0.0
 20
0.0
 30
0.0
 70
     1
 40
0.1016
 41
0.1016
 75
     8
  0
VERTEX
  5
5BC
100
AcDbEntity
  8
TOPOVERLAY
100
AcDbVertex
100
AcDb2dVertex
 10
17.221208
 20
-3.55092
 30
0.0
 42
1.0
  0
VERTEX
  5
5BD
100
AcDbEntity
  8
TOPOVERLAY
100
AcDbVertex
100
AcDb2dVertex
 10
17.322808
 20
-3.55092
 30
0.0
 42
1.0
  0
SEQEND
  5
5BE
100
AcDbEntity
  8
0
  0
POLYLINE
  5
5BF
100
AcDbEntity
  8
TOPOVERLAY
100
AcDb2dPolyline
 66
     1
 10
0.0
 20
0.0
 30
0.0
 70
     1
 40
0.1016
 41
0.1016
 75
     8
  0
VERTEX
  5
5C0
100
AcDbEntity
  8
TOPOVERLAY
100
AcDbVertex
100
AcDb2dVertex
 10
17.221208
 20
12.45108
 30
0.0
 42
1.0
  0
VERTEX
  5
5C1
100
AcDbEntity
  8
TOPOVERLAY
100
AcDbVertex
100
AcDb2dVertex
 10
17.322808
 20
12.45108
 30
0.0
 42
1.0
  0
SEQEND
  5
5C2
100
AcDbEntity
  8
0
  0
POLYLINE
  5
5C3
100
AcDbEntity
  8
TOPOVERLAY
100
AcDb2dPolyline
 66
     1
 10
0.0
 20
0.0
 30
0.0
 40
0.2032
 41
0.2032
 75
     8
  0
VERTEX
  5
5C4
100
AcDbEntity
  8
TOPOVERLAY
100
AcDbVertex
100
AcDb2dVertex
 10
14.478008
 20
-3.55092
 30
0.0
  0
VERTEX
  5
5C5
100
AcDbEntity
  8
TOPOVERLAY
100
AcDbVertex
100
AcDb2dVertex
 10
14.478008
 20
12.45108
 30
0.0
  0
SEQEND
  5
5C6
100
AcDbEntity
  8
0
  0
POLYLINE
  5
5C7
100
AcDbEntity
  8
TOPOVERLAY
100
AcDb2dPolyline
 66
     1
 10
0.0
 20
0.0
 30
0.0
 70
     1
 40
0.1016
 41
0.1016
 75
     8
  0
VERTEX
  5
5C8
100
AcDbEntity
  8
TOPOVERLAY
100
AcDbVertex
100
AcDb2dVertex
 10
14.427208
 20
-3.55092
 30
0.0
 42
1.0
  0
VERTEX
  5
5C9
100
AcDbEntity
  8
TOPOVERLAY
100
AcDbVertex
100
AcDb2dVertex
 10
14.528808
 20
-3.55092
 30
0.0
 42
1.0
  0
SEQEND
  5
5CA
100
AcDbEntity
  8
0
  0
POLYLINE
  5
5CB
100
AcDbEntity
  8
TOPOVERLAY
100
AcDb2dPolyline
 66
     1
 10
0.0
 20
0.0
 30
0.0
 70
     1
 40
0.1016
 41
0.1016
 75
     8
  0
VERTEX
  5
5CC
100
AcDbEntity
  8
TOPOVERLAY
100
AcDbVertex
100
AcDb2dVertex
 10
14.427208
 20
12.45108
 30
0.0
 42
1.0
  0
VERTEX
  5
5CD
100
AcDbEntity
  8
TOPOVERLAY
100
AcDbVertex
100
AcDb2dVertex
 10
14.528808
 20
12.45108
 30
0.0
 42
1.0
  0
SEQEND
  5
5CE
100
AcDbEntity
  8
0
  0
POLYLINE
  5
5CF
100
AcDbEntity
  8
TOPOVERLAY
100
AcDb2dPolyline
 66
     1
 10
0.0
 20
0.0
 30
0.0
 40
0.2032
 41
0.2032
 75
     8
  0
VERTEX
  5
5D0
100
AcDbEntity
  8
TOPOVERLAY
100
AcDbVertex
100
AcDb2dVertex
 10
-4.140192
 20
12.45108
 30
0.0
  0
VERTEX
  5
5D1
100
AcDbEntity
  8
TOPOVERLAY
100
AcDbVertex
100
AcDb2dVertex
 10
2.018208
 20
12.45108
 30
0.0
  0
SEQEND
  5
5D2
100
AcDbEntity
  8
0
  0
POLYLINE
  5
5D3
100
AcDbEntity
  8
TOPOVERLAY
100
AcDb2dPolyline
 66
     1
 10
0.0
 20
0.0
 30
0.0
 70
     1
 40
0.1016
 41
0.1016
 75
     8
  0
VERTEX
  5
5D4
100
AcDbEntity
  8
TOPOVERLAY
100
AcDbVertex
100
AcDb2dVertex
 10
-4.190992
 20
12.45108
 30
0.0
 42
1.0
  0
VERTEX
  5
5D5
100
AcDbEntity
  8
TOPOVERLAY
100
AcDbVertex
100
AcDb2dVertex
 10
-4.089392
 20
12.45108
 30
0.0
 42
1.0
  0
SEQEND
  5
5D6
100
AcDbEntity
  8
0
  0
POLYLINE
  5
5D7
100
AcDbEntity
  8
TOPOVERLAY
100
AcDb2dPolyline
 66
     1
 10
0.0
 20
0.0
 30
0.0
 70
     1
 40
0.1016
 41
0.1016
 75
     8
  0
VERTEX
  5
5D8
100
AcDbEntity
  8
TOPOVERLAY
100
AcDbVertex
100
AcDb2dVertex
 10
1.967408
 20
12.45108
 30
0.0
 42
1.0
  0
VERTEX
  5
5D9
100
AcDbEntity
  8
TOPOVERLAY
100
AcDbVertex
100
AcDb2dVertex
 10
2.069008
 20
12.45108
 30
0.0
 42
1.0
  0
SEQEND
  5
5DA
100
AcDbEntity
  8
0
  0
POLYLINE
  5
5DB
100
AcDbEntity
  8
TOPOVERLAY
100
AcDb2dPolyline
 66
     1
 10
0.0
 20
0.0
 30
0.0
 40
0.2032
 41
0.2032
 75
     8
  0
VERTEX
  5
5DC
100
AcDbEntity
  8
TOPOVERLAY
100
AcDbVertex
100
AcDb2dVertex
 10
4.583608
 20
12.45108
 30
0.0
  0
VERTEX
  5
5DD
100
AcDbEntity
  8
TOPOVERLAY
100
AcDbVertex
100
AcDb2dVertex
 10
17.272008
 20
12.45108
 30
0.0
  0
SEQEND
  5
5DE
100
AcDbEntity
  8
0
  0
POLYLINE
  5
5DF
100
AcDbEntity
  8
TOPOVERLAY
100
AcDb2dPolyline
 66
     1
 10
0.0
 20
0.0
 30
0.0
 70
     1
 40
0.1016
 41
0.1016
 75
     8
  0
VERTEX
  5
5E0
100
AcDbEntity
  8
TOPOVERLAY
100
AcDbVertex
100
AcDb2dVertex
 10
4.532808
 20
12.45108
 30
0.0
 42
1.0
  0
VERTEX
  5
5E1
100
AcDbEntity
  8
TOPOVERLAY
100
AcDbVertex
100
AcDb2dVertex
 10
4.634408
 20
12.45108
 30
0.0
 42
1.0
  0
SEQEND
  5
5E2
100
AcDbEntity
  8
0
  0
POLYLINE
  5
5E3
100
AcDbEntity
  8
TOPOVERLAY
100
AcDb2dPolyline
 66
     1
 10
0.0
 20
0.0
 30
0.0
 70
     1
 40
0.1016
 41
0.1016
 75
     8
  0
VERTEX
  5
5E4
100
AcDbEntity
  8
TOPOVERLAY
100
AcDbVertex
100
AcDb2dVertex
 10
17.221208
 20
12.45108
 30
0.0
 42
1.0
  0
VERTEX
  5
5E5
100
AcDbEntity
  8
TOPOVERLAY
100
AcDbVertex
100
AcDb2dVertex
 10
17.322808
 20
12.45108
 30
0.0
 42
1.0
  0
SEQEND
  5
5E6
100
AcDbEntity
  8
0
  0
POLYLINE
  5
5E7
100
AcDbEntity
  8
TOPOVERLAY
100
AcDb2dPolyline
 66
     1
 10
0.0
 20
0.0
 30
0.0
 40
0.2032
 41
0.2032
 75
     8
  0
VERTEX
  5
5E8
100
AcDbEntity
  8
TOPOVERLAY
100
AcDbVertex
100
AcDb2dVertex
 10
-4.140192
 20
-3.55092
 30
0.0
  0
VERTEX
  5
5E9
100
AcDbEntity
  8
TOPOVERLAY
100
AcDbVertex
100
AcDb2dVertex
 10
2.018208
 20
-3.55092
 30
0.0
  0
SEQEND
  5
5EA
100
AcDbEntity
  8
0
  0
POLYLINE
  5
5EB
100
AcDbEntity
  8
TOPOVERLAY
100
AcDb2dPolyline
 66
     1
 10
0.0
 20
0.0
 30
0.0
 70
     1
 40
0.1016
 41
0.1016
 75
     8
  0
VERTEX
  5
5EC
100
AcDbEntity
  8
TOPOVERLAY
100
AcDbVertex
100
AcDb2dVertex
 10
-4.190992
 20
-3.55092
 30
0.0
 42
1.0
  0
VERTEX
  5
5ED
100
AcDbEntity
  8
TOPOVERLAY
100
AcDbVertex
100
AcDb2dVertex
 10
-4.089392
 20
-3.55092
 30
0.0
 42
1.0
  0
SEQEND
  5
5EE
100
AcDbEntity
  8
0
  0
POLYLINE
  5
5EF
100
AcDbEntity
  8
TOPOVERLAY
100
AcDb2dPolyline
 66
     1
 10
0.0
 20
0.0
 30
0.0
 70
     1
 40
0.1016
 41
0.1016
 75
     8
  0
VERTEX
  5
5F0
100
AcDbEntity
  8
TOPOVERLAY
100
AcDbVertex
100
AcDb2dVertex
 10
1.967408
 20
-3.55092
 30
0.0
 42
1.0
  0
VERTEX
  5
5F1
100
AcDbEntity
  8
TOPOVERLAY
100
AcDbVertex
100
AcDb2dVertex
 10
2.069008
 20
-3.55092
 30
0.0
 42
1.0
  0
SEQEND
  5
5F2
100
AcDbEntity
  8
0
  0
POLYLINE
  5
5F3
100
AcDbEntity
  8
TOPOVERLAY
100
AcDb2dPolyline
 66
     1
 10
0.0
 20
0.0
 30
0.0
 40
0.2032
 41
0.2032
 75
     8
  0
VERTEX
  5
5F4
100
AcDbEntity
  8
TOPOVERLAY
100
AcDbVertex
100
AcDb2dVertex
 10
4.583608
 20
-3.55092
 30
0.0
  0
VERTEX
  5
5F5
100
AcDbEntity
  8
TOPOVERLAY
100
AcDbVertex
100
AcDb2dVertex
 10
17.272008
 20
-3.55092
 30
0.0
  0
SEQEND
  5
5F6
100
AcDbEntity
  8
0
  0
POLYLINE
  5
5F7
100
AcDbEntity
  8
TOPOVERLAY
100
AcDb2dPolyline
 66
     1
 10
0.0
 20
0.0
 30
0.0
 70
     1
 40
0.1016
 41
0.1016
 75
     8
  0
VERTEX
  5
5F8
100
AcDbEntity
  8
TOPOVERLAY
100
AcDbVertex
100
AcDb2dVertex
 10
4.532808
 20
-3.55092
 30
0.0
 42
1.0
  0
VERTEX
  5
5F9
100
AcDbEntity
  8
TOPOVERLAY
100
AcDbVertex
100
AcDb2dVertex
 10
4.634408
 20
-3.55092
 30
0.0
 42
1.0
  0
SEQEND
  5
5FA
100
AcDbEntity
  8
0
  0
POLYLINE
  5
5FB
100
AcDbEntity
  8
TOPOVERLAY
100
AcDb2dPolyline
 66
     1
 10
0.0
 20
0.0
 30
0.0
 70
     1
 40
0.1016
 41
0.1016
 75
     8
  0
VERTEX
  5
5FC
100
AcDbEntity
  8
TOPOVERLAY
100
AcDbVertex
100
AcDb2dVertex
 10
17.221208
 20
-3.55092
 30
0.0
 42
1.0
  0
VERTEX
  5
5FD
100
AcDbEntity
  8
TOPOVERLAY
100
AcDbVertex
100
AcDb2dVertex
 10
17.322808
 20
-3.55092
 30
0.0
 42
1.0
  0
SEQEND
  5
5FE
100
AcDbEntity
  8
0
  0
POLYLINE
  5
5FF
100
AcDbEntity
  8
TOPSOLDER
100
AcDb2dPolyline
 66
     1
 10
0.0
 20
0.0
 30
0.0
 70
     1
 40
1.7526
 41
1.7526
 75
     8
  0
VERTEX
  5
600
100
AcDbEntity
  8
TOPSOLDER
100
AcDbVertex
100
AcDb2dVertex
 10
5.473708
 20
-1.26492
 30
0.0
 42
1.0
  0
VERTEX
  5
601
100
AcDbEntity
  8
TOPSOLDER
100
AcDbVertex
100
AcDb2dVertex
 10
7.226308
 20
-1.26492
 30
0.0
 42
1.0
  0
SEQEND
  5
602
100
AcDbEntity
  8
0
  0
POLYLINE
  5
603
100
AcDbEntity
  8
BOTTOMSOLDER
100
AcDb2dPolyline
 66
     1
 10
0.0
 20
0.0
 30
0.0
 70
     1
 40
1.7526
 41
1.7526
 75
     8
  0
VERTEX
  5
604
100
AcDbEntity
  8
BOTTOMSOLDER
100
AcDbVertex
100
AcDb2dVertex
 10
5.473708
 20
-1.26492
 30
0.0
 42
1.0
  0
VERTEX
  5
605
100
AcDbEntity
  8
BOTTOMSOLDER
100
AcDbVertex
100
AcDb2dVertex
 10
7.226308
 20
-1.26492
 30
0.0
 42
1.0
  0
SEQEND
  5
606
100
AcDbEntity
  8
0
  0
POLYLINE
  5
607
100
AcDbEntity
  8
MULTILAYER
100
AcDb2dPolyline
 66
     1
 10
0.0
 20
0.0
 30
0.0
 70
     1
 40
1.651
 41
1.651
 75
     8
  0
VERTEX
  5
608
100
AcDbEntity
  8
MULTILAYER
100
AcDbVertex
100
AcDb2dVertex
 10
5.524508
 20
-1.26492
 30
0.0
 42
1.0
  0
VERTEX
  5
609
100
AcDbEntity
  8
MULTILAYER
100
AcDbVertex
100
AcDb2dVertex
 10
7.175508
 20
-1.26492
 30
0.0
 42
1.0
  0
SEQEND
  5
60A
100
AcDbEntity
  8
0
  0
POLYLINE
  5
60B
100
AcDbEntity
  8
TOPSOLDER
100
AcDb2dPolyline
 66
     1
 10
0.0
 20
0.0
 30
0.0
 70
     1
 40
1.101601
 41
1.101601
 75
     8
  0
VERTEX
  5
60C
100
AcDbEntity
  8
TOPSOLDER
100
AcDbVertex
100
AcDb2dVertex
 10
9.179204
 20
0.665074
 30
0.0
 42
1.0
  0
VERTEX
  5
60D
100
AcDbEntity
  8
TOPSOLDER
100
AcDbVertex
100
AcDb2dVertex
 10
10.280802
 20
0.665074
 30
0.0
 42
1.0
  0
SEQEND
  5
60E
100
AcDbEntity
  8
0
  0
POLYLINE
  5
60F
100
AcDbEntity
  8
BOTTOMSOLDER
100
AcDb2dPolyline
 66
     1
 10
0.0
 20
0.0
 30
0.0
 70
     1
 40
1.101601
 41
1.101601
 75
     8
  0
VERTEX
  5
610
100
AcDbEntity
  8
BOTTOMSOLDER
100
AcDbVertex
100
AcDb2dVertex
 10
9.179204
 20
0.665074
 30
0.0
 42
1.0
  0
VERTEX
  5
611
100
AcDbEntity
  8
BOTTOMSOLDER
100
AcDbVertex
100
AcDb2dVertex
 10
10.280802
 20
0.665074
 30
0.0
 42
1.0
  0
SEQEND
  5
612
100
AcDbEntity
  8
0
  0
POLYLINE
  5
613
100
AcDbEntity
  8
MULTILAYER
100
AcDb2dPolyline
 66
     1
 10
0.0
 20
0.0
 30
0.0
 70
     1
 40
1.000001
 41
1.000001
 75
     8
  0
VERTEX
  5
614
100
AcDbEntity
  8
MULTILAYER
100
AcDbVertex
100
AcDb2dVertex
 10
9.230004
 20
0.665074
 30
0.0
 42
1.0
  0
VERTEX
  5
615
100
AcDbEntity
  8
MULTILAYER
100
AcDbVertex
100
AcDb2dVertex
 10
10.230002
 20
0.665074
 30
0.0
 42
1.0
  0
SEQEND
  5
616
100
AcDbEntity
  8
0
  0
POLYLINE
  5
617
100
AcDbEntity
  8
TOPSOLDER
100
AcDb2dPolyline
 66
     1
 10
0.0
 20
0.0
 30
0.0
 70
     1
 40
1.101601
 41
1.101601
 75
     8
  0
VERTEX
  5
618
100
AcDbEntity
  8
TOPSOLDER
100
AcDbVertex
100
AcDb2dVertex
 10
10.699209
 20
8.235079
 30
0.0
 42
1.0
  0
VERTEX
  5
619
100
AcDbEntity
  8
TOPSOLDER
100
AcDbVertex
100
AcDb2dVertex
 10
11.800807
 20
8.235079
 30
0.0
 42
1.0
  0
SEQEND
  5
61A
100
AcDbEntity
  8
0
  0
POLYLINE
  5
61B
100
AcDbEntity
  8
BOTTOMSOLDER
100
AcDb2dPolyline
 66
     1
 10
0.0
 20
0.0
 30
0.0
 70
     1
 40
1.101601
 41
1.101601
 75
     8
  0
VERTEX
  5
61C
100
AcDbEntity
  8
BOTTOMSOLDER
100
AcDbVertex
100
AcDb2dVertex
 10
10.699209
 20
8.235079
 30
0.0
 42
1.0
  0
VERTEX
  5
61D
100
AcDbEntity
  8
BOTTOMSOLDER
100
AcDbVertex
100
AcDb2dVertex
 10
11.800807
 20
8.235079
 30
0.0
 42
1.0
  0
SEQEND
  5
61E
100
AcDbEntity
  8
0
  0
POLYLINE
  5
61F
100
AcDbEntity
  8
MULTILAYER
100
AcDb2dPolyline
 66
     1
 10
0.0
 20
0.0
 30
0.0
 70
     1
 40
1.000001
 41
1.000001
 75
     8
  0
VERTEX
  5
620
100
AcDbEntity
  8
MULTILAYER
100
AcDbVertex
100
AcDb2dVertex
 10
10.750009
 20
8.235079
 30
0.0
 42
1.0
  0
VERTEX
  5
621
100
AcDbEntity
  8
MULTILAYER
100
AcDbVertex
100
AcDb2dVertex
 10
11.750007
 20
8.235079
 30
0.0
 42
1.0
  0
SEQEND
  5
622
100
AcDbEntity
  8
0
  0
POLYLINE
  5
623
100
AcDbEntity
  8
TOPSOLDER
100
AcDb2dPolyline
 66
     1
 10
0.0
 20
0.0
 30
0.0
 70
     1
 40
0.889
 41
0.889
 75
     8
  0
VERTEX
  5
624
100
AcDbEntity
  8
TOPSOLDER
100
AcDbVertex
100
AcDb2dVertex
 10
-2.984492
 20
6.35
 30
0.0
 42
1.0
  0
VERTEX
  5
625
100
AcDbEntity
  8
TOPSOLDER
100
AcDbVertex
100
AcDb2dVertex
 10
-2.095492
 20
6.35
 30
0.0
 42
1.0
  0
SEQEND
  5
626
100
AcDbEntity
  8
0
  0
POLYLINE
  5
627
100
AcDbEntity
  8
BOTTOMSOLDER
100
AcDb2dPolyline
 66
     1
 10
0.0
 20
0.0
 30
0.0
 70
     1
 40
0.889
 41
0.889
 75
     8
  0
VERTEX
  5
628
100
AcDbEntity
  8
BOTTOMSOLDER
100
AcDbVertex
100
AcDb2dVertex
 10
-2.984492
 20
6.35
 30
0.0
 42
1.0
  0
VERTEX
  5
629
100
AcDbEntity
  8
BOTTOMSOLDER
100
AcDbVertex
100
AcDb2dVertex
 10
-2.095492
 20
6.35
 30
0.0
 42
1.0
  0
SEQEND
  5
62A
100
AcDbEntity
  8
0
  0
POLYLINE
  5
62B
100
AcDbEntity
  8
MULTILAYER
100
AcDb2dPolyline
 66
     1
 10
0.0
 20
0.0
 30
0.0
 70
     1
 40
0.7874
 41
0.7874
 75
     8
  0
VERTEX
  5
62C
100
AcDbEntity
  8
MULTILAYER
100
AcDbVertex
100
AcDb2dVertex
 10
-2.933692
 20
6.35
 30
0.0
 42
1.0
  0
VERTEX
  5
62D
100
AcDbEntity
  8
MULTILAYER
100
AcDbVertex
100
AcDb2dVertex
 10
-2.146292
 20
6.35
 30
0.0
 42
1.0
  0
SEQEND
  5
62E
100
AcDbEntity
  8
0
  0
POLYLINE
  5
62F
100
AcDbEntity
  8
TOPSOLDER
100
AcDb2dPolyline
 66
     1
 10
0.0
 20
0.0
 30
0.0
 70
     1
 40
0.889
 41
0.889
 75
     8
  0
VERTEX
  5
630
100
AcDbEntity
  8
TOPSOLDER
100
AcDbVertex
100
AcDb2dVertex
 10
-0.444492
 20
2.54
 30
0.0
 42
1.0
  0
VERTEX
  5
631
100
AcDbEntity
  8
TOPSOLDER
100
AcDbVertex
100
AcDb2dVertex
 10
0.444508
 20
2.54
 30
0.0
 42
1.0
  0
SEQEND
  5
632
100
AcDbEntity
  8
0
  0
POLYLINE
  5
633
100
AcDbEntity
  8
BOTTOMSOLDER
100
AcDb2dPolyline
 66
     1
 10
0.0
 20
0.0
 30
0.0
 70
     1
 40
0.889
 41
0.889
 75
     8
  0
VERTEX
  5
634
100
AcDbEntity
  8
BOTTOMSOLDER
100
AcDbVertex
100
AcDb2dVertex
 10
-0.444492
 20
2.54
 30
0.0
 42
1.0
  0
VERTEX
  5
635
100
AcDbEntity
  8
BOTTOMSOLDER
100
AcDbVertex
100
AcDb2dVertex
 10
0.444508
 20
2.54
 30
0.0
 42
1.0
  0
SEQEND
  5
636
100
AcDbEntity
  8
0
  0
POLYLINE
  5
637
100
AcDbEntity
  8
MULTILAYER
100
AcDb2dPolyline
 66
     1
 10
0.0
 20
0.0
 30
0.0
 70
     1
 40
0.7874
 41
0.7874
 75
     8
  0
VERTEX
  5
638
100
AcDbEntity
  8
MULTILAYER
100
AcDbVertex
100
AcDb2dVertex
 10
-0.393692
 20
2.54
 30
0.0
 42
1.0
  0
VERTEX
  5
639
100
AcDbEntity
  8
MULTILAYER
100
AcDbVertex
100
AcDb2dVertex
 10
0.393708
 20
2.54
 30
0.0
 42
1.0
  0
SEQEND
  5
63A
100
AcDbEntity
  8
0
  0
POLYLINE
  5
63B
100
AcDbEntity
  8
TOPSOLDER
100
AcDb2dPolyline
 66
     1
 10
0.0
 20
0.0
 30
0.0
 70
     1
 40
1.101601
 41
1.101601
 75
     8
  0
VERTEX
  5
63C
100
AcDbEntity
  8
TOPSOLDER
100
AcDbVertex
100
AcDb2dVertex
 10
9.179209
 20
10.775079
 30
0.0
 42
1.0
  0
VERTEX
  5
63D
100
AcDbEntity
  8
TOPSOLDER
100
AcDbVertex
100
AcDb2dVertex
 10
10.280807
 20
10.775079
 30
0.0
 42
1.0
  0
SEQEND
  5
63E
100
AcDbEntity
  8
0
  0
POLYLINE
  5
63F
100
AcDbEntity
  8
BOTTOMSOLDER
100
AcDb2dPolyline
 66
     1
 10
0.0
 20
0.0
 30
0.0
 70
     1
 40
1.101601
 41
1.101601
 75
     8
  0
VERTEX
  5
640
100
AcDbEntity
  8
BOTTOMSOLDER
100
AcDbVertex
100
AcDb2dVertex
 10
9.179209
 20
10.775079
 30
0.0
 42
1.0
  0
VERTEX
  5
641
100
AcDbEntity
  8
BOTTOMSOLDER
100
AcDbVertex
100
AcDb2dVertex
 10
10.280807
 20
10.775079
 30
0.0
 42
1.0
  0
SEQEND
  5
642
100
AcDbEntity
  8
0
  0
POLYLINE
  5
643
100
AcDbEntity
  8
MULTILAYER
100
AcDb2dPolyline
 66
     1
 10
0.0
 20
0.0
 30
0.0
 70
     1
 40
1.000001
 41
1.000001
 75
     8
  0
VERTEX
  5
644
100
AcDbEntity
  8
MULTILAYER
100
AcDbVertex
100
AcDb2dVertex
 10
9.230009
 20
10.775079
 30
0.0
 42
1.0
  0
VERTEX
  5
645
100
AcDbEntity
  8
MULTILAYER
100
AcDbVertex
100
AcDb2dVertex
 10
10.230007
 20
10.775079
 30
0.0
 42
1.0
  0
SEQEND
  5
646
100
AcDbEntity
  8
0
  0
POLYLINE
  5
647
100
AcDbEntity
  8
TOPSOLDER
100
AcDb2dPolyline
 66
     1
 10
0.0
 20
0.0
 30
0.0
 70
     1
 40
1.101601
 41
1.101601
 75
     8
  0
VERTEX
  5
648
100
AcDbEntity
  8
TOPSOLDER
100
AcDbVertex
100
AcDb2dVertex
 10
10.699219
 20
-1.874929
 30
0.0
 42
1.0
  0
VERTEX
  5
649
100
AcDbEntity
  8
TOPSOLDER
100
AcDbVertex
100
AcDb2dVertex
 10
11.800817
 20
-1.874929
 30
0.0
 42
1.0
  0
SEQEND
  5
64A
100
AcDbEntity
  8
0
  0
POLYLINE
  5
64B
100
AcDbEntity
  8
BOTTOMSOLDER
100
AcDb2dPolyline
 66
     1
 10
0.0
 20
0.0
 30
0.0
 70
     1
 40
1.101601
 41
1.101601
 75
     8
  0
VERTEX
  5
64C
100
AcDbEntity
  8
BOTTOMSOLDER
100
AcDbVertex
100
AcDb2dVertex
 10
10.699219
 20
-1.874929
 30
0.0
 42
1.0
  0
VERTEX
  5
64D
100
AcDbEntity
  8
BOTTOMSOLDER
100
AcDbVertex
100
AcDb2dVertex
 10
11.800817
 20
-1.874929
 30
0.0
 42
1.0
  0
SEQEND
  5
64E
100
AcDbEntity
  8
0
  0
POLYLINE
  5
64F
100
AcDbEntity
  8
MULTILAYER
100
AcDb2dPolyline
 66
     1
 10
0.0
 20
0.0
 30
0.0
 70
     1
 40
1.000001
 41
1.000001
 75
     8
  0
VERTEX
  5
650
100
AcDbEntity
  8
MULTILAYER
100
AcDbVertex
100
AcDb2dVertex
 10
10.750019
 20
-1.874929
 30
0.0
 42
1.0
  0
VERTEX
  5
651
100
AcDbEntity
  8
MULTILAYER
100
AcDbVertex
100
AcDb2dVertex
 10
11.750017
 20
-1.874929
 30
0.0
 42
1.0
  0
SEQEND
  5
652
100
AcDbEntity
  8
0
  0
POLYLINE
  5
653
100
AcDbEntity
  8
TOPSOLDER
100
AcDb2dPolyline
 66
     1
 10
0.0
 20
0.0
 30
0.0
 70
     1
 40
0.889
 41
0.889
 75
     8
  0
VERTEX
  5
654
100
AcDbEntity
  8
TOPSOLDER
100
AcDbVertex
100
AcDb2dVertex
 10
-0.444492
 20
5.08
 30
0.0
 42
1.0
  0
VERTEX
  5
655
100
AcDbEntity
  8
TOPSOLDER
100
AcDbVertex
100
AcDb2dVertex
 10
0.444508
 20
5.08
 30
0.0
 42
1.0
  0
SEQEND
  5
656
100
AcDbEntity
  8
0
  0
POLYLINE
  5
657
100
AcDbEntity
  8
BOTTOMSOLDER
100
AcDb2dPolyline
 66
     1
 10
0.0
 20
0.0
 30
0.0
 70
     1
 40
0.889
 41
0.889
 75
     8
  0
VERTEX
  5
658
100
AcDbEntity
  8
BOTTOMSOLDER
100
AcDbVertex
100
AcDb2dVertex
 10
-0.444492
 20
5.08
 30
0.0
 42
1.0
  0
VERTEX
  5
659
100
AcDbEntity
  8
BOTTOMSOLDER
100
AcDbVertex
100
AcDb2dVertex
 10
0.444508
 20
5.08
 30
0.0
 42
1.0
  0
SEQEND
  5
65A
100
AcDbEntity
  8
0
  0
POLYLINE
  5
65B
100
AcDbEntity
  8
MULTILAYER
100
AcDb2dPolyline
 66
     1
 10
0.0
 20
0.0
 30
0.0
 70
     1
 40
0.7874
 41
0.7874
 75
     8
  0
VERTEX
  5
65C
100
AcDbEntity
  8
MULTILAYER
100
AcDbVertex
100
AcDb2dVertex
 10
-0.393692
 20
5.08
 30
0.0
 42
1.0
  0
VERTEX
  5
65D
100
AcDbEntity
  8
MULTILAYER
100
AcDbVertex
100
AcDb2dVertex
 10
0.393708
 20
5.08
 30
0.0
 42
1.0
  0
SEQEND
  5
65E
100
AcDbEntity
  8
0
  0
POLYLINE
  5
65F
100
AcDbEntity
  8
TOPSOLDER
100
AcDb2dPolyline
 66
     1
 10
0.0
 20
0.0
 30
0.0
 70
     1
 40
0.889
 41
0.889
 75
     8
  0
VERTEX
  5
660
100
AcDbEntity
  8
TOPSOLDER
100
AcDbVertex
100
AcDb2dVertex
 10
-0.444492
 20
7.62
 30
0.0
 42
1.0
  0
VERTEX
  5
661
100
AcDbEntity
  8
TOPSOLDER
100
AcDbVertex
100
AcDb2dVertex
 10
0.444508
 20
7.62
 30
0.0
 42
1.0
  0
SEQEND
  5
662
100
AcDbEntity
  8
0
  0
POLYLINE
  5
663
100
AcDbEntity
  8
BOTTOMSOLDER
100
AcDb2dPolyline
 66
     1
 10
0.0
 20
0.0
 30
0.0
 70
     1
 40
0.889
 41
0.889
 75
     8
  0
VERTEX
  5
664
100
AcDbEntity
  8
BOTTOMSOLDER
100
AcDbVertex
100
AcDb2dVertex
 10
-0.444492
 20
7.62
 30
0.0
 42
1.0
  0
VERTEX
  5
665
100
AcDbEntity
  8
BOTTOMSOLDER
100
AcDbVertex
100
AcDb2dVertex
 10
0.444508
 20
7.62
 30
0.0
 42
1.0
  0
SEQEND
  5
666
100
AcDbEntity
  8
0
  0
POLYLINE
  5
667
100
AcDbEntity
  8
MULTILAYER
100
AcDb2dPolyline
 66
     1
 10
0.0
 20
0.0
 30
0.0
 70
     1
 40
0.7874
 41
0.7874
 75
     8
  0
VERTEX
  5
668
100
AcDbEntity
  8
MULTILAYER
100
AcDbVertex
100
AcDb2dVertex
 10
-0.393692
 20
7.62
 30
0.0
 42
1.0
  0
VERTEX
  5
669
100
AcDbEntity
  8
MULTILAYER
100
AcDbVertex
100
AcDb2dVertex
 10
0.393708
 20
7.62
 30
0.0
 42
1.0
  0
SEQEND
  5
66A
100
AcDbEntity
  8
0
  0
POLYLINE
  5
66B
100
AcDbEntity
  8
TOPSOLDER
100
AcDb2dPolyline
 66
     1
 10
0.0
 20
0.0
 30
0.0
 70
     1
 40
0.889
 41
0.889
 75
     8
  0
VERTEX
  5
66C
100
AcDbEntity
  8
TOPSOLDER
100
AcDbVertex
100
AcDb2dVertex
 10
-2.984492
 20
8.89
 30
0.0
 42
1.0
  0
VERTEX
  5
66D
100
AcDbEntity
  8
TOPSOLDER
100
AcDbVertex
100
AcDb2dVertex
 10
-2.095492
 20
8.89
 30
0.0
 42
1.0
  0
SEQEND
  5
66E
100
AcDbEntity
  8
0
  0
POLYLINE
  5
66F
100
AcDbEntity
  8
BOTTOMSOLDER
100
AcDb2dPolyline
 66
     1
 10
0.0
 20
0.0
 30
0.0
 70
     1
 40
0.889
 41
0.889
 75
     8
  0
VERTEX
  5
670
100
AcDbEntity
  8
BOTTOMSOLDER
100
AcDbVertex
100
AcDb2dVertex
 10
-2.984492
 20
8.89
 30
0.0
 42
1.0
  0
VERTEX
  5
671
100
AcDbEntity
  8
BOTTOMSOLDER
100
AcDbVertex
100
AcDb2dVertex
 10
-2.095492
 20
8.89
 30
0.0
 42
1.0
  0
SEQEND
  5
672
100
AcDbEntity
  8
0
  0
POLYLINE
  5
673
100
AcDbEntity
  8
MULTILAYER
100
AcDb2dPolyline
 66
     1
 10
0.0
 20
0.0
 30
0.0
 70
     1
 40
0.7874
 41
0.7874
 75
     8
  0
VERTEX
  5
674
100
AcDbEntity
  8
MULTILAYER
100
AcDbVertex
100
AcDb2dVertex
 10
-2.933692
 20
8.89
 30
0.0
 42
1.0
  0
VERTEX
  5
675
100
AcDbEntity
  8
MULTILAYER
100
AcDbVertex
100
AcDb2dVertex
 10
-2.146292
 20
8.89
 30
0.0
 42
1.0
  0
SEQEND
  5
676
100
AcDbEntity
  8
0
  0
POLYLINE
  5
677
100
AcDbEntity
  8
TOPSOLDER
100
AcDb2dPolyline
 66
     1
 10
0.0
 20
0.0
 30
0.0
 70
     1
 40
1.4986
 41
1.4986
 75
     8
  0
VERTEX
  5
678
100
AcDbEntity
  8
TOPSOLDER
100
AcDbVertex
100
AcDb2dVertex
 10
2.5527
 20
12.325071
 30
0.0
 42
1.0
  0
VERTEX
  5
679
100
AcDbEntity
  8
TOPSOLDER
100
AcDbVertex
100
AcDb2dVertex
 10
4.0513
 20
12.325071
 30
0.0
 42
1.0
  0
SEQEND
  5
67A
100
AcDbEntity
  8
0
  0
POLYLINE
  5
67B
100
AcDbEntity
  8
BOTTOMSOLDER
100
AcDb2dPolyline
 66
     1
 10
0.0
 20
0.0
 30
0.0
 70
     1
 40
1.4986
 41
1.4986
 75
     8
  0
VERTEX
  5
67C
100
AcDbEntity
  8
BOTTOMSOLDER
100
AcDbVertex
100
AcDb2dVertex
 10
2.5527
 20
12.325071
 30
0.0
 42
1.0
  0
VERTEX
  5
67D
100
AcDbEntity
  8
BOTTOMSOLDER
100
AcDbVertex
100
AcDb2dVertex
 10
4.0513
 20
12.325071
 30
0.0
 42
1.0
  0
SEQEND
  5
67E
100
AcDbEntity
  8
0
  0
POLYLINE
  5
67F
100
AcDbEntity
  8
MULTILAYER
100
AcDb2dPolyline
 66
     1
 10
0.0
 20
0.0
 30
0.0
 70
     1
 40
1.397
 41
1.397
 75
     8
  0
VERTEX
  5
680
100
AcDbEntity
  8
MULTILAYER
100
AcDbVertex
100
AcDb2dVertex
 10
2.6035
 20
12.325071
 30
0.0
 42
1.0
  0
VERTEX
  5
681
100
AcDbEntity
  8
MULTILAYER
100
AcDbVertex
100
AcDb2dVertex
 10
4.0005
 20
12.325071
 30
0.0
 42
1.0
  0
SEQEND
  5
682
100
AcDbEntity
  8
0
  0
POLYLINE
  5
683
100
AcDbEntity
  8
TOPSOLDER
100
AcDb2dPolyline
 66
     1
 10
0.0
 20
0.0
 30
0.0
 70
     1
 40
1.7526
 41
1.7526
 75
     8
  0
VERTEX
  5
684
100
AcDbEntity
  8
TOPSOLDER
100
AcDbVertex
100
AcDb2dVertex
 10
5.473708
 20
10.16508
 30
0.0
 42
1.0
  0
VERTEX
  5
685
100
AcDbEntity
  8
TOPSOLDER
100
AcDbVertex
100
AcDb2dVertex
 10
7.226308
 20
10.16508
 30
0.0
 42
1.0
  0
SEQEND
  5
686
100
AcDbEntity
  8
0
  0
POLYLINE
  5
687
100
AcDbEntity
  8
BOTTOMSOLDER
100
AcDb2dPolyline
 66
     1
 10
0.0
 20
0.0
 30
0.0
 70
     1
 40
1.7526
 41
1.7526
 75
     8
  0
VERTEX
  5
688
100
AcDbEntity
  8
BOTTOMSOLDER
100
AcDbVertex
100
AcDb2dVertex
 10
5.473708
 20
10.16508
 30
0.0
 42
1.0
  0
VERTEX
  5
689
100
AcDbEntity
  8
BOTTOMSOLDER
100
AcDbVertex
100
AcDb2dVertex
 10
7.226308
 20
10.16508
 30
0.0
 42
1.0
  0
SEQEND
  5
68A
100
AcDbEntity
  8
0
  0
POLYLINE
  5
68B
100
AcDbEntity
  8
MULTILAYER
100
AcDb2dPolyline
 66
     1
 10
0.0
 20
0.0
 30
0.0
 70
     1
 40
1.651
 41
1.651
 75
     8
  0
VERTEX
  5
68C
100
AcDbEntity
  8
MULTILAYER
100
AcDbVertex
100
AcDb2dVertex
 10
5.524508
 20
10.16508
 30
0.0
 42
1.0
  0
VERTEX
  5
68D
100
AcDbEntity
  8
MULTILAYER
100
AcDbVertex
100
AcDb2dVertex
 10
7.175508
 20
10.16508
 30
0.0
 42
1.0
  0
SEQEND
  5
68E
100
AcDbEntity
  8
0
  0
SOLID
  5
68F
100
AcDbEntity
  8
TOPSOLDER
100
AcDbTrace
 10
-0.889
 20
0.889
 30
0.0
 11
-0.889
 21
-0.889
 31
0.0
 12
0.889
 22
0.889
 32
0.0
 13
0.889
 23
-0.889
 33
0.0
  0
SOLID
  5
690
100
AcDbEntity
  8
BOTTOMSOLDER
100
AcDbTrace
 10
-0.889
 20
0.889
 30
0.0
 11
-0.889
 21
-0.889
 31
0.0
 12
0.889
 22
0.889
 32
0.0
 13
0.889
 23
-0.889
 33
0.0
  0
SOLID
  5
691
100
AcDbEntity
  8
MULTILAYER
100
AcDbTrace
 10
-0.7874
 20
0.7874
 30
0.0
 11
-0.7874
 21
-0.7874
 31
0.0
 12
0.7874
 22
0.7874
 32
0.0
 13
0.7874
 23
-0.7874
 33
0.0
  0
POLYLINE
  5
692
100
AcDbEntity
  8
TOPSOLDER
100
AcDb2dPolyline
 66
     1
 10
0.0
 20
0.0
 30
0.0
 70
     1
 40
1.4986
 41
1.4986
 75
     8
  0
VERTEX
  5
693
100
AcDbEntity
  8
TOPSOLDER
100
AcDbVertex
100
AcDb2dVertex
 10
2.5527
 20
-3.424911
 30
0.0
 42
1.0
  0
VERTEX
  5
694
100
AcDbEntity
  8
TOPSOLDER
100
AcDbVertex
100
AcDb2dVertex
 10
4.0513
 20
-3.424911
 30
0.0
 42
1.0
  0
SEQEND
  5
695
100
AcDbEntity
  8
0
  0
POLYLINE
  5
696
100
AcDbEntity
  8
BOTTOMSOLDER
100
AcDb2dPolyline
 66
     1
 10
0.0
 20
0.0
 30
0.0
 70
     1
 40
1.4986
 41
1.4986
 75
     8
  0
VERTEX
  5
697
100
AcDbEntity
  8
BOTTOMSOLDER
100
AcDbVertex
100
AcDb2dVertex
 10
2.5527
 20
-3.424911
 30
0.0
 42
1.0
  0
VERTEX
  5
698
100
AcDbEntity
  8
BOTTOMSOLDER
100
AcDbVertex
100
AcDb2dVertex
 10
4.0513
 20
-3.424911
 30
0.0
 42
1.0
  0
SEQEND
  5
699
100
AcDbEntity
  8
0
  0
POLYLINE
  5
69A
100
AcDbEntity
  8
MULTILAYER
100
AcDb2dPolyline
 66
     1
 10
0.0
 20
0.0
 30
0.0
 70
     1
 40
1.397
 41
1.397
 75
     8
  0
VERTEX
  5
69B
100
AcDbEntity
  8
MULTILAYER
100
AcDbVertex
100
AcDb2dVertex
 10
2.6035
 20
-3.424911
 30
0.0
 42
1.0
  0
VERTEX
  5
69C
100
AcDbEntity
  8
MULTILAYER
100
AcDbVertex
100
AcDb2dVertex
 10
4.0005
 20
-3.424911
 30
0.0
 42
1.0
  0
SEQEND
  5
69D
100
AcDbEntity
  8
0
  0
POLYLINE
  5
69E
100
AcDbEntity
  8
TOPSOLDER
100
AcDb2dPolyline
 66
     1
 10
0.0
 20
0.0
 30
0.0
 70
     1
 40
0.889
 41
0.889
 75
     8
  0
VERTEX
  5
69F
100
AcDbEntity
  8
TOPSOLDER
100
AcDbVertex
100
AcDb2dVertex
 10
-2.984492
 20
3.81
 30
0.0
 42
1.0
  0
VERTEX
  5
6A0
100
AcDbEntity
  8
TOPSOLDER
100
AcDbVertex
100
AcDb2dVertex
 10
-2.095492
 20
3.81
 30
0.0
 42
1.0
  0
SEQEND
  5
6A1
100
AcDbEntity
  8
0
  0
POLYLINE
  5
6A2
100
AcDbEntity
  8
BOTTOMSOLDER
100
AcDb2dPolyline
 66
     1
 10
0.0
 20
0.0
 30
0.0
 70
     1
 40
0.889
 41
0.889
 75
     8
  0
VERTEX
  5
6A3
100
AcDbEntity
  8
BOTTOMSOLDER
100
AcDbVertex
100
AcDb2dVertex
 10
-2.984492
 20
3.81
 30
0.0
 42
1.0
  0
VERTEX
  5
6A4
100
AcDbEntity
  8
BOTTOMSOLDER
100
AcDbVertex
100
AcDb2dVertex
 10
-2.095492
 20
3.81
 30
0.0
 42
1.0
  0
SEQEND
  5
6A5
100
AcDbEntity
  8
0
  0
POLYLINE
  5
6A6
100
AcDbEntity
  8
MULTILAYER
100
AcDb2dPolyline
 66
     1
 10
0.0
 20
0.0
 30
0.0
 70
     1
 40
0.7874
 41
0.7874
 75
     8
  0
VERTEX
  5
6A7
100
AcDbEntity
  8
MULTILAYER
100
AcDbVertex
100
AcDb2dVertex
 10
-2.933692
 20
3.81
 30
0.0
 42
1.0
  0
VERTEX
  5
6A8
100
AcDbEntity
  8
MULTILAYER
100
AcDbVertex
100
AcDb2dVertex
 10
-2.146292
 20
3.81
 30
0.0
 42
1.0
  0
SEQEND
  5
6A9
100
AcDbEntity
  8
0
  0
POLYLINE
  5
6AA
100
AcDbEntity
  8
TOPSOLDER
100
AcDb2dPolyline
 66
     1
 10
0.0
 20
0.0
 30
0.0
 70
     1
 40
0.889
 41
0.889
 75
     8
  0
VERTEX
  5
6AB
100
AcDbEntity
  8
TOPSOLDER
100
AcDbVertex
100
AcDb2dVertex
 10
-2.984492
 20
1.27
 30
0.0
 42
1.0
  0
VERTEX
  5
6AC
100
AcDbEntity
  8
TOPSOLDER
100
AcDbVertex
100
AcDb2dVertex
 10
-2.095492
 20
1.27
 30
0.0
 42
1.0
  0
SEQEND
  5
6AD
100
AcDbEntity
  8
0
  0
POLYLINE
  5
6AE
100
AcDbEntity
  8
BOTTOMSOLDER
100
AcDb2dPolyline
 66
     1
 10
0.0
 20
0.0
 30
0.0
 70
     1
 40
0.889
 41
0.889
 75
     8
  0
VERTEX
  5
6AF
100
AcDbEntity
  8
BOTTOMSOLDER
100
AcDbVertex
100
AcDb2dVertex
 10
-2.984492
 20
1.27
 30
0.0
 42
1.0
  0
VERTEX
  5
6B0
100
AcDbEntity
  8
BOTTOMSOLDER
100
AcDbVertex
100
AcDb2dVertex
 10
-2.095492
 20
1.27
 30
0.0
 42
1.0
  0
SEQEND
  5
6B1
100
AcDbEntity
  8
0
  0
POLYLINE
  5
6B2
100
AcDbEntity
  8
MULTILAYER
100
AcDb2dPolyline
 66
     1
 10
0.0
 20
0.0
 30
0.0
 70
     1
 40
0.7874
 41
0.7874
 75
     8
  0
VERTEX
  5
6B3
100
AcDbEntity
  8
MULTILAYER
100
AcDbVertex
100
AcDb2dVertex
 10
-2.933692
 20
1.27
 30
0.0
 42
1.0
  0
VERTEX
  5
6B4
100
AcDbEntity
  8
MULTILAYER
100
AcDbVertex
100
AcDb2dVertex
 10
-2.146292
 20
1.27
 30
0.0
 42
1.0
  0
SEQEND
  5
6B5
100
AcDbEntity
  8
0
  0
ENDBLK
  5
6B6
100
AcDbEntity
  8
0
100
AcDbBlockEnd
  0
ENDSEC
  0
SECTION
  2
ENTITIES
  0
POLYLINE
  5
25
100
AcDbEntity
  8
KEEPOUTLAYER
100
AcDb2dPolyline
 66
     1
 10
0.0
 20
0.0
 30
0.0
 40
0.2032
 41
0.2032
 75
     8
  0
VERTEX
  5
26
100
AcDbEntity
  8
KEEPOUTLAYER
100
AcDbVertex
100
AcDb2dVertex
 10
256.54
 20
82.296
 30
0.0
  0
VERTEX
  5
27
100
AcDbEntity
  8
KEEPOUTLAYER
100
AcDbVertex
100
AcDb2dVertex
 10
336.54
 20
82.296
 30
0.0
  0
SEQEND
  5
28
100
AcDbEntity
  8
0
  0
POLYLINE
  5
29
100
AcDbEntity
  8
KEEPOUTLAYER
100
AcDb2dPolyline
 66
     1
 10
0.0
 20
0.0
 30
0.0
 70
     1
 40
0.1016
 41
0.1016
 75
     8
  0
VERTEX
  5
2A
100
AcDbEntity
  8
KEEPOUTLAYER
100
AcDbVertex
100
AcDb2dVertex
 10
256.4892
 20
82.296
 30
0.0
 42
1.0
  0
VERTEX
  5
2B
100
AcDbEntity
  8
KEEPOUTLAYER
100
AcDbVertex
100
AcDb2dVertex
 10
256.5908
 20
82.296
 30
0.0
 42
1.0
  0
SEQEND
  5
2C
100
AcDbEntity
  8
0
  0
POLYLINE
  5
2D
100
AcDbEntity
  8
KEEPOUTLAYER
100
AcDb2dPolyline
 66
     1
 10
0.0
 20
0.0
 30
0.0
 70
     1
 40
0.1016
 41
0.1016
 75
     8
  0
VERTEX
  5
2E
100
AcDbEntity
  8
KEEPOUTLAYER
100
AcDbVertex
100
AcDb2dVertex
 10
336.4892
 20
82.296
 30
0.0
 42
1.0
  0
VERTEX
  5
2F
100
AcDbEntity
  8
KEEPOUTLAYER
100
AcDbVertex
100
AcDb2dVertex
 10
336.5908
 20
82.296
 30
0.0
 42
1.0
  0
SEQEND
  5
30
100
AcDbEntity
  8
0
  0
POLYLINE
  5
31
100
AcDbEntity
  8
KEEPOUTLAYER
100
AcDb2dPolyline
 66
     1
 10
0.0
 20
0.0
 30
0.0
 40
0.2032
 41
0.2032
 75
     8
  0
VERTEX
  5
32
100
AcDbEntity
  8
KEEPOUTLAYER
100
AcDbVertex
100
AcDb2dVertex
 10
336.54
 20
82.296
 30
0.0
  0
VERTEX
  5
33
100
AcDbEntity
  8
KEEPOUTLAYER
100
AcDbVertex
100
AcDb2dVertex
 10
336.54
 20
132.295999
 30
0.0
  0
SEQEND
  5
34
100
AcDbEntity
  8
0
  0
POLYLINE
  5
35
100
AcDbEntity
  8
KEEPOUTLAYER
100
AcDb2dPolyline
 66
     1
 10
0.0
 20
0.0
 30
0.0
 70
     1
 40
0.1016
 41
0.1016
 75
     8
  0
VERTEX
  5
36
100
AcDbEntity
  8
KEEPOUTLAYER
100
AcDbVertex
100
AcDb2dVertex
 10
336.4892
 20
82.296
 30
0.0
 42
1.0
  0
VERTEX
  5
37
100
AcDbEntity
  8
KEEPOUTLAYER
100
AcDbVertex
100
AcDb2dVertex
 10
336.5908
 20
82.296
 30
0.0
 42
1.0
  0
SEQEND
  5
38
100
AcDbEntity
  8
0
  0
POLYLINE
  5
39
100
AcDbEntity
  8
KEEPOUTLAYER
100
AcDb2dPolyline
 66
     1
 10
0.0
 20
0.0
 30
0.0
 70
     1
 40
0.1016
 41
0.1016
 75
     8
  0
VERTEX
  5
3A
100
AcDbEntity
  8
KEEPOUTLAYER
100
AcDbVertex
100
AcDb2dVertex
 10
336.4892
 20
132.295999
 30
0.0
 42
1.0
  0
VERTEX
  5
3B
100
AcDbEntity
  8
KEEPOUTLAYER
100
AcDbVertex
100
AcDb2dVertex
 10
336.5908
 20
132.295999
 30
0.0
 42
1.0
  0
SEQEND
  5
3C
100
AcDbEntity
  8
0
  0
POLYLINE
  5
3D
100
AcDbEntity
  8
KEEPOUTLAYER
100
AcDb2dPolyline
 66
     1
 10
0.0
 20
0.0
 30
0.0
 40
0.2032
 41
0.2032
 75
     8
  0
VERTEX
  5
3E
100
AcDbEntity
  8
KEEPOUTLAYER
100
AcDbVertex
100
AcDb2dVertex
 10
256.54
 20
82.296
 30
0.0
  0
VERTEX
  5
3F
100
AcDbEntity
  8
KEEPOUTLAYER
100
AcDbVertex
100
AcDb2dVertex
 10
256.54
 20
132.295999
 30
0.0
  0
SEQEND
  5
40
100
AcDbEntity
  8
0
  0
POLYLINE
  5
41
100
AcDbEntity
  8
KEEPOUTLAYER
100
AcDb2dPolyline
 66
     1
 10
0.0
 20
0.0
 30
0.0
 70
     1
 40
0.1016
 41
0.1016
 75
     8
  0
VERTEX
  5
42
100
AcDbEntity
  8
KEEPOUTLAYER
100
AcDbVertex
100
AcDb2dVertex
 10
256.4892
 20
82.296
 30
0.0
 42
1.0
  0
VERTEX
  5
43
100
AcDbEntity
  8
KEEPOUTLAYER
100
AcDbVertex
100
AcDb2dVertex
 10
256.5908
 20
82.296
 30
0.0
 42
1.0
  0
SEQEND
  5
44
100
AcDbEntity
  8
0
  0
POLYLINE
  5
45
100
AcDbEntity
  8
KEEPOUTLAYER
100
AcDb2dPolyline
 66
     1
 10
0.0
 20
0.0
 30
0.0
 70
     1
 40
0.1016
 41
0.1016
 75
     8
  0
VERTEX
  5
46
100
AcDbEntity
  8
KEEPOUTLAYER
100
AcDbVertex
100
AcDb2dVertex
 10
256.4892
 20
132.295999
 30
0.0
 42
1.0
  0
VERTEX
  5
47
100
AcDbEntity
  8
KEEPOUTLAYER
100
AcDbVertex
100
AcDb2dVertex
 10
256.5908
 20
132.295999
 30
0.0
 42
1.0
  0
SEQEND
  5
48
100
AcDbEntity
  8
0
  0
POLYLINE
  5
49
100
AcDbEntity
  8
KEEPOUTLAYER
100
AcDb2dPolyline
 66
     1
 10
0.0
 20
0.0
 30
0.0
 40
0.2032
 41
0.2032
 75
     8
  0
VERTEX
  5
4A
100
AcDbEntity
  8
KEEPOUTLAYER
100
AcDbVertex
100
AcDb2dVertex
 10
256.54
 20
132.295999
 30
0.0
  0
VERTEX
  5
4B
100
AcDbEntity
  8
KEEPOUTLAYER
100
AcDbVertex
100
AcDb2dVertex
 10
336.54
 20
132.295999
 30
0.0
  0
SEQEND
  5
4C
100
AcDbEntity
  8
0
  0
POLYLINE
  5
4D
100
AcDbEntity
  8
KEEPOUTLAYER
100
AcDb2dPolyline
 66
     1
 10
0.0
 20
0.0
 30
0.0
 70
     1
 40
0.1016
 41
0.1016
 75
     8
  0
VERTEX
  5
4E
100
AcDbEntity
  8
KEEPOUTLAYER
100
AcDbVertex
100
AcDb2dVertex
 10
256.4892
 20
132.295999
 30
0.0
 42
1.0
  0
VERTEX
  5
4F
100
AcDbEntity
  8
KEEPOUTLAYER
100
AcDbVertex
100
AcDb2dVertex
 10
256.5908
 20
132.295999
 30
0.0
 42
1.0
  0
SEQEND
  5
50
100
AcDbEntity
  8
0
  0
POLYLINE
  5
51
100
AcDbEntity
  8
KEEPOUTLAYER
100
AcDb2dPolyline
 66
     1
 10
0.0
 20
0.0
 30
0.0
 70
     1
 40
0.1016
 41
0.1016
 75
     8
  0
VERTEX
  5
52
100
AcDbEntity
  8
KEEPOUTLAYER
100
AcDbVertex
100
AcDb2dVertex
 10
336.4892
 20
132.295999
 30
0.0
 42
1.0
  0
VERTEX
  5
53
100
AcDbEntity
  8
KEEPOUTLAYER
100
AcDbVertex
100
AcDb2dVertex
 10
336.5908
 20
132.295999
 30
0.0
 42
1.0
  0
SEQEND
  5
54
100
AcDbEntity
  8
0
  0
POLYLINE
  5
55
100
AcDbEntity
  8
MECHANICAL3
100
AcDb2dPolyline
 66
     1
 10
0.0
 20
0.0
 30
0.0
 40
0.2032
 41
0.2032
 75
     8
  0
VERTEX
  5
56
100
AcDbEntity
  8
MECHANICAL3
100
AcDbVertex
100
AcDb2dVertex
 10
246.039996
 20
82.296
 30
0.0
  0
VERTEX
  5
57
100
AcDbEntity
  8
MECHANICAL3
100
AcDbVertex
100
AcDb2dVertex
 10
256.54
 20
82.296
 30
0.0
  0
SEQEND
  5
58
100
AcDbEntity
  8
0
  0
POLYLINE
  5
59
100
AcDbEntity
  8
MECHANICAL3
100
AcDb2dPolyline
 66
     1
 10
0.0
 20
0.0
 30
0.0
 70
     1
 40
0.1016
 41
0.1016
 75
     8
  0
VERTEX
  5
5A
100
AcDbEntity
  8
MECHANICAL3
100
AcDbVertex
100
AcDb2dVertex
 10
245.989196
 20
82.296
 30
0.0
 42
1.0
  0
VERTEX
  5
5B
100
AcDbEntity
  8
MECHANICAL3
100
AcDbVertex
100
AcDb2dVertex
 10
246.090796
 20
82.296
 30
0.0
 42
1.0
  0
SEQEND
  5
5C
100
AcDbEntity
  8
0
  0
POLYLINE
  5
5D
100
AcDbEntity
  8
MECHANICAL3
100
AcDb2dPolyline
 66
     1
 10
0.0
 20
0.0
 30
0.0
 70
     1
 40
0.1016
 41
0.1016
 75
     8
  0
VERTEX
  5
5E
100
AcDbEntity
  8
MECHANICAL3
100
AcDbVertex
100
AcDb2dVertex
 10
256.4892
 20
82.296
 30
0.0
 42
1.0
  0
VERTEX
  5
5F
100
AcDbEntity
  8
MECHANICAL3
100
AcDbVertex
100
AcDb2dVertex
 10
256.5908
 20
82.296
 30
0.0
 42
1.0
  0
SEQEND
  5
60
100
AcDbEntity
  8
0
  0
POLYLINE
  5
61
100
AcDbEntity
  8
MECHANICAL3
100
AcDb2dPolyline
 66
     1
 10
0.0
 20
0.0
 30
0.0
 40
0.2032
 41
0.2032
 75
     8
  0
VERTEX
  5
62
100
AcDbEntity
  8
MECHANICAL3
100
AcDbVertex
100
AcDb2dVertex
 10
246.040001
 20
132.295999
 30
0.0
  0
VERTEX
  5
63
100
AcDbEntity
  8
MECHANICAL3
100
AcDbVertex
100
AcDb2dVertex
 10
256.54
 20
132.295999
 30
0.0
  0
SEQEND
  5
64
100
AcDbEntity
  8
0
  0
POLYLINE
  5
65
100
AcDbEntity
  8
MECHANICAL3
100
AcDb2dPolyline
 66
     1
 10
0.0
 20
0.0
 30
0.0
 70
     1
 40
0.1016
 41
0.1016
 75
     8
  0
VERTEX
  5
66
100
AcDbEntity
  8
MECHANICAL3
100
AcDbVertex
100
AcDb2dVertex
 10
245.989201
 20
132.295999
 30
0.0
 42
1.0
  0
VERTEX
  5
67
100
AcDbEntity
  8
MECHANICAL3
100
AcDbVertex
100
AcDb2dVertex
 10
246.090801
 20
132.295999
 30
0.0
 42
1.0
  0
SEQEND
  5
68
100
AcDbEntity
  8
0
  0
POLYLINE
  5
69
100
AcDbEntity
  8
MECHANICAL3
100
AcDb2dPolyline
 66
     1
 10
0.0
 20
0.0
 30
0.0
 70
     1
 40
0.1016
 41
0.1016
 75
     8
  0
VERTEX
  5
6A
100
AcDbEntity
  8
MECHANICAL3
100
AcDbVertex
100
AcDb2dVertex
 10
256.4892
 20
132.295999
 30
0.0
 42
1.0
  0
VERTEX
  5
6B
100
AcDbEntity
  8
MECHANICAL3
100
AcDbVertex
100
AcDb2dVertex
 10
256.5908
 20
132.295999
 30
0.0
 42
1.0
  0
SEQEND
  5
6C
100
AcDbEntity
  8
0
  0
POLYLINE
  5
6D
100
AcDbEntity
  8
MECHANICAL3
100
AcDb2dPolyline
 66
     1
 10
0.0
 20
0.0
 30
0.0
 40
0.2032
 41
0.2032
 75
     8
  0
VERTEX
  5
6E
100
AcDbEntity
  8
MECHANICAL3
100
AcDbVertex
100
AcDb2dVertex
 10
256.54
 20
74.296001
 30
0.0
  0
VERTEX
  5
6F
100
AcDbEntity
  8
MECHANICAL3
100
AcDbVertex
100
AcDb2dVertex
 10
256.54
 20
82.296
 30
0.0
  0
SEQEND
  5
70
100
AcDbEntity
  8
0
  0
POLYLINE
  5
71
100
AcDbEntity
  8
MECHANICAL3
100
AcDb2dPolyline
 66
     1
 10
0.0
 20
0.0
 30
0.0
 70
     1
 40
0.1016
 41
0.1016
 75
     8
  0
VERTEX
  5
72
100
AcDbEntity
  8
MECHANICAL3
100
AcDbVertex
100
AcDb2dVertex
 10
256.4892
 20
74.296001
 30
0.0
 42
1.0
  0
VERTEX
  5
73
100
AcDbEntity
  8
MECHANICAL3
100
AcDbVertex
100
AcDb2dVertex
 10
256.5908
 20
74.296001
 30
0.0
 42
1.0
  0
SEQEND
  5
74
100
AcDbEntity
  8
0
  0
POLYLINE
  5
75
100
AcDbEntity
  8
MECHANICAL3
100
AcDb2dPolyline
 66
     1
 10
0.0
 20
0.0
 30
0.0
 70
     1
 40
0.1016
 41
0.1016
 75
     8
  0
VERTEX
  5
76
100
AcDbEntity
  8
MECHANICAL3
100
AcDbVertex
100
AcDb2dVertex
 10
256.4892
 20
82.296
 30
0.0
 42
1.0
  0
VERTEX
  5
77
100
AcDbEntity
  8
MECHANICAL3
100
AcDbVertex
100
AcDb2dVertex
 10
256.5908
 20
82.296
 30
0.0
 42
1.0
  0
SEQEND
  5
78
100
AcDbEntity
  8
0
  0
POLYLINE
  5
79
100
AcDbEntity
  8
MECHANICAL3
100
AcDb2dPolyline
 66
     1
 10
0.0
 20
0.0
 30
0.0
 40
0.2032
 41
0.2032
 75
     8
  0
VERTEX
  5
7A
100
AcDbEntity
  8
MECHANICAL3
100
AcDbVertex
100
AcDb2dVertex
 10
336.54
 20
75.295999
 30
0.0
  0
VERTEX
  5
7B
100
AcDbEntity
  8
MECHANICAL3
100
AcDbVertex
100
AcDb2dVertex
 10
336.54
 20
82.296
 30
0.0
  0
SEQEND
  5
7C
100
AcDbEntity
  8
0
  0
POLYLINE
  5
7D
100
AcDbEntity
  8
MECHANICAL3
100
AcDb2dPolyline
 66
     1
 10
0.0
 20
0.0
 30
0.0
 70
     1
 40
0.1016
 41
0.1016
 75
     8
  0
VERTEX
  5
7E
100
AcDbEntity
  8
MECHANICAL3
100
AcDbVertex
100
AcDb2dVertex
 10
336.4892
 20
75.295999
 30
0.0
 42
1.0
  0
VERTEX
  5
7F
100
AcDbEntity
  8
MECHANICAL3
100
AcDbVertex
100
AcDb2dVertex
 10
336.5908
 20
75.295999
 30
0.0
 42
1.0
  0
SEQEND
  5
80
100
AcDbEntity
  8
0
  0
POLYLINE
  5
81
100
AcDbEntity
  8
MECHANICAL3
100
AcDb2dPolyline
 66
     1
 10
0.0
 20
0.0
 30
0.0
 70
     1
 40
0.1016
 41
0.1016
 75
     8
  0
VERTEX
  5
82
100
AcDbEntity
  8
MECHANICAL3
100
AcDbVertex
100
AcDb2dVertex
 10
336.4892
 20
82.296
 30
0.0
 42
1.0
  0
VERTEX
  5
83
100
AcDbEntity
  8
MECHANICAL3
100
AcDbVertex
100
AcDb2dVertex
 10
336.5908
 20
82.296
 30
0.0
 42
1.0
  0
SEQEND
  5
84
100
AcDbEntity
  8
0
  0
POLYLINE
  5
85
100
AcDbEntity
  8
MECHANICAL3
100
AcDb2dPolyline
 66
     1
 10
0.0
 20
0.0
 30
0.0
 40
0.2032
 41
0.2032
 75
     8
  0
VERTEX
  5
86
100
AcDbEntity
  8
MECHANICAL3
100
AcDbVertex
100
AcDb2dVertex
 10
248.4628
 20
86.2838
 30
0.0
  0
VERTEX
  5
87
100
AcDbEntity
  8
MECHANICAL3
100
AcDbVertex
100
AcDb2dVertex
 10
271.0434
 20
86.2838
 30
0.0
  0
SEQEND
  5
88
100
AcDbEntity
  8
0
  0
POLYLINE
  5
89
100
AcDbEntity
  8
MECHANICAL3
100
AcDb2dPolyline
 66
     1
 10
0.0
 20
0.0
 30
0.0
 70
     1
 40
0.1016
 41
0.1016
 75
     8
  0
VERTEX
  5
8A
100
AcDbEntity
  8
MECHANICAL3
100
AcDbVertex
100
AcDb2dVertex
 10
248.412
 20
86.2838
 30
0.0
 42
1.0
  0
VERTEX
  5
8B
100
AcDbEntity
  8
MECHANICAL3
100
AcDbVertex
100
AcDb2dVertex
 10
248.5136
 20
86.2838
 30
0.0
 42
1.0
  0
SEQEND
  5
8C
100
AcDbEntity
  8
0
  0
POLYLINE
  5
8D
100
AcDbEntity
  8
MECHANICAL3
100
AcDb2dPolyline
 66
     1
 10
0.0
 20
0.0
 30
0.0
 70
     1
 40
0.1016
 41
0.1016
 75
     8
  0
VERTEX
  5
8E
100
AcDbEntity
  8
MECHANICAL3
100
AcDbVertex
100
AcDb2dVertex
 10
270.9926
 20
86.2838
 30
0.0
 42
1.0
  0
VERTEX
  5
8F
100
AcDbEntity
  8
MECHANICAL3
100
AcDbVertex
100
AcDb2dVertex
 10
271.0942
 20
86.2838
 30
0.0
 42
1.0
  0
SEQEND
  5
90
100
AcDbEntity
  8
0
  0
POLYLINE
  5
91
100
AcDbEntity
  8
MECHANICAL3
100
AcDb2dPolyline
 66
     1
 10
0.0
 20
0.0
 30
0.0
 40
0.2032
 41
0.2032
 75
     8
  0
VERTEX
  5
92
100
AcDbEntity
  8
MECHANICAL3
100
AcDbVertex
100
AcDb2dVertex
 10
271.0688
 20
80.1116
 30
0.0
  0
VERTEX
  5
93
100
AcDbEntity
  8
MECHANICAL3
100
AcDbVertex
100
AcDb2dVertex
 10
271.0688
 20
86.2584
 30
0.0
  0
SEQEND
  5
94
100
AcDbEntity
  8
0
  0
POLYLINE
  5
95
100
AcDbEntity
  8
MECHANICAL3
100
AcDb2dPolyline
 66
     1
 10
0.0
 20
0.0
 30
0.0
 70
     1
 40
0.1016
 41
0.1016
 75
     8
  0
VERTEX
  5
96
100
AcDbEntity
  8
MECHANICAL3
100
AcDbVertex
100
AcDb2dVertex
 10
271.018
 20
80.1116
 30
0.0
 42
1.0
  0
VERTEX
  5
97
100
AcDbEntity
  8
MECHANICAL3
100
AcDbVertex
100
AcDb2dVertex
 10
271.1196
 20
80.1116
 30
0.0
 42
1.0
  0
SEQEND
  5
98
100
AcDbEntity
  8
0
  0
POLYLINE
  5
99
100
AcDbEntity
  8
MECHANICAL3
100
AcDb2dPolyline
 66
     1
 10
0.0
 20
0.0
 30
0.0
 70
     1
 40
0.1016
 41
0.1016
 75
     8
  0
VERTEX
  5
9A
100
AcDbEntity
  8
MECHANICAL3
100
AcDbVertex
100
AcDb2dVertex
 10
271.018
 20
86.2584
 30
0.0
 42
1.0
  0
VERTEX
  5
9B
100
AcDbEntity
  8
MECHANICAL3
100
AcDbVertex
100
AcDb2dVertex
 10
271.1196
 20
86.2584
 30
0.0
 42
1.0
  0
SEQEND
  5
9C
100
AcDbEntity
  8
0
  0
POLYLINE
  5
9D
100
AcDbEntity
  8
MECHANICAL3
100
AcDb2dPolyline
 66
     1
 10
0.0
 20
0.0
 30
0.0
 40
0.2032
 41
0.2032
 75
     8
  0
VERTEX
  5
9E
100
AcDbEntity
  8
MECHANICAL3
100
AcDbVertex
100
AcDb2dVertex
 10
322.0974
 20
128.4224
 30
0.0
  0
VERTEX
  5
9F
100
AcDbEntity
  8
MECHANICAL3
100
AcDbVertex
100
AcDb2dVertex
 10
322.0974
 20
136.4234
 30
0.0
  0
SEQEND
  5
A0
100
AcDbEntity
  8
0
  0
POLYLINE
  5
A1
100
AcDbEntity
  8
MECHANICAL3
100
AcDb2dPolyline
 66
     1
 10
0.0
 20
0.0
 30
0.0
 70
     1
 40
0.1016
 41
0.1016
 75
     8
  0
VERTEX
  5
A2
100
AcDbEntity
  8
MECHANICAL3
100
AcDbVertex
100
AcDb2dVertex
 10
322.0466
 20
128.4224
 30
0.0
 42
1.0
  0
VERTEX
  5
A3
100
AcDbEntity
  8
MECHANICAL3
100
AcDbVertex
100
AcDb2dVertex
 10
322.1482
 20
128.4224
 30
0.0
 42
1.0
  0
SEQEND
  5
A4
100
AcDbEntity
  8
0
  0
POLYLINE
  5
A5
100
AcDbEntity
  8
MECHANICAL3
100
AcDb2dPolyline
 66
     1
 10
0.0
 20
0.0
 30
0.0
 70
     1
 40
0.1016
 41
0.1016
 75
     8
  0
VERTEX
  5
A6
100
AcDbEntity
  8
MECHANICAL3
100
AcDbVertex
100
AcDb2dVertex
 10
322.0466
 20
136.4234
 30
0.0
 42
1.0
  0
VERTEX
  5
A7
100
AcDbEntity
  8
MECHANICAL3
100
AcDbVertex
100
AcDb2dVertex
 10
322.1482
 20
136.4234
 30
0.0
 42
1.0
  0
SEQEND
  5
A8
100
AcDbEntity
  8
0
  0
POLYLINE
  5
A9
100
AcDbEntity
  8
MECHANICAL3
100
AcDb2dPolyline
 66
     1
 10
0.0
 20
0.0
 30
0.0
 40
0.2032
 41
0.2032
 75
     8
  0
VERTEX
  5
AA
100
AcDbEntity
  8
MECHANICAL3
100
AcDbVertex
100
AcDb2dVertex
 10
322.0974
 20
128.4224
 30
0.0
  0
VERTEX
  5
AB
100
AcDbEntity
  8
MECHANICAL3
100
AcDbVertex
100
AcDb2dVertex
 10
339.9536
 20
128.4224
 30
0.0
  0
SEQEND
  5
AC
100
AcDbEntity
  8
0
  0
POLYLINE
  5
AD
100
AcDbEntity
  8
MECHANICAL3
100
AcDb2dPolyline
 66
     1
 10
0.0
 20
0.0
 30
0.0
 70
     1
 40
0.1016
 41
0.1016
 75
     8
  0
VERTEX
  5
AE
100
AcDbEntity
  8
MECHANICAL3
100
AcDbVertex
100
AcDb2dVertex
 10
322.0466
 20
128.4224
 30
0.0
 42
1.0
  0
VERTEX
  5
AF
100
AcDbEntity
  8
MECHANICAL3
100
AcDbVertex
100
AcDb2dVertex
 10
322.1482
 20
128.4224
 30
0.0
 42
1.0
  0
SEQEND
  5
B0
100
AcDbEntity
  8
0
  0
POLYLINE
  5
B1
100
AcDbEntity
  8
MECHANICAL3
100
AcDb2dPolyline
 66
     1
 10
0.0
 20
0.0
 30
0.0
 70
     1
 40
0.1016
 41
0.1016
 75
     8
  0
VERTEX
  5
B2
100
AcDbEntity
  8
MECHANICAL3
100
AcDbVertex
100
AcDb2dVertex
 10
339.9028
 20
128.4224
 30
0.0
 42
1.0
  0
VERTEX
  5
B3
100
AcDbEntity
  8
MECHANICAL3
100
AcDbVertex
100
AcDb2dVertex
 10
340.0044
 20
128.4224
 30
0.0
 42
1.0
  0
SEQEND
  5
B4
100
AcDbEntity
  8
0
  0
POLYLINE
  5
B5
100
AcDbEntity
  8
MECHANICAL3
100
AcDb2dPolyline
 66
     1
 10
0.0
 20
0.0
 30
0.0
 40
0.2032
 41
0.2032
 75
     8
  0
VERTEX
  5
B6
100
AcDbEntity
  8
MECHANICAL3
100
AcDbVertex
100
AcDb2dVertex
 10
336.54
 20
132.295999
 30
0.0
  0
VERTEX
  5
B7
100
AcDbEntity
  8
MECHANICAL3
100
AcDbVertex
100
AcDb2dVertex
 10
336.54
 20
136.4134
 30
0.0
  0
SEQEND
  5
B8
100
AcDbEntity
  8
0
  0
POLYLINE
  5
B9
100
AcDbEntity
  8
MECHANICAL3
100
AcDb2dPolyline
 66
     1
 10
0.0
 20
0.0
 30
0.0
 70
     1
 40
0.1016
 41
0.1016
 75
     8
  0
VERTEX
  5
BA
100
AcDbEntity
  8
MECHANICAL3
100
AcDbVertex
100
AcDb2dVertex
 10
336.4892
 20
132.295999
 30
0.0
 42
1.0
  0
VERTEX
  5
BB
100
AcDbEntity
  8
MECHANICAL3
100
AcDbVertex
100
AcDb2dVertex
 10
336.5908
 20
132.295999
 30
0.0
 42
1.0
  0
SEQEND
  5
BC
100
AcDbEntity
  8
0
  0
POLYLINE
  5
BD
100
AcDbEntity
  8
MECHANICAL3
100
AcDb2dPolyline
 66
     1
 10
0.0
 20
0.0
 30
0.0
 70
     1
 40
0.1016
 41
0.1016
 75
     8
  0
VERTEX
  5
BE
100
AcDbEntity
  8
MECHANICAL3
100
AcDbVertex
100
AcDb2dVertex
 10
336.4892
 20
136.4134
 30
0.0
 42
1.0
  0
VERTEX
  5
BF
100
AcDbEntity
  8
MECHANICAL3
100
AcDbVertex
100
AcDb2dVertex
 10
336.5908
 20
136.4134
 30
0.0
 42
1.0
  0
SEQEND
  5
C0
100
AcDbEntity
  8
0
  0
POLYLINE
  5
C1
100
AcDbEntity
  8
MECHANICAL3
100
AcDb2dPolyline
 66
     1
 10
0.0
 20
0.0
 30
0.0
 40
0.2032
 41
0.2032
 75
     8
  0
VERTEX
  5
C2
100
AcDbEntity
  8
MECHANICAL3
100
AcDbVertex
100
AcDb2dVertex
 10
336.54
 20
132.295999
 30
0.0
  0
VERTEX
  5
C3
100
AcDbEntity
  8
MECHANICAL3
100
AcDbVertex
100
AcDb2dVertex
 10
339.940801
 20
132.295999
 30
0.0
  0
SEQEND
  5
C4
100
AcDbEntity
  8
0
  0
POLYLINE
  5
C5
100
AcDbEntity
  8
MECHANICAL3
100
AcDb2dPolyline
 66
     1
 10
0.0
 20
0.0
 30
0.0
 70
     1
 40
0.1016
 41
0.1016
 75
     8
  0
VERTEX
  5
C6
100
AcDbEntity
  8
MECHANICAL3
100
AcDbVertex
100
AcDb2dVertex
 10
336.4892
 20
132.295999
 30
0.0
 42
1.0
  0
VERTEX
  5
C7
100
AcDbEntity
  8
MECHANICAL3
100
AcDbVertex
100
AcDb2dVertex
 10
336.5908
 20
132.295999
 30
0.0
 42
1.0
  0
SEQEND
  5
C8
100
AcDbEntity
  8
0
  0
POLYLINE
  5
C9
100
AcDbEntity
  8
MECHANICAL3
100
AcDb2dPolyline
 66
     1
 10
0.0
 20
0.0
 30
0.0
 70
     1
 40
0.1016
 41
0.1016
 75
     8
  0
VERTEX
  5
CA
100
AcDbEntity
  8
MECHANICAL3
100
AcDbVertex
100
AcDb2dVertex
 10
339.890001
 20
132.295999
 30
0.0
 42
1.0
  0
VERTEX
  5
CB
100
AcDbEntity
  8
MECHANICAL3
100
AcDbVertex
100
AcDb2dVertex
 10
339.991601
 20
132.295999
 30
0.0
 42
1.0
  0
SEQEND
  5
CC
100
AcDbEntity
  8
0
  0
POLYLINE
  5
CD
100
AcDbEntity
  8
TOPOVERLAY
100
AcDb2dPolyline
 66
     1
 10
0.0
 20
0.0
 30
0.0
 70
     1
 40
0.254
 41
0.254
 75
     8
  0
VERTEX
  5
CE
100
AcDbEntity
  8
TOPOVERLAY
100
AcDbVertex
100
AcDb2dVertex
 10
324.59599
 20
128.4732
 30
0.0
 42
1.0
  0
VERTEX
  5
CF
100
AcDbEntity
  8
TOPOVERLAY
100
AcDbVertex
100
AcDb2dVertex
 10
319.596011
 20
128.4732
 30
0.0
 42
1.0
  0
SEQEND
  5
D0
100
AcDbEntity
  8
0
  0
POLYLINE
  5
D1
100
AcDbEntity
  8
TOPOVERLAY
100
AcDb2dPolyline
 66
     1
 10
0.0
 20
0.0
 30
0.0
 70
     1
 40
0.127
 41
0.127
 75
     8
  0
VERTEX
  5
D2
100
AcDbEntity
  8
TOPOVERLAY
100
AcDbVertex
100
AcDb2dVertex
 10
324.53249
 20
128.4732
 30
0.0
 42
1.0
  0
VERTEX
  5
D3
100
AcDbEntity
  8
TOPOVERLAY
100
AcDbVertex
100
AcDb2dVertex
 10
324.65949
 20
128.4732
 30
0.0
 42
1.0
  0
SEQEND
  5
D4
100
AcDbEntity
  8
0
  0
POLYLINE
  5
D5
100
AcDbEntity
  8
TOPOVERLAY
100
AcDb2dPolyline
 66
     1
 10
0.0
 20
0.0
 30
0.0
 70
     1
 40
0.127
 41
0.127
 75
     8
  0
VERTEX
  5
D6
100
AcDbEntity
  8
TOPOVERLAY
100
AcDbVertex
100
AcDb2dVertex
 10
319.532511
 20
128.4732
 30
0.0
 42
1.0
  0
VERTEX
  5
D7
100
AcDbEntity
  8
TOPOVERLAY
100
AcDbVertex
100
AcDb2dVertex
 10
319.659511
 20
128.4732
 30
0.0
 42
1.0
  0
SEQEND
  5
D8
100
AcDbEntity
  8
0
  0
POLYLINE
  5
D9
100
AcDbEntity
  8
TOPOVERLAY
100
AcDb2dPolyline
 66
     1
 10
0.0
 20
0.0
 30
0.0
 70
     1
 40
0.254
 41
0.254
 75
     8
  0
VERTEX
  5
DA
100
AcDbEntity
  8
TOPOVERLAY
100
AcDbVertex
100
AcDb2dVertex
 10
273.53259
 20
86.2838
 30
0.0
 42
1.0
  0
VERTEX
  5
DB
100
AcDbEntity
  8
TOPOVERLAY
100
AcDbVertex
100
AcDb2dVertex
 10
268.53261
 20
86.2838
 30
0.0
 42
1.0
  0
SEQEND
  5
DC
100
AcDbEntity
  8
0
  0
POLYLINE
  5
DD
100
AcDbEntity
  8
TOPOVERLAY
100
AcDb2dPolyline
 66
     1
 10
0.0
 20
0.0
 30
0.0
 70
     1
 40
0.127
 41
0.127
 75
     8
  0
VERTEX
  5
DE
100
AcDbEntity
  8
TOPOVERLAY
100
AcDbVertex
100
AcDb2dVertex
 10
273.46909
 20
86.2838
 30
0.0
 42
1.0
  0
VERTEX
  5
DF
100
AcDbEntity
  8
TOPOVERLAY
100
AcDbVertex
100
AcDb2dVertex
 10
273.59609
 20
86.2838
 30
0.0
 42
1.0
  0
SEQEND
  5
E0
100
AcDbEntity
  8
0
  0
POLYLINE
  5
E1
100
AcDbEntity
  8
TOPOVERLAY
100
AcDb2dPolyline
 66
     1
 10
0.0
 20
0.0
 30
0.0
 70
     1
 40
0.127
 41
0.127
 75
     8
  0
VERTEX
  5
E2
100
AcDbEntity
  8
TOPOVERLAY
100
AcDbVertex
100
AcDb2dVertex
 10
268.46911
 20
86.2838
 30
0.0
 42
1.0
  0
VERTEX
  5
E3
100
AcDbEntity
  8
TOPOVERLAY
100
AcDbVertex
100
AcDb2dVertex
 10
268.59611
 20
86.2838
 30
0.0
 42
1.0
  0
SEQEND
  5
E4
100
AcDbEntity
  8
0
  0
POLYLINE
  5
E5
100
AcDbEntity
  8
KEEPOUTLAYER
100
AcDb2dPolyline
 66
     1
 10
0.0
 20
0.0
 30
0.0
 70
     1
 40
0.254
 41
0.254
 75
     8
  0
VERTEX
  5
E6
100
AcDbEntity
  8
KEEPOUTLAYER
100
AcDbVertex
100
AcDb2dVertex
 10
272.560999
 20
86.254158
 30
0.0
 42
1.0
  0
VERTEX
  5
E7
100
AcDbEntity
  8
KEEPOUTLAYER
100
AcDbVertex
100
AcDb2dVertex
 10
269.561005
 20
86.254158
 30
0.0
 42
1.0
  0
SEQEND
  5
E8
100
AcDbEntity
  8
0
  0
POLYLINE
  5
E9
100
AcDbEntity
  8
KEEPOUTLAYER
100
AcDb2dPolyline
 66
     1
 10
0.0
 20
0.0
 30
0.0
 70
     1
 40
0.127
 41
0.127
 75
     8
  0
VERTEX
  5
EA
100
AcDbEntity
  8
KEEPOUTLAYER
100
AcDbVertex
100
AcDb2dVertex
 10
272.497499
 20
86.254158
 30
0.0
 42
1.0
  0
VERTEX
  5
EB
100
AcDbEntity
  8
KEEPOUTLAYER
100
AcDbVertex
100
AcDb2dVertex
 10
272.624499
 20
86.254158
 30
0.0
 42
1.0
  0
SEQEND
  5
EC
100
AcDbEntity
  8
0
  0
POLYLINE
  5
ED
100
AcDbEntity
  8
KEEPOUTLAYER
100
AcDb2dPolyline
 66
     1
 10
0.0
 20
0.0
 30
0.0
 70
     1
 40
0.127
 41
0.127
 75
     8
  0
VERTEX
  5
EE
100
AcDbEntity
  8
KEEPOUTLAYER
100
AcDbVertex
100
AcDb2dVertex
 10
269.497505
 20
86.254158
 30
0.0
 42
1.0
  0
VERTEX
  5
EF
100
AcDbEntity
  8
KEEPOUTLAYER
100
AcDbVertex
100
AcDb2dVertex
 10
269.624505
 20
86.254158
 30
0.0
 42
1.0
  0
SEQEND
  5
F0
100
AcDbEntity
  8
0
  0
POLYLINE
  5
F1
100
AcDbEntity
  8
KEEPOUTLAYER
100
AcDb2dPolyline
 66
     1
 10
0.0
 20
0.0
 30
0.0
 70
     1
 40
0.254
 41
0.254
 75
     8
  0
VERTEX
  5
F2
100
AcDbEntity
  8
KEEPOUTLAYER
100
AcDbVertex
100
AcDb2dVertex
 10
323.598007
 20
128.424356
 30
0.0
 42
1.0
  0
VERTEX
  5
F3
100
AcDbEntity
  8
KEEPOUTLAYER
100
AcDbVertex
100
AcDb2dVertex
 10
320.598013
 20
128.424356
 30
0.0
 42
1.0
  0
SEQEND
  5
F4
100
AcDbEntity
  8
0
  0
POLYLINE
  5
F5
100
AcDbEntity
  8
KEEPOUTLAYER
100
AcDb2dPolyline
 66
     1
 10
0.0
 20
0.0
 30
0.0
 70
     1
 40
0.127
 41
0.127
 75
     8
  0
VERTEX
  5
F6
100
AcDbEntity
  8
KEEPOUTLAYER
100
AcDbVertex
100
AcDb2dVertex
 10
323.534507
 20
128.424356
 30
0.0
 42
1.0
  0
VERTEX
  5
F7
100
AcDbEntity
  8
KEEPOUTLAYER
100
AcDbVertex
100
AcDb2dVertex
 10
323.661507
 20
128.424356
 30
0.0
 42
1.0
  0
SEQEND
  5
F8
100
AcDbEntity
  8
0
  0
POLYLINE
  5
F9
100
AcDbEntity
  8
KEEPOUTLAYER
100
AcDb2dPolyline
 66
     1
 10
0.0
 20
0.0
 30
0.0
 70
     1
 40
0.127
 41
0.127
 75
     8
  0
VERTEX
  5
FA
100
AcDbEntity
  8
KEEPOUTLAYER
100
AcDbVertex
100
AcDb2dVertex
 10
320.534513
 20
128.424356
 30
0.0
 42
1.0
  0
VERTEX
  5
FB
100
AcDbEntity
  8
KEEPOUTLAYER
100
AcDbVertex
100
AcDb2dVertex
 10
320.661513
 20
128.424356
 30
0.0
 42
1.0
  0
SEQEND
  5
FC
100
AcDbEntity
  8
0
  0
TEXT
  5
FD
100
AcDbEntity
  8
TOPOVERLAY
100
AcDbText
 10
330.421082
 20
88.144502
 30
0.0
 40
1.143
  1
RJ45
 50
360.0
100
AcDbText
  0
TEXT
  5
FE
100
AcDbEntity
  8
TOPOVERLAY
100
AcDbText
 10
328.796498
 20
121.535952
 30
0.0
 40
1.143
  1
POWER
 50
360.0
100
AcDbText
  0
TEXT
  5
FF
100
AcDbEntity
  8
TOPOVERLAY
100
AcDbText
 10
265.639748
 20
89.547329
 30
0.0
 40
1.524
  1
+
100
AcDbText
  0
TEXT
  5
100
100
AcDbEntity
  8
TOPOVERLAY
100
AcDbText
 10
265.5316
 20
125.6792
 30
0.0
 40
1.143
  1
422-Y Z A B G
 50
270.0
100
AcDbText
  0
TEXT
  5
101
100
AcDbEntity
  8
TOPOVERLAY
100
AcDbText
 10
265.43
 20
108.966
 30
0.0
 40
1.143
  1
485-A B
 50
270.0
100
AcDbText
  0
TEXT
  5
102
100
AcDbEntity
  8
TOPOVERLAY
100
AcDbText
 10
265.481059
 20
94.878642
 30
0.0
 40
1.143
  1
GND
 50
270.0
100
AcDbText
  0
TEXT
  5
103
100
AcDbEntity
  8
TOPOVERLAY
100
AcDbText
 10
265.4046
 20
99.5426
 30
0.0
 40
1.143
  1
CFG
 50
270.0
100
AcDbText
  0
TEXT
  5
104
100
AcDbEntity
  8
MECHANICAL3
100
AcDbText
 10
271.526
 20
108.6612
 30
0.0
 40
3.048
  1
USR-TCP232-442
 50
360.0
100
AcDbText
  0
POLYLINE
  5
105
100
AcDbEntity
  8
MECHANICAL3
100
AcDb2dPolyline
 66
     1
 10
0.0
 20
0.0
 30
0.0
 40
0.2032
 41
0.2032
 75
     8
  0
VERTEX
  5
106
100
AcDbEntity
  8
MECHANICAL3
100
AcDbVertex
100
AcDb2dVertex
 10
339.09
 20
125.8824
 30
0.0
  0
VERTEX
  5
107
100
AcDbEntity
  8
MECHANICAL3
100
AcDbVertex
100
AcDb2dVertex
 10
339.09
 20
128.4224
 30
0.0
  0
SEQEND
  5
108
100
AcDbEntity
  8
0
  0
POLYLINE
  5
109
100
AcDbEntity
  8
MECHANICAL3
100
AcDb2dPolyline
 66
     1
 10
0.0
 20
0.0
 30
0.0
 70
     1
 40
0.1016
 41
0.1016
 75
     8
  0
VERTEX
  5
10A
100
AcDbEntity
  8
MECHANICAL3
100
AcDbVertex
100
AcDb2dVertex
 10
339.0392
 20
125.8824
 30
0.0
 42
1.0
  0
VERTEX
  5
10B
100
AcDbEntity
  8
MECHANICAL3
100
AcDbVertex
100
AcDb2dVertex
 10
339.1408
 20
125.8824
 30
0.0
 42
1.0
  0
SEQEND
  5
10C
100
AcDbEntity
  8
0
  0
POLYLINE
  5
10D
100
AcDbEntity
  8
MECHANICAL3
100
AcDb2dPolyline
 66
     1
 10
0.0
 20
0.0
 30
0.0
 70
     1
 40
0.1016
 41
0.1016
 75
     8
  0
VERTEX
  5
10E
100
AcDbEntity
  8
MECHANICAL3
100
AcDbVertex
100
AcDb2dVertex
 10
339.0392
 20
128.4224
 30
0.0
 42
1.0
  0
VERTEX
  5
10F
100
AcDbEntity
  8
MECHANICAL3
100
AcDbVertex
100
AcDb2dVertex
 10
339.1408
 20
128.4224
 30
0.0
 42
1.0
  0
SEQEND
  5
110
100
AcDbEntity
  8
0
  0
POLYLINE
  5
111
100
AcDbEntity
  8
MECHANICAL3
100
AcDb2dPolyline
 66
     1
 10
0.0
 20
0.0
 30
0.0
 40
0.2032
 41
0.2032
 75
     8
  0
VERTEX
  5
112
100
AcDbEntity
  8
MECHANICAL3
100
AcDbVertex
100
AcDb2dVertex
 10
339.09
 20
132.3024
 30
0.0
  0
VERTEX
  5
113
100
AcDbEntity
  8
MECHANICAL3
100
AcDbVertex
100
AcDb2dVertex
 10
339.09
 20
134.8424
 30
0.0
  0
SEQEND
  5
114
100
AcDbEntity
  8
0
  0
POLYLINE
  5
115
100
AcDbEntity
  8
MECHANICAL3
100
AcDb2dPolyline
 66
     1
 10
0.0
 20
0.0
 30
0.0
 70
     1
 40
0.1016
 41
0.1016
 75
     8
  0
VERTEX
  5
116
100
AcDbEntity
  8
MECHANICAL3
100
AcDbVertex
100
AcDb2dVertex
 10
339.0392
 20
132.3024
 30
0.0
 42
1.0
  0
VERTEX
  5
117
100
AcDbEntity
  8
MECHANICAL3
100
AcDbVertex
100
AcDb2dVertex
 10
339.1408
 20
132.3024
 30
0.0
 42
1.0
  0
SEQEND
  5
118
100
AcDbEntity
  8
0
  0
POLYLINE
  5
119
100
AcDbEntity
  8
MECHANICAL3
100
AcDb2dPolyline
 66
     1
 10
0.0
 20
0.0
 30
0.0
 70
     1
 40
0.1016
 41
0.1016
 75
     8
  0
VERTEX
  5
11A
100
AcDbEntity
  8
MECHANICAL3
100
AcDbVertex
100
AcDb2dVertex
 10
339.0392
 20
134.8424
 30
0.0
 42
1.0
  0
VERTEX
  5
11B
100
AcDbEntity
  8
MECHANICAL3
100
AcDbVertex
100
AcDb2dVertex
 10
339.1408
 20
134.8424
 30
0.0
 42
1.0
  0
SEQEND
  5
11C
100
AcDbEntity
  8
0
  0
POLYLINE
  5
11D
100
AcDbEntity
  8
MECHANICAL3
100
AcDb2dPolyline
 66
     1
 10
0.0
 20
0.0
 30
0.0
 40
0.2032
 41
0.2032
 75
     8
  0
VERTEX
  5
11E
100
AcDbEntity
  8
MECHANICAL3
100
AcDbVertex
100
AcDb2dVertex
 10
338.582
 20
126.8984
 30
0.0
  0
VERTEX
  5
11F
100
AcDbEntity
  8
MECHANICAL3
100
AcDbVertex
100
AcDb2dVertex
 10
339.09
 20
128.4224
 30
0.0
  0
SEQEND
  5
120
100
AcDbEntity
  8
0
  0
POLYLINE
  5
121
100
AcDbEntity
  8
MECHANICAL3
100
AcDb2dPolyline
 66
     1
 10
0.0
 20
0.0
 30
0.0
 70
     1
 40
0.1016
 41
0.1016
 75
     8
  0
VERTEX
  5
122
100
AcDbEntity
  8
MECHANICAL3
100
AcDbVertex
100
AcDb2dVertex
 10
338.5312
 20
126.8984
 30
0.0
 42
1.0
  0
VERTEX
  5
123
100
AcDbEntity
  8
MECHANICAL3
100
AcDbVertex
100
AcDb2dVertex
 10
338.6328
 20
126.8984
 30
0.0
 42
1.0
  0
SEQEND
  5
124
100
AcDbEntity
  8
0
  0
POLYLINE
  5
125
100
AcDbEntity
  8
MECHANICAL3
100
AcDb2dPolyline
 66
     1
 10
0.0
 20
0.0
 30
0.0
 70
     1
 40
0.1016
 41
0.1016
 75
     8
  0
VERTEX
  5
126
100
AcDbEntity
  8
MECHANICAL3
100
AcDbVertex
100
AcDb2dVertex
 10
339.0392
 20
128.4224
 30
0.0
 42
1.0
  0
VERTEX
  5
127
100
AcDbEntity
  8
MECHANICAL3
100
AcDbVertex
100
AcDb2dVertex
 10
339.1408
 20
128.4224
 30
0.0
 42
1.0
  0
SEQEND
  5
128
100
AcDbEntity
  8
0
  0
POLYLINE
  5
129
100
AcDbEntity
  8
MECHANICAL3
100
AcDb2dPolyline
 66
     1
 10
0.0
 20
0.0
 30
0.0
 40
0.2032
 41
0.2032
 75
     8
  0
VERTEX
  5
12A
100
AcDbEntity
  8
MECHANICAL3
100
AcDbVertex
100
AcDb2dVertex
 10
339.09
 20
128.4224
 30
0.0
  0
VERTEX
  5
12B
100
AcDbEntity
  8
MECHANICAL3
100
AcDbVertex
100
AcDb2dVertex
 10
339.598
 20
126.8984
 30
0.0
  0
SEQEND
  5
12C
100
AcDbEntity
  8
0
  0
POLYLINE
  5
12D
100
AcDbEntity
  8
MECHANICAL3
100
AcDb2dPolyline
 66
     1
 10
0.0
 20
0.0
 30
0.0
 70
     1
 40
0.1016
 41
0.1016
 75
     8
  0
VERTEX
  5
12E
100
AcDbEntity
  8
MECHANICAL3
100
AcDbVertex
100
AcDb2dVertex
 10
339.0392
 20
128.4224
 30
0.0
 42
1.0
  0
VERTEX
  5
12F
100
AcDbEntity
  8
MECHANICAL3
100
AcDbVertex
100
AcDb2dVertex
 10
339.1408
 20
128.4224
 30
0.0
 42
1.0
  0
SEQEND
  5
130
100
AcDbEntity
  8
0
  0
POLYLINE
  5
131
100
AcDbEntity
  8
MECHANICAL3
100
AcDb2dPolyline
 66
     1
 10
0.0
 20
0.0
 30
0.0
 70
     1
 40
0.1016
 41
0.1016
 75
     8
  0
VERTEX
  5
132
100
AcDbEntity
  8
MECHANICAL3
100
AcDbVertex
100
AcDb2dVertex
 10
339.5472
 20
126.8984
 30
0.0
 42
1.0
  0
VERTEX
  5
133
100
AcDbEntity
  8
MECHANICAL3
100
AcDbVertex
100
AcDb2dVertex
 10
339.6488
 20
126.8984
 30
0.0
 42
1.0
  0
SEQEND
  5
134
100
AcDbEntity
  8
0
  0
POLYLINE
  5
135
100
AcDbEntity
  8
MECHANICAL3
100
AcDb2dPolyline
 66
     1
 10
0.0
 20
0.0
 30
0.0
 40
0.2032
 41
0.2032
 75
     8
  0
VERTEX
  5
136
100
AcDbEntity
  8
MECHANICAL3
100
AcDbVertex
100
AcDb2dVertex
 10
338.582
 20
133.8264
 30
0.0
  0
VERTEX
  5
137
100
AcDbEntity
  8
MECHANICAL3
100
AcDbVertex
100
AcDb2dVertex
 10
339.09
 20
132.3024
 30
0.0
  0
SEQEND
  5
138
100
AcDbEntity
  8
0
  0
POLYLINE
  5
139
100
AcDbEntity
  8
MECHANICAL3
100
AcDb2dPolyline
 66
     1
 10
0.0
 20
0.0
 30
0.0
 70
     1
 40
0.1016
 41
0.1016
 75
     8
  0
VERTEX
  5
13A
100
AcDbEntity
  8
MECHANICAL3
100
AcDbVertex
100
AcDb2dVertex
 10
338.5312
 20
133.8264
 30
0.0
 42
1.0
  0
VERTEX
  5
13B
100
AcDbEntity
  8
MECHANICAL3
100
AcDbVertex
100
AcDb2dVertex
 10
338.6328
 20
133.8264
 30
0.0
 42
1.0
  0
SEQEND
  5
13C
100
AcDbEntity
  8
0
  0
POLYLINE
  5
13D
100
AcDbEntity
  8
MECHANICAL3
100
AcDb2dPolyline
 66
     1
 10
0.0
 20
0.0
 30
0.0
 70
     1
 40
0.1016
 41
0.1016
 75
     8
  0
VERTEX
  5
13E
100
AcDbEntity
  8
MECHANICAL3
100
AcDbVertex
100
AcDb2dVertex
 10
339.0392
 20
132.3024
 30
0.0
 42
1.0
  0
VERTEX
  5
13F
100
AcDbEntity
  8
MECHANICAL3
100
AcDbVertex
100
AcDb2dVertex
 10
339.1408
 20
132.3024
 30
0.0
 42
1.0
  0
SEQEND
  5
140
100
AcDbEntity
  8
0
  0
POLYLINE
  5
141
100
AcDbEntity
  8
MECHANICAL3
100
AcDb2dPolyline
 66
     1
 10
0.0
 20
0.0
 30
0.0
 40
0.2032
 41
0.2032
 75
     8
  0
VERTEX
  5
142
100
AcDbEntity
  8
MECHANICAL3
100
AcDbVertex
100
AcDb2dVertex
 10
339.09
 20
132.3024
 30
0.0
  0
VERTEX
  5
143
100
AcDbEntity
  8
MECHANICAL3
100
AcDbVertex
100
AcDb2dVertex
 10
339.598
 20
133.8264
 30
0.0
  0
SEQEND
  5
144
100
AcDbEntity
  8
0
  0
POLYLINE
  5
145
100
AcDbEntity
  8
MECHANICAL3
100
AcDb2dPolyline
 66
     1
 10
0.0
 20
0.0
 30
0.0
 70
     1
 40
0.1016
 41
0.1016
 75
     8
  0
VERTEX
  5
146
100
AcDbEntity
  8
MECHANICAL3
100
AcDbVertex
100
AcDb2dVertex
 10
339.0392
 20
132.3024
 30
0.0
 42
1.0
  0
VERTEX
  5
147
100
AcDbEntity
  8
MECHANICAL3
100
AcDbVertex
100
AcDb2dVertex
 10
339.1408
 20
132.3024
 30
0.0
 42
1.0
  0
SEQEND
  5
148
100
AcDbEntity
  8
0
  0
POLYLINE
  5
149
100
AcDbEntity
  8
MECHANICAL3
100
AcDb2dPolyline
 66
     1
 10
0.0
 20
0.0
 30
0.0
 70
     1
 40
0.1016
 41
0.1016
 75
     8
  0
VERTEX
  5
14A
100
AcDbEntity
  8
MECHANICAL3
100
AcDbVertex
100
AcDb2dVertex
 10
339.5472
 20
133.8264
 30
0.0
 42
1.0
  0
VERTEX
  5
14B
100
AcDbEntity
  8
MECHANICAL3
100
AcDbVertex
100
AcDb2dVertex
 10
339.6488
 20
133.8264
 30
0.0
 42
1.0
  0
SEQEND
  5
14C
100
AcDbEntity
  8
0
  0
POLYLINE
  5
14D
100
AcDbEntity
  8
MECHANICAL3
100
AcDb2dPolyline
 66
     1
 10
0.0
 20
0.0
 30
0.0
 40
0.2032
 41
0.2032
 75
     8
  0
VERTEX
  5
14E
100
AcDbEntity
  8
MECHANICAL3
100
AcDbVertex
100
AcDb2dVertex
 10
338.8868
 20
128.4224
 30
0.0
  0
VERTEX
  5
14F
100
AcDbEntity
  8
MECHANICAL3
100
AcDbVertex
100
AcDb2dVertex
 10
339.2932
 20
128.4224
 30
0.0
  0
SEQEND
  5
150
100
AcDbEntity
  8
0
  0
POLYLINE
  5
151
100
AcDbEntity
  8
MECHANICAL3
100
AcDb2dPolyline
 66
     1
 10
0.0
 20
0.0
 30
0.0
 70
     1
 40
0.1016
 41
0.1016
 75
     8
  0
VERTEX
  5
152
100
AcDbEntity
  8
MECHANICAL3
100
AcDbVertex
100
AcDb2dVertex
 10
338.836
 20
128.4224
 30
0.0
 42
1.0
  0
VERTEX
  5
153
100
AcDbEntity
  8
MECHANICAL3
100
AcDbVertex
100
AcDb2dVertex
 10
338.9376
 20
128.4224
 30
0.0
 42
1.0
  0
SEQEND
  5
154
100
AcDbEntity
  8
0
  0
POLYLINE
  5
155
100
AcDbEntity
  8
MECHANICAL3
100
AcDb2dPolyline
 66
     1
 10
0.0
 20
0.0
 30
0.0
 70
     1
 40
0.1016
 41
0.1016
 75
     8
  0
VERTEX
  5
156
100
AcDbEntity
  8
MECHANICAL3
100
AcDbVertex
100
AcDb2dVertex
 10
339.2424
 20
128.4224
 30
0.0
 42
1.0
  0
VERTEX
  5
157
100
AcDbEntity
  8
MECHANICAL3
100
AcDbVertex
100
AcDb2dVertex
 10
339.344
 20
128.4224
 30
0.0
 42
1.0
  0
SEQEND
  5
158
100
AcDbEntity
  8
0
  0
POLYLINE
  5
159
100
AcDbEntity
  8
MECHANICAL3
100
AcDb2dPolyline
 66
     1
 10
0.0
 20
0.0
 30
0.0
 40
0.2032
 41
0.2032
 75
     8
  0
VERTEX
  5
15A
100
AcDbEntity
  8
MECHANICAL3
100
AcDbVertex
100
AcDb2dVertex
 10
338.8868
 20
132.3024
 30
0.0
  0
VERTEX
  5
15B
100
AcDbEntity
  8
MECHANICAL3
100
AcDbVertex
100
AcDb2dVertex
 10
339.2932
 20
132.3024
 30
0.0
  0
SEQEND
  5
15C
100
AcDbEntity
  8
0
  0
POLYLINE
  5
15D
100
AcDbEntity
  8
MECHANICAL3
100
AcDb2dPolyline
 66
     1
 10
0.0
 20
0.0
 30
0.0
 70
     1
 40
0.1016
 41
0.1016
 75
     8
  0
VERTEX
  5
15E
100
AcDbEntity
  8
MECHANICAL3
100
AcDbVertex
100
AcDb2dVertex
 10
338.836
 20
132.3024
 30
0.0
 42
1.0
  0
VERTEX
  5
15F
100
AcDbEntity
  8
MECHANICAL3
100
AcDbVertex
100
AcDb2dVertex
 10
338.9376
 20
132.3024
 30
0.0
 42
1.0
  0
SEQEND
  5
160
100
AcDbEntity
  8
0
  0
POLYLINE
  5
161
100
AcDbEntity
  8
MECHANICAL3
100
AcDb2dPolyline
 66
     1
 10
0.0
 20
0.0
 30
0.0
 70
     1
 40
0.1016
 41
0.1016
 75
     8
  0
VERTEX
  5
162
100
AcDbEntity
  8
MECHANICAL3
100
AcDbVertex
100
AcDb2dVertex
 10
339.2424
 20
132.3024
 30
0.0
 42
1.0
  0
VERTEX
  5
163
100
AcDbEntity
  8
MECHANICAL3
100
AcDbVertex
100
AcDb2dVertex
 10
339.344
 20
132.3024
 30
0.0
 42
1.0
  0
SEQEND
  5
164
100
AcDbEntity
  8
0
  0
POLYLINE
  5
165
100
AcDbEntity
  8
MECHANICAL3
100
AcDb2dPolyline
 66
     1
 10
0.0
 20
0.0
 30
0.0
 40
0.2032
 41
0.2032
 75
     8
  0
VERTEX
  5
166
100
AcDbEntity
  8
MECHANICAL3
100
AcDbVertex
100
AcDb2dVertex
 10
322.0974
 20
136.2202
 30
0.0
  0
VERTEX
  5
167
100
AcDbEntity
  8
MECHANICAL3
100
AcDbVertex
100
AcDb2dVertex
 10
325.610068
 20
136.2202
 30
0.0
  0
SEQEND
  5
168
100
AcDbEntity
  8
0
  0
POLYLINE
  5
169
100
AcDbEntity
  8
MECHANICAL3
100
AcDb2dPolyline
 66
     1
 10
0.0
 20
0.0
 30
0.0
 70
     1
 40
0.1016
 41
0.1016
 75
     8
  0
VERTEX
  5
16A
100
AcDbEntity
  8
MECHANICAL3
100
AcDbVertex
100
AcDb2dVertex
 10
322.0466
 20
136.2202
 30
0.0
 42
1.0
  0
VERTEX
  5
16B
100
AcDbEntity
  8
MECHANICAL3
100
AcDbVertex
100
AcDb2dVertex
 10
322.1482
 20
136.2202
 30
0.0
 42
1.0
  0
SEQEND
  5
16C
100
AcDbEntity
  8
0
  0
POLYLINE
  5
16D
100
AcDbEntity
  8
MECHANICAL3
100
AcDb2dPolyline
 66
     1
 10
0.0
 20
0.0
 30
0.0
 70
     1
 40
0.1016
 41
0.1016
 75
     8
  0
VERTEX
  5
16E
100
AcDbEntity
  8
MECHANICAL3
100
AcDbVertex
100
AcDb2dVertex
 10
325.559268
 20
136.2202
 30
0.0
 42
1.0
  0
VERTEX
  5
16F
100
AcDbEntity
  8
MECHANICAL3
100
AcDbVertex
100
AcDb2dVertex
 10
325.660868
 20
136.2202
 30
0.0
 42
1.0
  0
SEQEND
  5
170
100
AcDbEntity
  8
0
  0
POLYLINE
  5
171
100
AcDbEntity
  8
MECHANICAL3
100
AcDb2dPolyline
 66
     1
 10
0.0
 20
0.0
 30
0.0
 40
0.2032
 41
0.2032
 75
     8
  0
VERTEX
  5
172
100
AcDbEntity
  8
MECHANICAL3
100
AcDbVertex
100
AcDb2dVertex
 10
333.024731
 20
136.2202
 30
0.0
  0
VERTEX
  5
173
100
AcDbEntity
  8
MECHANICAL3
100
AcDbVertex
100
AcDb2dVertex
 10
336.537399
 20
136.2202
 30
0.0
  0
SEQEND
  5
174
100
AcDbEntity
  8
0
  0
POLYLINE
  5
175
100
AcDbEntity
  8
MECHANICAL3
100
AcDb2dPolyline
 66
     1
 10
0.0
 20
0.0
 30
0.0
 70
     1
 40
0.1016
 41
0.1016
 75
     8
  0
VERTEX
  5
176
100
AcDbEntity
  8
MECHANICAL3
100
AcDbVertex
100
AcDb2dVertex
 10
332.973931
 20
136.2202
 30
0.0
 42
1.0
  0
VERTEX
  5
177
100
AcDbEntity
  8
MECHANICAL3
100
AcDbVertex
100
AcDb2dVertex
 10
333.075531
 20
136.2202
 30
0.0
 42
1.0
  0
SEQEND
  5
178
100
AcDbEntity
  8
0
  0
POLYLINE
  5
179
100
AcDbEntity
  8
MECHANICAL3
100
AcDb2dPolyline
 66
     1
 10
0.0
 20
0.0
 30
0.0
 70
     1
 40
0.1016
 41
0.1016
 75
     8
  0
VERTEX
  5
17A
100
AcDbEntity
  8
MECHANICAL3
100
AcDbVertex
100
AcDb2dVertex
 10
336.486599
 20
136.2202
 30
0.0
 42
1.0
  0
VERTEX
  5
17B
100
AcDbEntity
  8
MECHANICAL3
100
AcDbVertex
100
AcDb2dVertex
 10
336.588199
 20
136.2202
 30
0.0
 42
1.0
  0
SEQEND
  5
17C
100
AcDbEntity
  8
0
  0
POLYLINE
  5
17D
100
AcDbEntity
  8
MECHANICAL3
100
AcDb2dPolyline
 66
     1
 10
0.0
 20
0.0
 30
0.0
 40
0.2032
 41
0.2032
 75
     8
  0
VERTEX
  5
17E
100
AcDbEntity
  8
MECHANICAL3
100
AcDbVertex
100
AcDb2dVertex
 10
322.0974
 20
136.2202
 30
0.0
  0
VERTEX
  5
17F
100
AcDbEntity
  8
MECHANICAL3
100
AcDbVertex
100
AcDb2dVertex
 10
323.6214
 20
136.7282
 30
0.0
  0
SEQEND
  5
180
100
AcDbEntity
  8
0
  0
POLYLINE
  5
181
100
AcDbEntity
  8
MECHANICAL3
100
AcDb2dPolyline
 66
     1
 10
0.0
 20
0.0
 30
0.0
 70
     1
 40
0.1016
 41
0.1016
 75
     8
  0
VERTEX
  5
182
100
AcDbEntity
  8
MECHANICAL3
100
AcDbVertex
100
AcDb2dVertex
 10
322.0466
 20
136.2202
 30
0.0
 42
1.0
  0
VERTEX
  5
183
100
AcDbEntity
  8
MECHANICAL3
100
AcDbVertex
100
AcDb2dVertex
 10
322.1482
 20
136.2202
 30
0.0
 42
1.0
  0
SEQEND
  5
184
100
AcDbEntity
  8
0
  0
POLYLINE
  5
185
100
AcDbEntity
  8
MECHANICAL3
100
AcDb2dPolyline
 66
     1
 10
0.0
 20
0.0
 30
0.0
 70
     1
 40
0.1016
 41
0.1016
 75
     8
  0
VERTEX
  5
186
100
AcDbEntity
  8
MECHANICAL3
100
AcDbVertex
100
AcDb2dVertex
 10
323.5706
 20
136.7282
 30
0.0
 42
1.0
  0
VERTEX
  5
187
100
AcDbEntity
  8
MECHANICAL3
100
AcDbVertex
100
AcDb2dVertex
 10
323.6722
 20
136.7282
 30
0.0
 42
1.0
  0
SEQEND
  5
188
100
AcDbEntity
  8
0
  0
POLYLINE
  5
189
100
AcDbEntity
  8
MECHANICAL3
100
AcDb2dPolyline
 66
     1
 10
0.0
 20
0.0
 30
0.0
 40
0.2032
 41
0.2032
 75
     8
  0
VERTEX
  5
18A
100
AcDbEntity
  8
MECHANICAL3
100
AcDbVertex
100
AcDb2dVertex
 10
322.0974
 20
136.2202
 30
0.0
  0
VERTEX
  5
18B
100
AcDbEntity
  8
MECHANICAL3
100
AcDbVertex
100
AcDb2dVertex
 10
323.6214
 20
135.7122
 30
0.0
  0
SEQEND
  5
18C
100
AcDbEntity
  8
0
  0
POLYLINE
  5
18D
100
AcDbEntity
  8
MECHANICAL3
100
AcDb2dPolyline
 66
     1
 10
0.0
 20
0.0
 30
0.0
 70
     1
 40
0.1016
 41
0.1016
 75
     8
  0
VERTEX
  5
18E
100
AcDbEntity
  8
MECHANICAL3
100
AcDbVertex
100
AcDb2dVertex
 10
322.0466
 20
136.2202
 30
0.0
 42
1.0
  0
VERTEX
  5
18F
100
AcDbEntity
  8
MECHANICAL3
100
AcDbVertex
100
AcDb2dVertex
 10
322.1482
 20
136.2202
 30
0.0
 42
1.0
  0
SEQEND
  5
190
100
AcDbEntity
  8
0
  0
POLYLINE
  5
191
100
AcDbEntity
  8
MECHANICAL3
100
AcDb2dPolyline
 66
     1
 10
0.0
 20
0.0
 30
0.0
 70
     1
 40
0.1016
 41
0.1016
 75
     8
  0
VERTEX
  5
192
100
AcDbEntity
  8
MECHANICAL3
100
AcDbVertex
100
AcDb2dVertex
 10
323.5706
 20
135.7122
 30
0.0
 42
1.0
  0
VERTEX
  5
193
100
AcDbEntity
  8
MECHANICAL3
100
AcDbVertex
100
AcDb2dVertex
 10
323.6722
 20
135.7122
 30
0.0
 42
1.0
  0
SEQEND
  5
194
100
AcDbEntity
  8
0
  0
POLYLINE
  5
195
100
AcDbEntity
  8
MECHANICAL3
100
AcDb2dPolyline
 66
     1
 10
0.0
 20
0.0
 30
0.0
 40
0.2032
 41
0.2032
 75
     8
  0
VERTEX
  5
196
100
AcDbEntity
  8
MECHANICAL3
100
AcDbVertex
100
AcDb2dVertex
 10
335.013399
 20
136.7282
 30
0.0
  0
VERTEX
  5
197
100
AcDbEntity
  8
MECHANICAL3
100
AcDbVertex
100
AcDb2dVertex
 10
336.537399
 20
136.2202
 30
0.0
  0
SEQEND
  5
198
100
AcDbEntity
  8
0
  0
POLYLINE
  5
199
100
AcDbEntity
  8
MECHANICAL3
100
AcDb2dPolyline
 66
     1
 10
0.0
 20
0.0
 30
0.0
 70
     1
 40
0.1016
 41
0.1016
 75
     8
  0
VERTEX
  5
19A
100
AcDbEntity
  8
MECHANICAL3
100
AcDbVertex
100
AcDb2dVertex
 10
334.962599
 20
136.7282
 30
0.0
 42
1.0
  0
VERTEX
  5
19B
100
AcDbEntity
  8
MECHANICAL3
100
AcDbVertex
100
AcDb2dVertex
 10
335.064199
 20
136.7282
 30
0.0
 42
1.0
  0
SEQEND
  5
19C
100
AcDbEntity
  8
0
  0
POLYLINE
  5
19D
100
AcDbEntity
  8
MECHANICAL3
100
AcDb2dPolyline
 66
     1
 10
0.0
 20
0.0
 30
0.0
 70
     1
 40
0.1016
 41
0.1016
 75
     8
  0
VERTEX
  5
19E
100
AcDbEntity
  8
MECHANICAL3
100
AcDbVertex
100
AcDb2dVertex
 10
336.486599
 20
136.2202
 30
0.0
 42
1.0
  0
VERTEX
  5
19F
100
AcDbEntity
  8
MECHANICAL3
100
AcDbVertex
100
AcDb2dVertex
 10
336.588199
 20
136.2202
 30
0.0
 42
1.0
  0
SEQEND
  5
1A0
100
AcDbEntity
  8
0
  0
POLYLINE
  5
1A1
100
AcDbEntity
  8
MECHANICAL3
100
AcDb2dPolyline
 66
     1
 10
0.0
 20
0.0
 30
0.0
 40
0.2032
 41
0.2032
 75
     8
  0
VERTEX
  5
1A2
100
AcDbEntity
  8
MECHANICAL3
100
AcDbVertex
100
AcDb2dVertex
 10
335.013399
 20
135.7122
 30
0.0
  0
VERTEX
  5
1A3
100
AcDbEntity
  8
MECHANICAL3
100
AcDbVertex
100
AcDb2dVertex
 10
336.537399
 20
136.2202
 30
0.0
  0
SEQEND
  5
1A4
100
AcDbEntity
  8
0
  0
POLYLINE
  5
1A5
100
AcDbEntity
  8
MECHANICAL3
100
AcDb2dPolyline
 66
     1
 10
0.0
 20
0.0
 30
0.0
 70
     1
 40
0.1016
 41
0.1016
 75
     8
  0
VERTEX
  5
1A6
100
AcDbEntity
  8
MECHANICAL3
100
AcDbVertex
100
AcDb2dVertex
 10
334.962599
 20
135.7122
 30
0.0
 42
1.0
  0
VERTEX
  5
1A7
100
AcDbEntity
  8
MECHANICAL3
100
AcDbVertex
100
AcDb2dVertex
 10
335.064199
 20
135.7122
 30
0.0
 42
1.0
  0
SEQEND
  5
1A8
100
AcDbEntity
  8
0
  0
POLYLINE
  5
1A9
100
AcDbEntity
  8
MECHANICAL3
100
AcDb2dPolyline
 66
     1
 10
0.0
 20
0.0
 30
0.0
 70
     1
 40
0.1016
 41
0.1016
 75
     8
  0
VERTEX
  5
1AA
100
AcDbEntity
  8
MECHANICAL3
100
AcDbVertex
100
AcDb2dVertex
 10
336.486599
 20
136.2202
 30
0.0
 42
1.0
  0
VERTEX
  5
1AB
100
AcDbEntity
  8
MECHANICAL3
100
AcDbVertex
100
AcDb2dVertex
 10
336.588199
 20
136.2202
 30
0.0
 42
1.0
  0
SEQEND
  5
1AC
100
AcDbEntity
  8
0
  0
POLYLINE
  5
1AD
100
AcDbEntity
  8
MECHANICAL3
100
AcDb2dPolyline
 66
     1
 10
0.0
 20
0.0
 30
0.0
 40
0.2032
 41
0.2032
 75
     8
  0
VERTEX
  5
1AE
100
AcDbEntity
  8
MECHANICAL3
100
AcDbVertex
100
AcDb2dVertex
 10
322.0974
 20
136.017
 30
0.0
  0
VERTEX
  5
1AF
100
AcDbEntity
  8
MECHANICAL3
100
AcDbVertex
100
AcDb2dVertex
 10
322.0974
 20
136.4234
 30
0.0
  0
SEQEND
  5
1B0
100
AcDbEntity
  8
0
  0
POLYLINE
  5
1B1
100
AcDbEntity
  8
MECHANICAL3
100
AcDb2dPolyline
 66
     1
 10
0.0
 20
0.0
 30
0.0
 70
     1
 40
0.1016
 41
0.1016
 75
     8
  0
VERTEX
  5
1B2
100
AcDbEntity
  8
MECHANICAL3
100
AcDbVertex
100
AcDb2dVertex
 10
322.0466
 20
136.017
 30
0.0
 42
1.0
  0
VERTEX
  5
1B3
100
AcDbEntity
  8
MECHANICAL3
100
AcDbVertex
100
AcDb2dVertex
 10
322.1482
 20
136.017
 30
0.0
 42
1.0
  0
SEQEND
  5
1B4
100
AcDbEntity
  8
0
  0
POLYLINE
  5
1B5
100
AcDbEntity
  8
MECHANICAL3
100
AcDb2dPolyline
 66
     1
 10
0.0
 20
0.0
 30
0.0
 70
     1
 40
0.1016
 41
0.1016
 75
     8
  0
VERTEX
  5
1B6
100
AcDbEntity
  8
MECHANICAL3
100
AcDbVertex
100
AcDb2dVertex
 10
322.0466
 20
136.4234
 30
0.0
 42
1.0
  0
VERTEX
  5
1B7
100
AcDbEntity
  8
MECHANICAL3
100
AcDbVertex
100
AcDb2dVertex
 10
322.1482
 20
136.4234
 30
0.0
 42
1.0
  0
SEQEND
  5
1B8
100
AcDbEntity
  8
0
  0
POLYLINE
  5
1B9
100
AcDbEntity
  8
MECHANICAL3
100
AcDb2dPolyline
 66
     1
 10
0.0
 20
0.0
 30
0.0
 40
0.2032
 41
0.2032
 75
     8
  0
VERTEX
  5
1BA
100
AcDbEntity
  8
MECHANICAL3
100
AcDbVertex
100
AcDb2dVertex
 10
336.537399
 20
136.017
 30
0.0
  0
VERTEX
  5
1BB
100
AcDbEntity
  8
MECHANICAL3
100
AcDbVertex
100
AcDb2dVertex
 10
336.537399
 20
136.4234
 30
0.0
  0
SEQEND
  5
1BC
100
AcDbEntity
  8
0
  0
POLYLINE
  5
1BD
100
AcDbEntity
  8
MECHANICAL3
100
AcDb2dPolyline
 66
     1
 10
0.0
 20
0.0
 30
0.0
 70
     1
 40
0.1016
 41
0.1016
 75
     8
  0
VERTEX
  5
1BE
100
AcDbEntity
  8
MECHANICAL3
100
AcDbVertex
100
AcDb2dVertex
 10
336.486599
 20
136.017
 30
0.0
 42
1.0
  0
VERTEX
  5
1BF
100
AcDbEntity
  8
MECHANICAL3
100
AcDbVertex
100
AcDb2dVertex
 10
336.588199
 20
136.017
 30
0.0
 42
1.0
  0
SEQEND
  5
1C0
100
AcDbEntity
  8
0
  0
POLYLINE
  5
1C1
100
AcDbEntity
  8
MECHANICAL3
100
AcDb2dPolyline
 66
     1
 10
0.0
 20
0.0
 30
0.0
 70
     1
 40
0.1016
 41
0.1016
 75
     8
  0
VERTEX
  5
1C2
100
AcDbEntity
  8
MECHANICAL3
100
AcDbVertex
100
AcDb2dVertex
 10
336.486599
 20
136.4234
 30
0.0
 42
1.0
  0
VERTEX
  5
1C3
100
AcDbEntity
  8
MECHANICAL3
100
AcDbVertex
100
AcDb2dVertex
 10
336.588199
 20
136.4234
 30
0.0
 42
1.0
  0
SEQEND
  5
1C4
100
AcDbEntity
  8
0
  0
POLYLINE
  5
1C5
100
AcDbEntity
  8
MECHANICAL3
100
AcDb2dPolyline
 66
     1
 10
0.0
 20
0.0
 30
0.0
 40
0.2032
 41
0.2032
 75
     8
  0
VERTEX
  5
1C6
100
AcDbEntity
  8
MECHANICAL3
100
AcDbVertex
100
AcDb2dVertex
 10
251.6886
 20
82.296
 30
0.0
  0
VERTEX
  5
1C7
100
AcDbEntity
  8
MECHANICAL3
100
AcDbVertex
100
AcDb2dVertex
 10
251.6886
 20
83.381764
 30
0.0
  0
SEQEND
  5
1C8
100
AcDbEntity
  8
0
  0
POLYLINE
  5
1C9
100
AcDbEntity
  8
MECHANICAL3
100
AcDb2dPolyline
 66
     1
 10
0.0
 20
0.0
 30
0.0
 70
     1
 40
0.1016
 41
0.1016
 75
     8
  0
VERTEX
  5
1CA
100
AcDbEntity
  8
MECHANICAL3
100
AcDbVertex
100
AcDb2dVertex
 10
251.6378
 20
82.296
 30
0.0
 42
1.0
  0
VERTEX
  5
1CB
100
AcDbEntity
  8
MECHANICAL3
100
AcDbVertex
100
AcDb2dVertex
 10
251.7394
 20
82.296
 30
0.0
 42
1.0
  0
SEQEND
  5
1CC
100
AcDbEntity
  8
0
  0
POLYLINE
  5
1CD
100
AcDbEntity
  8
MECHANICAL3
100
AcDb2dPolyline
 66
     1
 10
0.0
 20
0.0
 30
0.0
 70
     1
 40
0.1016
 41
0.1016
 75
     8
  0
VERTEX
  5
1CE
100
AcDbEntity
  8
MECHANICAL3
100
AcDbVertex
100
AcDb2dVertex
 10
251.6378
 20
83.381764
 30
0.0
 42
1.0
  0
VERTEX
  5
1CF
100
AcDbEntity
  8
MECHANICAL3
100
AcDbVertex
100
AcDb2dVertex
 10
251.7394
 20
83.381764
 30
0.0
 42
1.0
  0
SEQEND
  5
1D0
100
AcDbEntity
  8
0
  0
POLYLINE
  5
1D1
100
AcDbEntity
  8
MECHANICAL3
100
AcDb2dPolyline
 66
     1
 10
0.0
 20
0.0
 30
0.0
 40
0.2032
 41
0.2032
 75
     8
  0
VERTEX
  5
1D2
100
AcDbEntity
  8
MECHANICAL3
100
AcDbVertex
100
AcDb2dVertex
 10
251.6886
 20
85.210236
 30
0.0
  0
VERTEX
  5
1D3
100
AcDbEntity
  8
MECHANICAL3
100
AcDbVertex
100
AcDb2dVertex
 10
251.6886
 20
86.296
 30
0.0
  0
SEQEND
  5
1D4
100
AcDbEntity
  8
0
  0
POLYLINE
  5
1D5
100
AcDbEntity
  8
MECHANICAL3
100
AcDb2dPolyline
 66
     1
 10
0.0
 20
0.0
 30
0.0
 70
     1
 40
0.1016
 41
0.1016
 75
     8
  0
VERTEX
  5
1D6
100
AcDbEntity
  8
MECHANICAL3
100
AcDbVertex
100
AcDb2dVertex
 10
251.6378
 20
85.210236
 30
0.0
 42
1.0
  0
VERTEX
  5
1D7
100
AcDbEntity
  8
MECHANICAL3
100
AcDbVertex
100
AcDb2dVertex
 10
251.7394
 20
85.210236
 30
0.0
 42
1.0
  0
SEQEND
  5
1D8
100
AcDbEntity
  8
0
  0
POLYLINE
  5
1D9
100
AcDbEntity
  8
MECHANICAL3
100
AcDb2dPolyline
 66
     1
 10
0.0
 20
0.0
 30
0.0
 70
     1
 40
0.1016
 41
0.1016
 75
     8
  0
VERTEX
  5
1DA
100
AcDbEntity
  8
MECHANICAL3
100
AcDbVertex
100
AcDb2dVertex
 10
251.6378
 20
86.296
 30
0.0
 42
1.0
  0
VERTEX
  5
1DB
100
AcDbEntity
  8
MECHANICAL3
100
AcDbVertex
100
AcDb2dVertex
 10
251.7394
 20
86.296
 30
0.0
 42
1.0
  0
SEQEND
  5
1DC
100
AcDbEntity
  8
0
  0
POLYLINE
  5
1DD
100
AcDbEntity
  8
MECHANICAL3
100
AcDb2dPolyline
 66
     1
 10
0.0
 20
0.0
 30
0.0
 40
0.2032
 41
0.2032
 75
     8
  0
VERTEX
  5
1DE
100
AcDbEntity
  8
MECHANICAL3
100
AcDbVertex
100
AcDb2dVertex
 10
251.1806
 20
83.82
 30
0.0
  0
VERTEX
  5
1DF
100
AcDbEntity
  8
MECHANICAL3
100
AcDbVertex
100
AcDb2dVertex
 10
251.6886
 20
82.296
 30
0.0
  0
SEQEND
  5
1E0
100
AcDbEntity
  8
0
  0
POLYLINE
  5
1E1
100
AcDbEntity
  8
MECHANICAL3
100
AcDb2dPolyline
 66
     1
 10
0.0
 20
0.0
 30
0.0
 70
     1
 40
0.1016
 41
0.1016
 75
     8
  0
VERTEX
  5
1E2
100
AcDbEntity
  8
MECHANICAL3
100
AcDbVertex
100
AcDb2dVertex
 10
251.1298
 20
83.82
 30
0.0
 42
1.0
  0
VERTEX
  5
1E3
100
AcDbEntity
  8
MECHANICAL3
100
AcDbVertex
100
AcDb2dVertex
 10
251.2314
 20
83.82
 30
0.0
 42
1.0
  0
SEQEND
  5
1E4
100
AcDbEntity
  8
0
  0
POLYLINE
  5
1E5
100
AcDbEntity
  8
MECHANICAL3
100
AcDb2dPolyline
 66
     1
 10
0.0
 20
0.0
 30
0.0
 70
     1
 40
0.1016
 41
0.1016
 75
     8
  0
VERTEX
  5
1E6
100
AcDbEntity
  8
MECHANICAL3
100
AcDbVertex
100
AcDb2dVertex
 10
251.6378
 20
82.296
 30
0.0
 42
1.0
  0
VERTEX
  5
1E7
100
AcDbEntity
  8
MECHANICAL3
100
AcDbVertex
100
AcDb2dVertex
 10
251.7394
 20
82.296
 30
0.0
 42
1.0
  0
SEQEND
  5
1E8
100
AcDbEntity
  8
0
  0
POLYLINE
  5
1E9
100
AcDbEntity
  8
MECHANICAL3
100
AcDb2dPolyline
 66
     1
 10
0.0
 20
0.0
 30
0.0
 40
0.2032
 41
0.2032
 75
     8
  0
VERTEX
  5
1EA
100
AcDbEntity
  8
MECHANICAL3
100
AcDbVertex
100
AcDb2dVertex
 10
251.6886
 20
82.296
 30
0.0
  0
VERTEX
  5
1EB
100
AcDbEntity
  8
MECHANICAL3
100
AcDbVertex
100
AcDb2dVertex
 10
252.1966
 20
83.82
 30
0.0
  0
SEQEND
  5
1EC
100
AcDbEntity
  8
0
  0
POLYLINE
  5
1ED
100
AcDbEntity
  8
MECHANICAL3
100
AcDb2dPolyline
 66
     1
 10
0.0
 20
0.0
 30
0.0
 70
     1
 40
0.1016
 41
0.1016
 75
     8
  0
VERTEX
  5
1EE
100
AcDbEntity
  8
MECHANICAL3
100
AcDbVertex
100
AcDb2dVertex
 10
251.6378
 20
82.296
 30
0.0
 42
1.0
  0
VERTEX
  5
1EF
100
AcDbEntity
  8
MECHANICAL3
100
AcDbVertex
100
AcDb2dVertex
 10
251.7394
 20
82.296
 30
0.0
 42
1.0
  0
SEQEND
  5
1F0
100
AcDbEntity
  8
0
  0
POLYLINE
  5
1F1
100
AcDbEntity
  8
MECHANICAL3
100
AcDb2dPolyline
 66
     1
 10
0.0
 20
0.0
 30
0.0
 70
     1
 40
0.1016
 41
0.1016
 75
     8
  0
VERTEX
  5
1F2
100
AcDbEntity
  8
MECHANICAL3
100
AcDbVertex
100
AcDb2dVertex
 10
252.1458
 20
83.82
 30
0.0
 42
1.0
  0
VERTEX
  5
1F3
100
AcDbEntity
  8
MECHANICAL3
100
AcDbVertex
100
AcDb2dVertex
 10
252.2474
 20
83.82
 30
0.0
 42
1.0
  0
SEQEND
  5
1F4
100
AcDbEntity
  8
0
  0
POLYLINE
  5
1F5
100
AcDbEntity
  8
MECHANICAL3
100
AcDb2dPolyline
 66
     1
 10
0.0
 20
0.0
 30
0.0
 40
0.2032
 41
0.2032
 75
     8
  0
VERTEX
  5
1F6
100
AcDbEntity
  8
MECHANICAL3
100
AcDbVertex
100
AcDb2dVertex
 10
251.1806
 20
84.772
 30
0.0
  0
VERTEX
  5
1F7
100
AcDbEntity
  8
MECHANICAL3
100
AcDbVertex
100
AcDb2dVertex
 10
251.6886
 20
86.296
 30
0.0
  0
SEQEND
  5
1F8
100
AcDbEntity
  8
0
  0
POLYLINE
  5
1F9
100
AcDbEntity
  8
MECHANICAL3
100
AcDb2dPolyline
 66
     1
 10
0.0
 20
0.0
 30
0.0
 70
     1
 40
0.1016
 41
0.1016
 75
     8
  0
VERTEX
  5
1FA
100
AcDbEntity
  8
MECHANICAL3
100
AcDbVertex
100
AcDb2dVertex
 10
251.1298
 20
84.772
 30
0.0
 42
1.0
  0
VERTEX
  5
1FB
100
AcDbEntity
  8
MECHANICAL3
100
AcDbVertex
100
AcDb2dVertex
 10
251.2314
 20
84.772
 30
0.0
 42
1.0
  0
SEQEND
  5
1FC
100
AcDbEntity
  8
0
  0
POLYLINE
  5
1FD
100
AcDbEntity
  8
MECHANICAL3
100
AcDb2dPolyline
 66
     1
 10
0.0
 20
0.0
 30
0.0
 70
     1
 40
0.1016
 41
0.1016
 75
     8
  0
VERTEX
  5
1FE
100
AcDbEntity
  8
MECHANICAL3
100
AcDbVertex
100
AcDb2dVertex
 10
251.6378
 20
86.296
 30
0.0
 42
1.0
  0
VERTEX
  5
1FF
100
AcDbEntity
  8
MECHANICAL3
100
AcDbVertex
100
AcDb2dVertex
 10
251.7394
 20
86.296
 30
0.0
 42
1.0
  0
SEQEND
  5
200
100
AcDbEntity
  8
0
  0
POLYLINE
  5
201
100
AcDbEntity
  8
MECHANICAL3
100
AcDb2dPolyline
 66
     1
 10
0.0
 20
0.0
 30
0.0
 40
0.2032
 41
0.2032
 75
     8
  0
VERTEX
  5
202
100
AcDbEntity
  8
MECHANICAL3
100
AcDbVertex
100
AcDb2dVertex
 10
251.6886
 20
86.296
 30
0.0
  0
VERTEX
  5
203
100
AcDbEntity
  8
MECHANICAL3
100
AcDbVertex
100
AcDb2dVertex
 10
252.1966
 20
84.772
 30
0.0
  0
SEQEND
  5
204
100
AcDbEntity
  8
0
  0
POLYLINE
  5
205
100
AcDbEntity
  8
MECHANICAL3
100
AcDb2dPolyline
 66
     1
 10
0.0
 20
0.0
 30
0.0
 70
     1
 40
0.1016
 41
0.1016
 75
     8
  0
VERTEX
  5
206
100
AcDbEntity
  8
MECHANICAL3
100
AcDbVertex
100
AcDb2dVertex
 10
251.6378
 20
86.296
 30
0.0
 42
1.0
  0
VERTEX
  5
207
100
AcDbEntity
  8
MECHANICAL3
100
AcDbVertex
100
AcDb2dVertex
 10
251.7394
 20
86.296
 30
0.0
 42
1.0
  0
SEQEND
  5
208
100
AcDbEntity
  8
0
  0
POLYLINE
  5
209
100
AcDbEntity
  8
MECHANICAL3
100
AcDb2dPolyline
 66
     1
 10
0.0
 20
0.0
 30
0.0
 70
     1
 40
0.1016
 41
0.1016
 75
     8
  0
VERTEX
  5
20A
100
AcDbEntity
  8
MECHANICAL3
100
AcDbVertex
100
AcDb2dVertex
 10
252.1458
 20
84.772
 30
0.0
 42
1.0
  0
VERTEX
  5
20B
100
AcDbEntity
  8
MECHANICAL3
100
AcDbVertex
100
AcDb2dVertex
 10
252.2474
 20
84.772
 30
0.0
 42
1.0
  0
SEQEND
  5
20C
100
AcDbEntity
  8
0
  0
POLYLINE
  5
20D
100
AcDbEntity
  8
MECHANICAL3
100
AcDb2dPolyline
 66
     1
 10
0.0
 20
0.0
 30
0.0
 40
0.2032
 41
0.2032
 75
     8
  0
VERTEX
  5
20E
100
AcDbEntity
  8
MECHANICAL3
100
AcDbVertex
100
AcDb2dVertex
 10
251.4854
 20
82.296
 30
0.0
  0
VERTEX
  5
20F
100
AcDbEntity
  8
MECHANICAL3
100
AcDbVertex
100
AcDb2dVertex
 10
251.8918
 20
82.296
 30
0.0
  0
SEQEND
  5
210
100
AcDbEntity
  8
0
  0
POLYLINE
  5
211
100
AcDbEntity
  8
MECHANICAL3
100
AcDb2dPolyline
 66
     1
 10
0.0
 20
0.0
 30
0.0
 70
     1
 40
0.1016
 41
0.1016
 75
     8
  0
VERTEX
  5
212
100
AcDbEntity
  8
MECHANICAL3
100
AcDbVertex
100
AcDb2dVertex
 10
251.4346
 20
82.296
 30
0.0
 42
1.0
  0
VERTEX
  5
213
100
AcDbEntity
  8
MECHANICAL3
100
AcDbVertex
100
AcDb2dVertex
 10
251.5362
 20
82.296
 30
0.0
 42
1.0
  0
SEQEND
  5
214
100
AcDbEntity
  8
0
  0
POLYLINE
  5
215
100
AcDbEntity
  8
MECHANICAL3
100
AcDb2dPolyline
 66
     1
 10
0.0
 20
0.0
 30
0.0
 70
     1
 40
0.1016
 41
0.1016
 75
     8
  0
VERTEX
  5
216
100
AcDbEntity
  8
MECHANICAL3
100
AcDbVertex
100
AcDb2dVertex
 10
251.841
 20
82.296
 30
0.0
 42
1.0
  0
VERTEX
  5
217
100
AcDbEntity
  8
MECHANICAL3
100
AcDbVertex
100
AcDb2dVertex
 10
251.9426
 20
82.296
 30
0.0
 42
1.0
  0
SEQEND
  5
218
100
AcDbEntity
  8
0
  0
POLYLINE
  5
219
100
AcDbEntity
  8
MECHANICAL3
100
AcDb2dPolyline
 66
     1
 10
0.0
 20
0.0
 30
0.0
 40
0.2032
 41
0.2032
 75
     8
  0
VERTEX
  5
21A
100
AcDbEntity
  8
MECHANICAL3
100
AcDbVertex
100
AcDb2dVertex
 10
251.4854
 20
86.296
 30
0.0
  0
VERTEX
  5
21B
100
AcDbEntity
  8
MECHANICAL3
100
AcDbVertex
100
AcDb2dVertex
 10
251.8918
 20
86.296
 30
0.0
  0
SEQEND
  5
21C
100
AcDbEntity
  8
0
  0
POLYLINE
  5
21D
100
AcDbEntity
  8
MECHANICAL3
100
AcDb2dPolyline
 66
     1
 10
0.0
 20
0.0
 30
0.0
 70
     1
 40
0.1016
 41
0.1016
 75
     8
  0
VERTEX
  5
21E
100
AcDbEntity
  8
MECHANICAL3
100
AcDbVertex
100
AcDb2dVertex
 10
251.4346
 20
86.296
 30
0.0
 42
1.0
  0
VERTEX
  5
21F
100
AcDbEntity
  8
MECHANICAL3
100
AcDbVertex
100
AcDb2dVertex
 10
251.5362
 20
86.296
 30
0.0
 42
1.0
  0
SEQEND
  5
220
100
AcDbEntity
  8
0
  0
POLYLINE
  5
221
100
AcDbEntity
  8
MECHANICAL3
100
AcDb2dPolyline
 66
     1
 10
0.0
 20
0.0
 30
0.0
 70
     1
 40
0.1016
 41
0.1016
 75
     8
  0
VERTEX
  5
222
100
AcDbEntity
  8
MECHANICAL3
100
AcDbVertex
100
AcDb2dVertex
 10
251.841
 20
86.296
 30
0.0
 42
1.0
  0
VERTEX
  5
223
100
AcDbEntity
  8
MECHANICAL3
100
AcDbVertex
100
AcDb2dVertex
 10
251.9426
 20
86.296
 30
0.0
 42
1.0
  0
SEQEND
  5
224
100
AcDbEntity
  8
0
  0
POLYLINE
  5
225
100
AcDbEntity
  8
MECHANICAL3
100
AcDb2dPolyline
 66
     1
 10
0.0
 20
0.0
 30
0.0
 40
0.2032
 41
0.2032
 75
     8
  0
VERTEX
  5
226
100
AcDbEntity
  8
MECHANICAL3
100
AcDbVertex
100
AcDb2dVertex
 10
256.54
 20
80.518
 30
0.0
  0
VERTEX
  5
227
100
AcDbEntity
  8
MECHANICAL3
100
AcDbVertex
100
AcDb2dVertex
 10
260.097669
 20
80.518
 30
0.0
  0
SEQEND
  5
228
100
AcDbEntity
  8
0
  0
POLYLINE
  5
229
100
AcDbEntity
  8
MECHANICAL3
100
AcDb2dPolyline
 66
     1
 10
0.0
 20
0.0
 30
0.0
 70
     1
 40
0.1016
 41
0.1016
 75
     8
  0
VERTEX
  5
22A
100
AcDbEntity
  8
MECHANICAL3
100
AcDbVertex
100
AcDb2dVertex
 10
256.4892
 20
80.518
 30
0.0
 42
1.0
  0
VERTEX
  5
22B
100
AcDbEntity
  8
MECHANICAL3
100
AcDbVertex
100
AcDb2dVertex
 10
256.5908
 20
80.518
 30
0.0
 42
1.0
  0
SEQEND
  5
22C
100
AcDbEntity
  8
0
  0
POLYLINE
  5
22D
100
AcDbEntity
  8
MECHANICAL3
100
AcDb2dPolyline
 66
     1
 10
0.0
 20
0.0
 30
0.0
 70
     1
 40
0.1016
 41
0.1016
 75
     8
  0
VERTEX
  5
22E
100
AcDbEntity
  8
MECHANICAL3
100
AcDbVertex
100
AcDb2dVertex
 10
260.046869
 20
80.518
 30
0.0
 42
1.0
  0
VERTEX
  5
22F
100
AcDbEntity
  8
MECHANICAL3
100
AcDbVertex
100
AcDb2dVertex
 10
260.148469
 20
80.518
 30
0.0
 42
1.0
  0
SEQEND
  5
230
100
AcDbEntity
  8
0
  0
POLYLINE
  5
231
100
AcDbEntity
  8
MECHANICAL3
100
AcDb2dPolyline
 66
     1
 10
0.0
 20
0.0
 30
0.0
 40
0.2032
 41
0.2032
 75
     8
  0
VERTEX
  5
232
100
AcDbEntity
  8
MECHANICAL3
100
AcDbVertex
100
AcDb2dVertex
 10
267.51233
 20
80.518
 30
0.0
  0
VERTEX
  5
233
100
AcDbEntity
  8
MECHANICAL3
100
AcDbVertex
100
AcDb2dVertex
 10
271.069999
 20
80.518
 30
0.0
  0
SEQEND
  5
234
100
AcDbEntity
  8
0
  0
POLYLINE
  5
235
100
AcDbEntity
  8
MECHANICAL3
100
AcDb2dPolyline
 66
     1
 10
0.0
 20
0.0
 30
0.0
 70
     1
 40
0.1016
 41
0.1016
 75
     8
  0
VERTEX
  5
236
100
AcDbEntity
  8
MECHANICAL3
100
AcDbVertex
100
AcDb2dVertex
 10
267.46153
 20
80.518
 30
0.0
 42
1.0
  0
VERTEX
  5
237
100
AcDbEntity
  8
MECHANICAL3
100
AcDbVertex
100
AcDb2dVertex
 10
267.56313
 20
80.518
 30
0.0
 42
1.0
  0
SEQEND
  5
238
100
AcDbEntity
  8
0
  0
POLYLINE
  5
239
100
AcDbEntity
  8
MECHANICAL3
100
AcDb2dPolyline
 66
     1
 10
0.0
 20
0.0
 30
0.0
 70
     1
 40
0.1016
 41
0.1016
 75
     8
  0
VERTEX
  5
23A
100
AcDbEntity
  8
MECHANICAL3
100
AcDbVertex
100
AcDb2dVertex
 10
271.019199
 20
80.518
 30
0.0
 42
1.0
  0
VERTEX
  5
23B
100
AcDbEntity
  8
MECHANICAL3
100
AcDbVertex
100
AcDb2dVertex
 10
271.120799
 20
80.518
 30
0.0
 42
1.0
  0
SEQEND
  5
23C
100
AcDbEntity
  8
0
  0
POLYLINE
  5
23D
100
AcDbEntity
  8
MECHANICAL3
100
AcDb2dPolyline
 66
     1
 10
0.0
 20
0.0
 30
0.0
 40
0.2032
 41
0.2032
 75
     8
  0
VERTEX
  5
23E
100
AcDbEntity
  8
MECHANICAL3
100
AcDbVertex
100
AcDb2dVertex
 10
256.54
 20
80.518
 30
0.0
  0
VERTEX
  5
23F
100
AcDbEntity
  8
MECHANICAL3
100
AcDbVertex
100
AcDb2dVertex
 10
258.064
 20
81.026
 30
0.0
  0
SEQEND
  5
240
100
AcDbEntity
  8
0
  0
POLYLINE
  5
241
100
AcDbEntity
  8
MECHANICAL3
100
AcDb2dPolyline
 66
     1
 10
0.0
 20
0.0
 30
0.0
 70
     1
 40
0.1016
 41
0.1016
 75
     8
  0
VERTEX
  5
242
100
AcDbEntity
  8
MECHANICAL3
100
AcDbVertex
100
AcDb2dVertex
 10
256.4892
 20
80.518
 30
0.0
 42
1.0
  0
VERTEX
  5
243
100
AcDbEntity
  8
MECHANICAL3
100
AcDbVertex
100
AcDb2dVertex
 10
256.5908
 20
80.518
 30
0.0
 42
1.0
  0
SEQEND
  5
244
100
AcDbEntity
  8
0
  0
POLYLINE
  5
245
100
AcDbEntity
  8
MECHANICAL3
100
AcDb2dPolyline
 66
     1
 10
0.0
 20
0.0
 30
0.0
 70
     1
 40
0.1016
 41
0.1016
 75
     8
  0
VERTEX
  5
246
100
AcDbEntity
  8
MECHANICAL3
100
AcDbVertex
100
AcDb2dVertex
 10
258.0132
 20
81.026
 30
0.0
 42
1.0
  0
VERTEX
  5
247
100
AcDbEntity
  8
MECHANICAL3
100
AcDbVertex
100
AcDb2dVertex
 10
258.1148
 20
81.026
 30
0.0
 42
1.0
  0
SEQEND
  5
248
100
AcDbEntity
  8
0
  0
POLYLINE
  5
249
100
AcDbEntity
  8
MECHANICAL3
100
AcDb2dPolyline
 66
     1
 10
0.0
 20
0.0
 30
0.0
 40
0.2032
 41
0.2032
 75
     8
  0
VERTEX
  5
24A
100
AcDbEntity
  8
MECHANICAL3
100
AcDbVertex
100
AcDb2dVertex
 10
256.54
 20
80.518
 30
0.0
  0
VERTEX
  5
24B
100
AcDbEntity
  8
MECHANICAL3
100
AcDbVertex
100
AcDb2dVertex
 10
258.064
 20
80.01
 30
0.0
  0
SEQEND
  5
24C
100
AcDbEntity
  8
0
  0
POLYLINE
  5
24D
100
AcDbEntity
  8
MECHANICAL3
100
AcDb2dPolyline
 66
     1
 10
0.0
 20
0.0
 30
0.0
 70
     1
 40
0.1016
 41
0.1016
 75
     8
  0
VERTEX
  5
24E
100
AcDbEntity
  8
MECHANICAL3
100
AcDbVertex
100
AcDb2dVertex
 10
256.4892
 20
80.518
 30
0.0
 42
1.0
  0
VERTEX
  5
24F
100
AcDbEntity
  8
MECHANICAL3
100
AcDbVertex
100
AcDb2dVertex
 10
256.5908
 20
80.518
 30
0.0
 42
1.0
  0
SEQEND
  5
250
100
AcDbEntity
  8
0
  0
POLYLINE
  5
251
100
AcDbEntity
  8
MECHANICAL3
100
AcDb2dPolyline
 66
     1
 10
0.0
 20
0.0
 30
0.0
 70
     1
 40
0.1016
 41
0.1016
 75
     8
  0
VERTEX
  5
252
100
AcDbEntity
  8
MECHANICAL3
100
AcDbVertex
100
AcDb2dVertex
 10
258.0132
 20
80.01
 30
0.0
 42
1.0
  0
VERTEX
  5
253
100
AcDbEntity
  8
MECHANICAL3
100
AcDbVertex
100
AcDb2dVertex
 10
258.1148
 20
80.01
 30
0.0
 42
1.0
  0
SEQEND
  5
254
100
AcDbEntity
  8
0
  0
POLYLINE
  5
255
100
AcDbEntity
  8
MECHANICAL3
100
AcDb2dPolyline
 66
     1
 10
0.0
 20
0.0
 30
0.0
 40
0.2032
 41
0.2032
 75
     8
  0
VERTEX
  5
256
100
AcDbEntity
  8
MECHANICAL3
100
AcDbVertex
100
AcDb2dVertex
 10
269.545999
 20
81.026
 30
0.0
  0
VERTEX
  5
257
100
AcDbEntity
  8
MECHANICAL3
100
AcDbVertex
100
AcDb2dVertex
 10
271.069999
 20
80.518
 30
0.0
  0
SEQEND
  5
258
100
AcDbEntity
  8
0
  0
POLYLINE
  5
259
100
AcDbEntity
  8
MECHANICAL3
100
AcDb2dPolyline
 66
     1
 10
0.0
 20
0.0
 30
0.0
 70
     1
 40
0.1016
 41
0.1016
 75
     8
  0
VERTEX
  5
25A
100
AcDbEntity
  8
MECHANICAL3
100
AcDbVertex
100
AcDb2dVertex
 10
269.495199
 20
81.026
 30
0.0
 42
1.0
  0
VERTEX
  5
25B
100
AcDbEntity
  8
MECHANICAL3
100
AcDbVertex
100
AcDb2dVertex
 10
269.596799
 20
81.026
 30
0.0
 42
1.0
  0
SEQEND
  5
25C
100
AcDbEntity
  8
0
  0
POLYLINE
  5
25D
100
AcDbEntity
  8
MECHANICAL3
100
AcDb2dPolyline
 66
     1
 10
0.0
 20
0.0
 30
0.0
 70
     1
 40
0.1016
 41
0.1016
 75
     8
  0
VERTEX
  5
25E
100
AcDbEntity
  8
MECHANICAL3
100
AcDbVertex
100
AcDb2dVertex
 10
271.019199
 20
80.518
 30
0.0
 42
1.0
  0
VERTEX
  5
25F
100
AcDbEntity
  8
MECHANICAL3
100
AcDbVertex
100
AcDb2dVertex
 10
271.120799
 20
80.518
 30
0.0
 42
1.0
  0
SEQEND
  5
260
100
AcDbEntity
  8
0
  0
POLYLINE
  5
261
100
AcDbEntity
  8
MECHANICAL3
100
AcDb2dPolyline
 66
     1
 10
0.0
 20
0.0
 30
0.0
 40
0.2032
 41
0.2032
 75
     8
  0
VERTEX
  5
262
100
AcDbEntity
  8
MECHANICAL3
100
AcDbVertex
100
AcDb2dVertex
 10
269.545999
 20
80.01
 30
0.0
  0
VERTEX
  5
263
100
AcDbEntity
  8
MECHANICAL3
100
AcDbVertex
100
AcDb2dVertex
 10
271.069999
 20
80.518
 30
0.0
  0
SEQEND
  5
264
100
AcDbEntity
  8
0
  0
POLYLINE
  5
265
100
AcDbEntity
  8
MECHANICAL3
100
AcDb2dPolyline
 66
     1
 10
0.0
 20
0.0
 30
0.0
 70
     1
 40
0.1016
 41
0.1016
 75
     8
  0
VERTEX
  5
266
100
AcDbEntity
  8
MECHANICAL3
100
AcDbVertex
100
AcDb2dVertex
 10
269.495199
 20
80.01
 30
0.0
 42
1.0
  0
VERTEX
  5
267
100
AcDbEntity
  8
MECHANICAL3
100
AcDbVertex
100
AcDb2dVertex
 10
269.596799
 20
80.01
 30
0.0
 42
1.0
  0
SEQEND
  5
268
100
AcDbEntity
  8
0
  0
POLYLINE
  5
269
100
AcDbEntity
  8
MECHANICAL3
100
AcDb2dPolyline
 66
     1
 10
0.0
 20
0.0
 30
0.0
 70
     1
 40
0.1016
 41
0.1016
 75
     8
  0
VERTEX
  5
26A
100
AcDbEntity
  8
MECHANICAL3
100
AcDbVertex
100
AcDb2dVertex
 10
271.019199
 20
80.518
 30
0.0
 42
1.0
  0
VERTEX
  5
26B
100
AcDbEntity
  8
MECHANICAL3
100
AcDbVertex
100
AcDb2dVertex
 10
271.120799
 20
80.518
 30
0.0
 42
1.0
  0
SEQEND
  5
26C
100
AcDbEntity
  8
0
  0
POLYLINE
  5
26D
100
AcDbEntity
  8
MECHANICAL3
100
AcDb2dPolyline
 66
     1
 10
0.0
 20
0.0
 30
0.0
 40
0.2032
 41
0.2032
 75
     8
  0
VERTEX
  5
26E
100
AcDbEntity
  8
MECHANICAL3
100
AcDbVertex
100
AcDb2dVertex
 10
256.54
 20
80.3148
 30
0.0
  0
VERTEX
  5
26F
100
AcDbEntity
  8
MECHANICAL3
100
AcDbVertex
100
AcDb2dVertex
 10
256.54
 20
80.7212
 30
0.0
  0
SEQEND
  5
270
100
AcDbEntity
  8
0
  0
POLYLINE
  5
271
100
AcDbEntity
  8
MECHANICAL3
100
AcDb2dPolyline
 66
     1
 10
0.0
 20
0.0
 30
0.0
 70
     1
 40
0.1016
 41
0.1016
 75
     8
  0
VERTEX
  5
272
100
AcDbEntity
  8
MECHANICAL3
100
AcDbVertex
100
AcDb2dVertex
 10
256.4892
 20
80.3148
 30
0.0
 42
1.0
  0
VERTEX
  5
273
100
AcDbEntity
  8
MECHANICAL3
100
AcDbVertex
100
AcDb2dVertex
 10
256.5908
 20
80.3148
 30
0.0
 42
1.0
  0
SEQEND
  5
274
100
AcDbEntity
  8
0
  0
POLYLINE
  5
275
100
AcDbEntity
  8
MECHANICAL3
100
AcDb2dPolyline
 66
     1
 10
0.0
 20
0.0
 30
0.0
 70
     1
 40
0.1016
 41
0.1016
 75
     8
  0
VERTEX
  5
276
100
AcDbEntity
  8
MECHANICAL3
100
AcDbVertex
100
AcDb2dVertex
 10
256.4892
 20
80.7212
 30
0.0
 42
1.0
  0
VERTEX
  5
277
100
AcDbEntity
  8
MECHANICAL3
100
AcDbVertex
100
AcDb2dVertex
 10
256.5908
 20
80.7212
 30
0.0
 42
1.0
  0
SEQEND
  5
278
100
AcDbEntity
  8
0
  0
POLYLINE
  5
279
100
AcDbEntity
  8
MECHANICAL3
100
AcDb2dPolyline
 66
     1
 10
0.0
 20
0.0
 30
0.0
 40
0.2032
 41
0.2032
 75
     8
  0
VERTEX
  5
27A
100
AcDbEntity
  8
MECHANICAL3
100
AcDbVertex
100
AcDb2dVertex
 10
271.069999
 20
80.3148
 30
0.0
  0
VERTEX
  5
27B
100
AcDbEntity
  8
MECHANICAL3
100
AcDbVertex
100
AcDb2dVertex
 10
271.069999
 20
80.7212
 30
0.0
  0
SEQEND
  5
27C
100
AcDbEntity
  8
0
  0
POLYLINE
  5
27D
100
AcDbEntity
  8
MECHANICAL3
100
AcDb2dPolyline
 66
     1
 10
0.0
 20
0.0
 30
0.0
 70
     1
 40
0.1016
 41
0.1016
 75
     8
  0
VERTEX
  5
27E
100
AcDbEntity
  8
MECHANICAL3
100
AcDbVertex
100
AcDb2dVertex
 10
271.019199
 20
80.3148
 30
0.0
 42
1.0
  0
VERTEX
  5
27F
100
AcDbEntity
  8
MECHANICAL3
100
AcDbVertex
100
AcDb2dVertex
 10
271.120799
 20
80.3148
 30
0.0
 42
1.0
  0
SEQEND
  5
280
100
AcDbEntity
  8
0
  0
POLYLINE
  5
281
100
AcDbEntity
  8
MECHANICAL3
100
AcDb2dPolyline
 66
     1
 10
0.0
 20
0.0
 30
0.0
 70
     1
 40
0.1016
 41
0.1016
 75
     8
  0
VERTEX
  5
282
100
AcDbEntity
  8
MECHANICAL3
100
AcDbVertex
100
AcDb2dVertex
 10
271.019199
 20
80.7212
 30
0.0
 42
1.0
  0
VERTEX
  5
283
100
AcDbEntity
  8
MECHANICAL3
100
AcDbVertex
100
AcDb2dVertex
 10
271.120799
 20
80.7212
 30
0.0
 42
1.0
  0
SEQEND
  5
284
100
AcDbEntity
  8
0
  0
POLYLINE
  5
285
100
AcDbEntity
  8
MECHANICAL3
100
AcDb2dPolyline
 66
     1
 10
0.0
 20
0.0
 30
0.0
 40
0.2032
 41
0.2032
 75
     8
  0
VERTEX
  5
286
100
AcDbEntity
  8
MECHANICAL3
100
AcDbVertex
100
AcDb2dVertex
 10
256.54
 20
77.795999
 30
0.0
  0
VERTEX
  5
287
100
AcDbEntity
  8
MECHANICAL3
100
AcDbVertex
100
AcDb2dVertex
 10
294.86401
 20
77.795999
 30
0.0
  0
SEQEND
  5
288
100
AcDbEntity
  8
0
  0
POLYLINE
  5
289
100
AcDbEntity
  8
MECHANICAL3
100
AcDb2dPolyline
 66
     1
 10
0.0
 20
0.0
 30
0.0
 70
     1
 40
0.1016
 41
0.1016
 75
     8
  0
VERTEX
  5
28A
100
AcDbEntity
  8
MECHANICAL3
100
AcDbVertex
100
AcDb2dVertex
 10
256.4892
 20
77.795999
 30
0.0
 42
1.0
  0
VERTEX
  5
28B
100
AcDbEntity
  8
MECHANICAL3
100
AcDbVertex
100
AcDb2dVertex
 10
256.5908
 20
77.795999
 30
0.0
 42
1.0
  0
SEQEND
  5
28C
100
AcDbEntity
  8
0
  0
POLYLINE
  5
28D
100
AcDbEntity
  8
MECHANICAL3
100
AcDb2dPolyline
 66
     1
 10
0.0
 20
0.0
 30
0.0
 70
     1
 40
0.1016
 41
0.1016
 75
     8
  0
VERTEX
  5
28E
100
AcDbEntity
  8
MECHANICAL3
100
AcDbVertex
100
AcDb2dVertex
 10
294.81321
 20
77.795999
 30
0.0
 42
1.0
  0
VERTEX
  5
28F
100
AcDbEntity
  8
MECHANICAL3
100
AcDbVertex
100
AcDb2dVertex
 10
294.91481
 20
77.795999
 30
0.0
 42
1.0
  0
SEQEND
  5
290
100
AcDbEntity
  8
0
  0
POLYLINE
  5
291
100
AcDbEntity
  8
MECHANICAL3
100
AcDb2dPolyline
 66
     1
 10
0.0
 20
0.0
 30
0.0
 40
0.2032
 41
0.2032
 75
     8
  0
VERTEX
  5
292
100
AcDbEntity
  8
MECHANICAL3
100
AcDbVertex
100
AcDb2dVertex
 10
298.21599
 20
77.795999
 30
0.0
  0
VERTEX
  5
293
100
AcDbEntity
  8
MECHANICAL3
100
AcDbVertex
100
AcDb2dVertex
 10
336.54
 20
77.795999
 30
0.0
  0
SEQEND
  5
294
100
AcDbEntity
  8
0
  0
POLYLINE
  5
295
100
AcDbEntity
  8
MECHANICAL3
100
AcDb2dPolyline
 66
     1
 10
0.0
 20
0.0
 30
0.0
 70
     1
 40
0.1016
 41
0.1016
 75
     8
  0
VERTEX
  5
296
100
AcDbEntity
  8
MECHANICAL3
100
AcDbVertex
100
AcDb2dVertex
 10
298.16519
 20
77.795999
 30
0.0
 42
1.0
  0
VERTEX
  5
297
100
AcDbEntity
  8
MECHANICAL3
100
AcDbVertex
100
AcDb2dVertex
 10
298.26679
 20
77.795999
 30
0.0
 42
1.0
  0
SEQEND
  5
298
100
AcDbEntity
  8
0
  0
POLYLINE
  5
299
100
AcDbEntity
  8
MECHANICAL3
100
AcDb2dPolyline
 66
     1
 10
0.0
 20
0.0
 30
0.0
 70
     1
 40
0.1016
 41
0.1016
 75
     8
  0
VERTEX
  5
29A
100
AcDbEntity
  8
MECHANICAL3
100
AcDbVertex
100
AcDb2dVertex
 10
336.4892
 20
77.795999
 30
0.0
 42
1.0
  0
VERTEX
  5
29B
100
AcDbEntity
  8
MECHANICAL3
100
AcDbVertex
100
AcDb2dVertex
 10
336.5908
 20
77.795999
 30
0.0
 42
1.0
  0
SEQEND
  5
29C
100
AcDbEntity
  8
0
  0
POLYLINE
  5
29D
100
AcDbEntity
  8
MECHANICAL3
100
AcDb2dPolyline
 66
     1
 10
0.0
 20
0.0
 30
0.0
 40
0.2032
 41
0.2032
 75
     8
  0
VERTEX
  5
29E
100
AcDbEntity
  8
MECHANICAL3
100
AcDbVertex
100
AcDb2dVertex
 10
256.54
 20
77.795999
 30
0.0
  0
VERTEX
  5
29F
100
AcDbEntity
  8
MECHANICAL3
100
AcDbVertex
100
AcDb2dVertex
 10
258.064
 20
78.303999
 30
0.0
  0
SEQEND
  5
2A0
100
AcDbEntity
  8
0
  0
POLYLINE
  5
2A1
100
AcDbEntity
  8
MECHANICAL3
100
AcDb2dPolyline
 66
     1
 10
0.0
 20
0.0
 30
0.0
 70
     1
 40
0.1016
 41
0.1016
 75
     8
  0
VERTEX
  5
2A2
100
AcDbEntity
  8
MECHANICAL3
100
AcDbVertex
100
AcDb2dVertex
 10
256.4892
 20
77.795999
 30
0.0
 42
1.0
  0
VERTEX
  5
2A3
100
AcDbEntity
  8
MECHANICAL3
100
AcDbVertex
100
AcDb2dVertex
 10
256.5908
 20
77.795999
 30
0.0
 42
1.0
  0
SEQEND
  5
2A4
100
AcDbEntity
  8
0
  0
POLYLINE
  5
2A5
100
AcDbEntity
  8
MECHANICAL3
100
AcDb2dPolyline
 66
     1
 10
0.0
 20
0.0
 30
0.0
 70
     1
 40
0.1016
 41
0.1016
 75
     8
  0
VERTEX
  5
2A6
100
AcDbEntity
  8
MECHANICAL3
100
AcDbVertex
100
AcDb2dVertex
 10
258.0132
 20
78.303999
 30
0.0
 42
1.0
  0
VERTEX
  5
2A7
100
AcDbEntity
  8
MECHANICAL3
100
AcDbVertex
100
AcDb2dVertex
 10
258.1148
 20
78.303999
 30
0.0
 42
1.0
  0
SEQEND
  5
2A8
100
AcDbEntity
  8
0
  0
POLYLINE
  5
2A9
100
AcDbEntity
  8
MECHANICAL3
100
AcDb2dPolyline
 66
     1
 10
0.0
 20
0.0
 30
0.0
 40
0.2032
 41
0.2032
 75
     8
  0
VERTEX
  5
2AA
100
AcDbEntity
  8
MECHANICAL3
100
AcDbVertex
100
AcDb2dVertex
 10
256.54
 20
77.795999
 30
0.0
  0
VERTEX
  5
2AB
100
AcDbEntity
  8
MECHANICAL3
100
AcDbVertex
100
AcDb2dVertex
 10
258.064
 20
77.287999
 30
0.0
  0
SEQEND
  5
2AC
100
AcDbEntity
  8
0
  0
POLYLINE
  5
2AD
100
AcDbEntity
  8
MECHANICAL3
100
AcDb2dPolyline
 66
     1
 10
0.0
 20
0.0
 30
0.0
 70
     1
 40
0.1016
 41
0.1016
 75
     8
  0
VERTEX
  5
2AE
100
AcDbEntity
  8
MECHANICAL3
100
AcDbVertex
100
AcDb2dVertex
 10
256.4892
 20
77.795999
 30
0.0
 42
1.0
  0
VERTEX
  5
2AF
100
AcDbEntity
  8
MECHANICAL3
100
AcDbVertex
100
AcDb2dVertex
 10
256.5908
 20
77.795999
 30
0.0
 42
1.0
  0
SEQEND
  5
2B0
100
AcDbEntity
  8
0
  0
POLYLINE
  5
2B1
100
AcDbEntity
  8
MECHANICAL3
100
AcDb2dPolyline
 66
     1
 10
0.0
 20
0.0
 30
0.0
 70
     1
 40
0.1016
 41
0.1016
 75
     8
  0
VERTEX
  5
2B2
100
AcDbEntity
  8
MECHANICAL3
100
AcDbVertex
100
AcDb2dVertex
 10
258.0132
 20
77.287999
 30
0.0
 42
1.0
  0
VERTEX
  5
2B3
100
AcDbEntity
  8
MECHANICAL3
100
AcDbVertex
100
AcDb2dVertex
 10
258.1148
 20
77.287999
 30
0.0
 42
1.0
  0
SEQEND
  5
2B4
100
AcDbEntity
  8
0
  0
POLYLINE
  5
2B5
100
AcDbEntity
  8
MECHANICAL3
100
AcDb2dPolyline
 66
     1
 10
0.0
 20
0.0
 30
0.0
 40
0.2032
 41
0.2032
 75
     8
  0
VERTEX
  5
2B6
100
AcDbEntity
  8
MECHANICAL3
100
AcDbVertex
100
AcDb2dVertex
 10
335.016
 20
78.303999
 30
0.0
  0
VERTEX
  5
2B7
100
AcDbEntity
  8
MECHANICAL3
100
AcDbVertex
100
AcDb2dVertex
 10
336.54
 20
77.795999
 30
0.0
  0
SEQEND
  5
2B8
100
AcDbEntity
  8
0
  0
POLYLINE
  5
2B9
100
AcDbEntity
  8
MECHANICAL3
100
AcDb2dPolyline
 66
     1
 10
0.0
 20
0.0
 30
0.0
 70
     1
 40
0.1016
 41
0.1016
 75
     8
  0
VERTEX
  5
2BA
100
AcDbEntity
  8
MECHANICAL3
100
AcDbVertex
100
AcDb2dVertex
 10
334.9652
 20
78.303999
 30
0.0
 42
1.0
  0
VERTEX
  5
2BB
100
AcDbEntity
  8
MECHANICAL3
100
AcDbVertex
100
AcDb2dVertex
 10
335.0668
 20
78.303999
 30
0.0
 42
1.0
  0
SEQEND
  5
2BC
100
AcDbEntity
  8
0
  0
POLYLINE
  5
2BD
100
AcDbEntity
  8
MECHANICAL3
100
AcDb2dPolyline
 66
     1
 10
0.0
 20
0.0
 30
0.0
 70
     1
 40
0.1016
 41
0.1016
 75
     8
  0
VERTEX
  5
2BE
100
AcDbEntity
  8
MECHANICAL3
100
AcDbVertex
100
AcDb2dVertex
 10
336.4892
 20
77.795999
 30
0.0
 42
1.0
  0
VERTEX
  5
2BF
100
AcDbEntity
  8
MECHANICAL3
100
AcDbVertex
100
AcDb2dVertex
 10
336.5908
 20
77.795999
 30
0.0
 42
1.0
  0
SEQEND
  5
2C0
100
AcDbEntity
  8
0
  0
POLYLINE
  5
2C1
100
AcDbEntity
  8
MECHANICAL3
100
AcDb2dPolyline
 66
     1
 10
0.0
 20
0.0
 30
0.0
 40
0.2032
 41
0.2032
 75
     8
  0
VERTEX
  5
2C2
100
AcDbEntity
  8
MECHANICAL3
100
AcDbVertex
100
AcDb2dVertex
 10
335.016
 20
77.287999
 30
0.0
  0
VERTEX
  5
2C3
100
AcDbEntity
  8
MECHANICAL3
100
AcDbVertex
100
AcDb2dVertex
 10
336.54
 20
77.795999
 30
0.0
  0
SEQEND
  5
2C4
100
AcDbEntity
  8
0
  0
POLYLINE
  5
2C5
100
AcDbEntity
  8
MECHANICAL3
100
AcDb2dPolyline
 66
     1
 10
0.0
 20
0.0
 30
0.0
 70
     1
 40
0.1016
 41
0.1016
 75
     8
  0
VERTEX
  5
2C6
100
AcDbEntity
  8
MECHANICAL3
100
AcDbVertex
100
AcDb2dVertex
 10
334.9652
 20
77.287999
 30
0.0
 42
1.0
  0
VERTEX
  5
2C7
100
AcDbEntity
  8
MECHANICAL3
100
AcDbVertex
100
AcDb2dVertex
 10
335.0668
 20
77.287999
 30
0.0
 42
1.0
  0
SEQEND
  5
2C8
100
AcDbEntity
  8
0
  0
POLYLINE
  5
2C9
100
AcDbEntity
  8
MECHANICAL3
100
AcDb2dPolyline
 66
     1
 10
0.0
 20
0.0
 30
0.0
 70
     1
 40
0.1016
 41
0.1016
 75
     8
  0
VERTEX
  5
2CA
100
AcDbEntity
  8
MECHANICAL3
100
AcDbVertex
100
AcDb2dVertex
 10
336.4892
 20
77.795999
 30
0.0
 42
1.0
  0
VERTEX
  5
2CB
100
AcDbEntity
  8
MECHANICAL3
100
AcDbVertex
100
AcDb2dVertex
 10
336.5908
 20
77.795999
 30
0.0
 42
1.0
  0
SEQEND
  5
2CC
100
AcDbEntity
  8
0
  0
POLYLINE
  5
2CD
100
AcDbEntity
  8
MECHANICAL3
100
AcDb2dPolyline
 66
     1
 10
0.0
 20
0.0
 30
0.0
 40
0.2032
 41
0.2032
 75
     8
  0
VERTEX
  5
2CE
100
AcDbEntity
  8
MECHANICAL3
100
AcDbVertex
100
AcDb2dVertex
 10
256.54
 20
77.592799
 30
0.0
  0
VERTEX
  5
2CF
100
AcDbEntity
  8
MECHANICAL3
100
AcDbVertex
100
AcDb2dVertex
 10
256.54
 20
77.999199
 30
0.0
  0
SEQEND
  5
2D0
100
AcDbEntity
  8
0
  0
POLYLINE
  5
2D1
100
AcDbEntity
  8
MECHANICAL3
100
AcDb2dPolyline
 66
     1
 10
0.0
 20
0.0
 30
0.0
 70
     1
 40
0.1016
 41
0.1016
 75
     8
  0
VERTEX
  5
2D2
100
AcDbEntity
  8
MECHANICAL3
100
AcDbVertex
100
AcDb2dVertex
 10
256.4892
 20
77.592799
 30
0.0
 42
1.0
  0
VERTEX
  5
2D3
100
AcDbEntity
  8
MECHANICAL3
100
AcDbVertex
100
AcDb2dVertex
 10
256.5908
 20
77.592799
 30
0.0
 42
1.0
  0
SEQEND
  5
2D4
100
AcDbEntity
  8
0
  0
POLYLINE
  5
2D5
100
AcDbEntity
  8
MECHANICAL3
100
AcDb2dPolyline
 66
     1
 10
0.0
 20
0.0
 30
0.0
 70
     1
 40
0.1016
 41
0.1016
 75
     8
  0
VERTEX
  5
2D6
100
AcDbEntity
  8
MECHANICAL3
100
AcDbVertex
100
AcDb2dVertex
 10
256.4892
 20
77.999199
 30
0.0
 42
1.0
  0
VERTEX
  5
2D7
100
AcDbEntity
  8
MECHANICAL3
100
AcDbVertex
100
AcDb2dVertex
 10
256.5908
 20
77.999199
 30
0.0
 42
1.0
  0
SEQEND
  5
2D8
100
AcDbEntity
  8
0
  0
POLYLINE
  5
2D9
100
AcDbEntity
  8
MECHANICAL3
100
AcDb2dPolyline
 66
     1
 10
0.0
 20
0.0
 30
0.0
 40
0.2032
 41
0.2032
 75
     8
  0
VERTEX
  5
2DA
100
AcDbEntity
  8
MECHANICAL3
100
AcDbVertex
100
AcDb2dVertex
 10
336.54
 20
77.592799
 30
0.0
  0
VERTEX
  5
2DB
100
AcDbEntity
  8
MECHANICAL3
100
AcDbVertex
100
AcDb2dVertex
 10
336.54
 20
77.999199
 30
0.0
  0
SEQEND
  5
2DC
100
AcDbEntity
  8
0
  0
POLYLINE
  5
2DD
100
AcDbEntity
  8
MECHANICAL3
100
AcDb2dPolyline
 66
     1
 10
0.0
 20
0.0
 30
0.0
 70
     1
 40
0.1016
 41
0.1016
 75
     8
  0
VERTEX
  5
2DE
100
AcDbEntity
  8
MECHANICAL3
100
AcDbVertex
100
AcDb2dVertex
 10
336.4892
 20
77.592799
 30
0.0
 42
1.0
  0
VERTEX
  5
2DF
100
AcDbEntity
  8
MECHANICAL3
100
AcDbVertex
100
AcDb2dVertex
 10
336.5908
 20
77.592799
 30
0.0
 42
1.0
  0
SEQEND
  5
2E0
100
AcDbEntity
  8
0
  0
POLYLINE
  5
2E1
100
AcDbEntity
  8
MECHANICAL3
100
AcDb2dPolyline
 66
     1
 10
0.0
 20
0.0
 30
0.0
 70
     1
 40
0.1016
 41
0.1016
 75
     8
  0
VERTEX
  5
2E2
100
AcDbEntity
  8
MECHANICAL3
100
AcDbVertex
100
AcDb2dVertex
 10
336.4892
 20
77.999199
 30
0.0
 42
1.0
  0
VERTEX
  5
2E3
100
AcDbEntity
  8
MECHANICAL3
100
AcDbVertex
100
AcDb2dVertex
 10
336.5908
 20
77.999199
 30
0.0
 42
1.0
  0
SEQEND
  5
2E4
100
AcDbEntity
  8
0
  0
POLYLINE
  5
2E5
100
AcDbEntity
  8
MECHANICAL3
100
AcDb2dPolyline
 66
     1
 10
0.0
 20
0.0
 30
0.0
 40
0.2032
 41
0.2032
 75
     8
  0
VERTEX
  5
2E6
100
AcDbEntity
  8
MECHANICAL3
100
AcDbVertex
100
AcDb2dVertex
 10
248.412
 20
82.296
 30
0.0
  0
VERTEX
  5
2E7
100
AcDbEntity
  8
MECHANICAL3
100
AcDbVertex
100
AcDb2dVertex
 10
248.412
 20
105.620012
 30
0.0
  0
SEQEND
  5
2E8
100
AcDbEntity
  8
0
  0
POLYLINE
  5
2E9
100
AcDbEntity
  8
MECHANICAL3
100
AcDb2dPolyline
 66
     1
 10
0.0
 20
0.0
 30
0.0
 70
     1
 40
0.1016
 41
0.1016
 75
     8
  0
VERTEX
  5
2EA
100
AcDbEntity
  8
MECHANICAL3
100
AcDbVertex
100
AcDb2dVertex
 10
248.3612
 20
82.296
 30
0.0
 42
1.0
  0
VERTEX
  5
2EB
100
AcDbEntity
  8
MECHANICAL3
100
AcDbVertex
100
AcDb2dVertex
 10
248.4628
 20
82.296
 30
0.0
 42
1.0
  0
SEQEND
  5
2EC
100
AcDbEntity
  8
0
  0
POLYLINE
  5
2ED
100
AcDbEntity
  8
MECHANICAL3
100
AcDb2dPolyline
 66
     1
 10
0.0
 20
0.0
 30
0.0
 70
     1
 40
0.1016
 41
0.1016
 75
     8
  0
VERTEX
  5
2EE
100
AcDbEntity
  8
MECHANICAL3
100
AcDbVertex
100
AcDb2dVertex
 10
248.3612
 20
105.620012
 30
0.0
 42
1.0
  0
VERTEX
  5
2EF
100
AcDbEntity
  8
MECHANICAL3
100
AcDbVertex
100
AcDb2dVertex
 10
248.4628
 20
105.620012
 30
0.0
 42
1.0
  0
SEQEND
  5
2F0
100
AcDbEntity
  8
0
  0
POLYLINE
  5
2F1
100
AcDbEntity
  8
MECHANICAL3
100
AcDb2dPolyline
 66
     1
 10
0.0
 20
0.0
 30
0.0
 40
0.2032
 41
0.2032
 75
     8
  0
VERTEX
  5
2F2
100
AcDbEntity
  8
MECHANICAL3
100
AcDbVertex
100
AcDb2dVertex
 10
248.412
 20
108.971989
 30
0.0
  0
VERTEX
  5
2F3
100
AcDbEntity
  8
MECHANICAL3
100
AcDbVertex
100
AcDb2dVertex
 10
248.412
 20
132.296002
 30
0.0
  0
SEQEND
  5
2F4
100
AcDbEntity
  8
0
  0
POLYLINE
  5
2F5
100
AcDbEntity
  8
MECHANICAL3
100
AcDb2dPolyline
 66
     1
 10
0.0
 20
0.0
 30
0.0
 70
     1
 40
0.1016
 41
0.1016
 75
     8
  0
VERTEX
  5
2F6
100
AcDbEntity
  8
MECHANICAL3
100
AcDbVertex
100
AcDb2dVertex
 10
248.3612
 20
108.971989
 30
0.0
 42
1.0
  0
VERTEX
  5
2F7
100
AcDbEntity
  8
MECHANICAL3
100
AcDbVertex
100
AcDb2dVertex
 10
248.4628
 20
108.971989
 30
0.0
 42
1.0
  0
SEQEND
  5
2F8
100
AcDbEntity
  8
0
  0
POLYLINE
  5
2F9
100
AcDbEntity
  8
MECHANICAL3
100
AcDb2dPolyline
 66
     1
 10
0.0
 20
0.0
 30
0.0
 70
     1
 40
0.1016
 41
0.1016
 75
     8
  0
VERTEX
  5
2FA
100
AcDbEntity
  8
MECHANICAL3
100
AcDbVertex
100
AcDb2dVertex
 10
248.3612
 20
132.296002
 30
0.0
 42
1.0
  0
VERTEX
  5
2FB
100
AcDbEntity
  8
MECHANICAL3
100
AcDbVertex
100
AcDb2dVertex
 10
248.4628
 20
132.296002
 30
0.0
 42
1.0
  0
SEQEND
  5
2FC
100
AcDbEntity
  8
0
  0
POLYLINE
  5
2FD
100
AcDbEntity
  8
MECHANICAL3
100
AcDb2dPolyline
 66
     1
 10
0.0
 20
0.0
 30
0.0
 40
0.2032
 41
0.2032
 75
     8
  0
VERTEX
  5
2FE
100
AcDbEntity
  8
MECHANICAL3
100
AcDbVertex
100
AcDb2dVertex
 10
247.904
 20
83.82
 30
0.0
  0
VERTEX
  5
2FF
100
AcDbEntity
  8
MECHANICAL3
100
AcDbVertex
100
AcDb2dVertex
 10
248.412
 20
82.296
 30
0.0
  0
SEQEND
  5
300
100
AcDbEntity
  8
0
  0
POLYLINE
  5
301
100
AcDbEntity
  8
MECHANICAL3
100
AcDb2dPolyline
 66
     1
 10
0.0
 20
0.0
 30
0.0
 70
     1
 40
0.1016
 41
0.1016
 75
     8
  0
VERTEX
  5
302
100
AcDbEntity
  8
MECHANICAL3
100
AcDbVertex
100
AcDb2dVertex
 10
247.8532
 20
83.82
 30
0.0
 42
1.0
  0
VERTEX
  5
303
100
AcDbEntity
  8
MECHANICAL3
100
AcDbVertex
100
AcDb2dVertex
 10
247.9548
 20
83.82
 30
0.0
 42
1.0
  0
SEQEND
  5
304
100
AcDbEntity
  8
0
  0
POLYLINE
  5
305
100
AcDbEntity
  8
MECHANICAL3
100
AcDb2dPolyline
 66
     1
 10
0.0
 20
0.0
 30
0.0
 70
     1
 40
0.1016
 41
0.1016
 75
     8
  0
VERTEX
  5
306
100
AcDbEntity
  8
MECHANICAL3
100
AcDbVertex
100
AcDb2dVertex
 10
248.3612
 20
82.296
 30
0.0
 42
1.0
  0
VERTEX
  5
307
100
AcDbEntity
  8
MECHANICAL3
100
AcDbVertex
100
AcDb2dVertex
 10
248.4628
 20
82.296
 30
0.0
 42
1.0
  0
SEQEND
  5
308
100
AcDbEntity
  8
0
  0
POLYLINE
  5
309
100
AcDbEntity
  8
MECHANICAL3
100
AcDb2dPolyline
 66
     1
 10
0.0
 20
0.0
 30
0.0
 40
0.2032
 41
0.2032
 75
     8
  0
VERTEX
  5
30A
100
AcDbEntity
  8
MECHANICAL3
100
AcDbVertex
100
AcDb2dVertex
 10
248.412
 20
82.296
 30
0.0
  0
VERTEX
  5
30B
100
AcDbEntity
  8
MECHANICAL3
100
AcDbVertex
100
AcDb2dVertex
 10
248.92
 20
83.82
 30
0.0
  0
SEQEND
  5
30C
100
AcDbEntity
  8
0
  0
POLYLINE
  5
30D
100
AcDbEntity
  8
MECHANICAL3
100
AcDb2dPolyline
 66
     1
 10
0.0
 20
0.0
 30
0.0
 70
     1
 40
0.1016
 41
0.1016
 75
     8
  0
VERTEX
  5
30E
100
AcDbEntity
  8
MECHANICAL3
100
AcDbVertex
100
AcDb2dVertex
 10
248.3612
 20
82.296
 30
0.0
 42
1.0
  0
VERTEX
  5
30F
100
AcDbEntity
  8
MECHANICAL3
100
AcDbVertex
100
AcDb2dVertex
 10
248.4628
 20
82.296
 30
0.0
 42
1.0
  0
SEQEND
  5
310
100
AcDbEntity
  8
0
  0
POLYLINE
  5
311
100
AcDbEntity
  8
MECHANICAL3
100
AcDb2dPolyline
 66
     1
 10
0.0
 20
0.0
 30
0.0
 70
     1
 40
0.1016
 41
0.1016
 75
     8
  0
VERTEX
  5
312
100
AcDbEntity
  8
MECHANICAL3
100
AcDbVertex
100
AcDb2dVertex
 10
248.8692
 20
83.82
 30
0.0
 42
1.0
  0
VERTEX
  5
313
100
AcDbEntity
  8
MECHANICAL3
100
AcDbVertex
100
AcDb2dVertex
 10
248.9708
 20
83.82
 30
0.0
 42
1.0
  0
SEQEND
  5
314
100
AcDbEntity
  8
0
  0
POLYLINE
  5
315
100
AcDbEntity
  8
MECHANICAL3
100
AcDb2dPolyline
 66
     1
 10
0.0
 20
0.0
 30
0.0
 40
0.2032
 41
0.2032
 75
     8
  0
VERTEX
  5
316
100
AcDbEntity
  8
MECHANICAL3
100
AcDbVertex
100
AcDb2dVertex
 10
247.904
 20
130.772002
 30
0.0
  0
VERTEX
  5
317
100
AcDbEntity
  8
MECHANICAL3
100
AcDbVertex
100
AcDb2dVertex
 10
248.412
 20
132.296002
 30
0.0
  0
SEQEND
  5
318
100
AcDbEntity
  8
0
  0
POLYLINE
  5
319
100
AcDbEntity
  8
MECHANICAL3
100
AcDb2dPolyline
 66
     1
 10
0.0
 20
0.0
 30
0.0
 70
     1
 40
0.1016
 41
0.1016
 75
     8
  0
VERTEX
  5
31A
100
AcDbEntity
  8
MECHANICAL3
100
AcDbVertex
100
AcDb2dVertex
 10
247.8532
 20
130.772002
 30
0.0
 42
1.0
  0
VERTEX
  5
31B
100
AcDbEntity
  8
MECHANICAL3
100
AcDbVertex
100
AcDb2dVertex
 10
247.9548
 20
130.772002
 30
0.0
 42
1.0
  0
SEQEND
  5
31C
100
AcDbEntity
  8
0
  0
POLYLINE
  5
31D
100
AcDbEntity
  8
MECHANICAL3
100
AcDb2dPolyline
 66
     1
 10
0.0
 20
0.0
 30
0.0
 70
     1
 40
0.1016
 41
0.1016
 75
     8
  0
VERTEX
  5
31E
100
AcDbEntity
  8
MECHANICAL3
100
AcDbVertex
100
AcDb2dVertex
 10
248.3612
 20
132.296002
 30
0.0
 42
1.0
  0
VERTEX
  5
31F
100
AcDbEntity
  8
MECHANICAL3
100
AcDbVertex
100
AcDb2dVertex
 10
248.4628
 20
132.296002
 30
0.0
 42
1.0
  0
SEQEND
  5
320
100
AcDbEntity
  8
0
  0
POLYLINE
  5
321
100
AcDbEntity
  8
MECHANICAL3
100
AcDb2dPolyline
 66
     1
 10
0.0
 20
0.0
 30
0.0
 40
0.2032
 41
0.2032
 75
     8
  0
VERTEX
  5
322
100
AcDbEntity
  8
MECHANICAL3
100
AcDbVertex
100
AcDb2dVertex
 10
248.412
 20
132.296002
 30
0.0
  0
VERTEX
  5
323
100
AcDbEntity
  8
MECHANICAL3
100
AcDbVertex
100
AcDb2dVertex
 10
248.92
 20
130.772002
 30
0.0
  0
SEQEND
  5
324
100
AcDbEntity
  8
0
  0
POLYLINE
  5
325
100
AcDbEntity
  8
MECHANICAL3
100
AcDb2dPolyline
 66
     1
 10
0.0
 20
0.0
 30
0.0
 70
     1
 40
0.1016
 41
0.1016
 75
     8
  0
VERTEX
  5
326
100
AcDbEntity
  8
MECHANICAL3
100
AcDbVertex
100
AcDb2dVertex
 10
248.3612
 20
132.296002
 30
0.0
 42
1.0
  0
VERTEX
  5
327
100
AcDbEntity
  8
MECHANICAL3
100
AcDbVertex
100
AcDb2dVertex
 10
248.4628
 20
132.296002
 30
0.0
 42
1.0
  0
SEQEND
  5
328
100
AcDbEntity
  8
0
  0
POLYLINE
  5
329
100
AcDbEntity
  8
MECHANICAL3
100
AcDb2dPolyline
 66
     1
 10
0.0
 20
0.0
 30
0.0
 70
     1
 40
0.1016
 41
0.1016
 75
     8
  0
VERTEX
  5
32A
100
AcDbEntity
  8
MECHANICAL3
100
AcDbVertex
100
AcDb2dVertex
 10
248.8692
 20
130.772002
 30
0.0
 42
1.0
  0
VERTEX
  5
32B
100
AcDbEntity
  8
MECHANICAL3
100
AcDbVertex
100
AcDb2dVertex
 10
248.9708
 20
130.772002
 30
0.0
 42
1.0
  0
SEQEND
  5
32C
100
AcDbEntity
  8
0
  0
POLYLINE
  5
32D
100
AcDbEntity
  8
MECHANICAL3
100
AcDb2dPolyline
 66
     1
 10
0.0
 20
0.0
 30
0.0
 40
0.2032
 41
0.2032
 75
     8
  0
VERTEX
  5
32E
100
AcDbEntity
  8
MECHANICAL3
100
AcDbVertex
100
AcDb2dVertex
 10
248.2088
 20
82.296
 30
0.0
  0
VERTEX
  5
32F
100
AcDbEntity
  8
MECHANICAL3
100
AcDbVertex
100
AcDb2dVertex
 10
248.6152
 20
82.296
 30
0.0
  0
SEQEND
  5
330
100
AcDbEntity
  8
0
  0
POLYLINE
  5
331
100
AcDbEntity
  8
MECHANICAL3
100
AcDb2dPolyline
 66
     1
 10
0.0
 20
0.0
 30
0.0
 70
     1
 40
0.1016
 41
0.1016
 75
     8
  0
VERTEX
  5
332
100
AcDbEntity
  8
MECHANICAL3
100
AcDbVertex
100
AcDb2dVertex
 10
248.158
 20
82.296
 30
0.0
 42
1.0
  0
VERTEX
  5
333
100
AcDbEntity
  8
MECHANICAL3
100
AcDbVertex
100
AcDb2dVertex
 10
248.2596
 20
82.296
 30
0.0
 42
1.0
  0
SEQEND
  5
334
100
AcDbEntity
  8
0
  0
POLYLINE
  5
335
100
AcDbEntity
  8
MECHANICAL3
100
AcDb2dPolyline
 66
     1
 10
0.0
 20
0.0
 30
0.0
 70
     1
 40
0.1016
 41
0.1016
 75
     8
  0
VERTEX
  5
336
100
AcDbEntity
  8
MECHANICAL3
100
AcDbVertex
100
AcDb2dVertex
 10
248.5644
 20
82.296
 30
0.0
 42
1.0
  0
VERTEX
  5
337
100
AcDbEntity
  8
MECHANICAL3
100
AcDbVertex
100
AcDb2dVertex
 10
248.666
 20
82.296
 30
0.0
 42
1.0
  0
SEQEND
  5
338
100
AcDbEntity
  8
0
  0
POLYLINE
  5
339
100
AcDbEntity
  8
MECHANICAL3
100
AcDb2dPolyline
 66
     1
 10
0.0
 20
0.0
 30
0.0
 40
0.2032
 41
0.2032
 75
     8
  0
VERTEX
  5
33A
100
AcDbEntity
  8
MECHANICAL3
100
AcDbVertex
100
AcDb2dVertex
 10
248.2088
 20
132.296002
 30
0.0
  0
VERTEX
  5
33B
100
AcDbEntity
  8
MECHANICAL3
100
AcDbVertex
100
AcDb2dVertex
 10
248.6152
 20
132.296002
 30
0.0
  0
SEQEND
  5
33C
100
AcDbEntity
  8
0
  0
POLYLINE
  5
33D
100
AcDbEntity
  8
MECHANICAL3
100
AcDb2dPolyline
 66
     1
 10
0.0
 20
0.0
 30
0.0
 70
     1
 40
0.1016
 41
0.1016
 75
     8
  0
VERTEX
  5
33E
100
AcDbEntity
  8
MECHANICAL3
100
AcDbVertex
100
AcDb2dVertex
 10
248.158
 20
132.296002
 30
0.0
 42
1.0
  0
VERTEX
  5
33F
100
AcDbEntity
  8
MECHANICAL3
100
AcDbVertex
100
AcDb2dVertex
 10
248.2596
 20
132.296002
 30
0.0
 42
1.0
  0
SEQEND
  5
340
100
AcDbEntity
  8
0
  0
POLYLINE
  5
341
100
AcDbEntity
  8
MECHANICAL3
100
AcDb2dPolyline
 66
     1
 10
0.0
 20
0.0
 30
0.0
 70
     1
 40
0.1016
 41
0.1016
 75
     8
  0
VERTEX
  5
342
100
AcDbEntity
  8
MECHANICAL3
100
AcDbVertex
100
AcDb2dVertex
 10
248.5644
 20
132.296002
 30
0.0
 42
1.0
  0
VERTEX
  5
343
100
AcDbEntity
  8
MECHANICAL3
100
AcDbVertex
100
AcDb2dVertex
 10
248.666
 20
132.296002
 30
0.0
 42
1.0
  0
SEQEND
  5
344
100
AcDbEntity
  8
0
  0
TEXT
  5
345
100
AcDbEntity
  8
MECHANICAL3
100
AcDbText
 10
342.746614
 20
127.543865
 30
0.0
 40
1.524
  1
3.88
 50
90.0
100
AcDbText
  0
TEXT
  5
346
100
AcDbEntity
  8
MECHANICAL3
100
AcDbText
 10
325.864068
 20
135.306046
 30
0.0
 40
1.524
  1
14.44
100
AcDbText
  0
TEXT
  5
347
100
AcDbEntity
  8
MECHANICAL3
100
AcDbText
 10
252.602754
 20
83.635764
 30
0.0
 40
1.524
  1
4
 50
90.0
100
AcDbText
  0
TEXT
  5
348
100
AcDbEntity
  8
MECHANICAL3
100
AcDbText
 10
260.351669
 20
79.603846
 30
0.0
 40
1.524
  1
14.53
100
AcDbText
  0
TEXT
  5
349
100
AcDbEntity
  8
MECHANICAL3
100
AcDbText
 10
295.11801
 20
76.881845
 30
0.0
 40
1.524
  1
80
100
AcDbText
  0
TEXT
  5
34A
100
AcDbEntity
  8
MECHANICAL3
100
AcDbText
 10
249.326154
 20
105.874012
 30
0.0
 40
1.524
  1
50
 50
90.0
100
AcDbText
  0
INSERT
  5
3C6
100
AcDbEntity
  8
0
100
AcDbBlockReference
  2
POWERF_1
 10
330.984149
 20
109.69117
 30
0.0
 50
360.0
  0
INSERT
  5
472
100
AcDbEntity
  8
0
100
AcDbBlockReference
  2
3_81_10_2
 10
263.047991
 20
125.15361
 30
0.0
 50
270.0
  0
TEXT
  5
473
100
AcDbEntity
  8
TOPOVERLAY
100
AcDbText
 10
265.657589
 20
127.255209
 30
0.0
 40
1.524
  1

 50
270.0
100
AcDbText
  0
INSERT
  5
52B
100
AcDbEntity
  8
0
100
AcDbBlockReference
  2
______3
 10
324.289699
 20
115.629106
 30
0.0
 50
360.0
  0
INSERT
  5
5A8
100
AcDbEntity
  8
0
100
AcDbBlockReference
  2
LED3_4
 10
330.151994
 20
125.20897
 30
0.0
  0
INSERT
  5
6B7
100
AcDbEntity
  8
0
100
AcDbBlockReference
  2
RJ45_POE_5
 10
320.76199
 20
93.33197
 30
0.0
  0
ENDSEC
  0
SECTION
  2
OBJECTS
  0
DICTIONARY
  5
19
100
AcDbDictionary
  3
ACAD_GROUP
350
1A
  3
ACAD_MLINESTYLE
350
1B
  0
DICTIONARY
  5
1A
102
{ACAD_REACTORS
330
19
102
}
100
AcDbDictionary
  0
DICTIONARY
  5
1B
102
{ACAD_REACTORS
330
19
102
}
100
AcDbDictionary
  3
STANDARD
350
1C
  0
MLINESTYLE
  5
1C
102
{ACAD_REACTORS
330
1B
102
}
100
AcDbMlineStyle
  2
STANDARD
 70
     0
  3

 62
     0
 51
90.0
 52
90.0
 71
     2
 49
0.5
 62
   256
  6
BYLAYER
 49
-0.5
 62
   256
  6
BYLAYER
  0
ENDSEC
  0
EOF
